<svg width="175" height="176" viewBox="0 0 175 176" fill="none" xmlns="http://www.w3.org/2000/svg">
<path d="M58.8613 144.188C55.1893 142.443 55.0555 139.773 54.0348 135.646C53.0571 131.693 46.9478 131.101 47.0982 126.758C47.2539 122.264 46.2977 119.636 44.3711 116.254C43.9537 115.521 43.9432 114.367 43.9755 113.435C44.0159 112.269 42.8809 112.108 42.758 111.212C42.4922 109.274 42.4266 107.649 43.4232 105.281C44.3145 103.162 44.7007 100.283 44.8236 98.0539C44.9807 95.2042 46.1175 92.8131 47.3607 90.1983L47.4174 90.079C49.3764 85.9576 47.1481 79.7196 47.2185 75.5152C47.2606 73.0003 46.4568 70.6412 46.7041 68.0361C46.7857 67.1765 47.3585 65.7142 47.5941 64.8418C47.8974 63.7185 47.5056 62.7013 47.5125 61.5511C47.5383 57.2724 47.692 53.1966 45.7788 49.8385C44.7799 48.0852 46.5393 45.4688 47.3825 43.695C48.3382 41.6843 47.9092 41.9868 48.1015 39.9609C48.6168 34.5333 49.5756 29.0949 50.9783 23.8994C51.4146 22.2835 51.1427 17.4892 51.1693 15.8987C51.1864 14.8793 51.298 13.9807 51.0642 13.0353C50.7333 11.6972 51.9339 11.3313 52.4935 10.2801C54.086 7.28858 58.3848 4.35082 61.3813 4.67582C65.0105 5.06944 66.3582 8.32034 69.4282 9.77958C70.5078 10.2928 73.5873 10.951 74.8276 10.8846C76.6844 10.7851 78.4614 12.1003 80.0783 12.8689C83.0549 14.2837 87.5504 14.8479 89.4674 17.478C90.031 18.2512 90.6746 19.0261 91.3868 19.7009C92.1021 20.1644 92.832 20.6829 93.5768 21.2582C92.7919 20.8851 92.0588 20.3376 91.3868 19.7009C50.8959 -6.53847 57.3924 143.49 58.8613 144.188Z" fill="#CB4B64"/>
<path d="M58.8613 144.188C55.1893 142.443 55.0555 139.773 54.0348 135.646C53.0571 131.693 46.9478 131.101 47.0982 126.758C47.2539 122.264 46.2977 119.636 44.3711 116.254C43.9537 115.521 43.9432 114.367 43.9755 113.435C44.0159 112.269 42.8809 112.108 42.758 111.212C42.4922 109.274 42.4266 107.649 43.4232 105.281C44.3145 103.162 44.7007 100.283 44.8236 98.0539C44.9831 95.1609 46.1523 92.7406 47.4174 90.079C49.3764 85.9576 47.1481 79.7196 47.2185 75.5152C47.2606 73.0003 46.4568 70.6412 46.7041 68.0361C46.7857 67.1765 47.3585 65.7142 47.5941 64.8418C47.8974 63.7185 47.5056 62.7013 47.5125 61.5511C47.5383 57.2724 47.692 53.1966 45.7788 49.8385C44.7799 48.0852 46.5393 45.4688 47.3825 43.695C48.3382 41.6843 47.9092 41.9869 48.1015 39.9609C48.6168 34.5333 49.5756 29.0949 50.9783 23.8994C51.4146 22.2835 51.1427 17.4892 51.1693 15.8987C51.1864 14.8793 51.298 13.9807 51.0642 13.0353C50.7333 11.6972 51.9339 11.3313 52.4935 10.2801C54.086 7.28858 58.3848 4.35082 61.3813 4.67581C65.0106 5.06943 66.3582 8.32035 69.4282 9.77959C70.5078 10.2928 73.5873 10.951 74.8276 10.8846C76.6844 10.7851 78.4614 12.1003 80.0783 12.8689C83.0549 14.2837 87.5505 14.8479 89.4674 17.478C90.5627 18.9807 91.9599 20.4896 93.5768 21.2582C50.6648 -11.8852 57.3664 143.478 58.8613 144.188Z" stroke="#EBEBEB" stroke-width="3" stroke-linecap="round"/>
<path d="M154.085 99.0474C153.498 100.039 152.911 101.024 152.425 102.045C150.854 105.35 147.35 108.17 146.529 111.755C145.535 116.099 142.631 118.726 138.975 121.336C137.03 122.724 136.019 124.312 133.765 125.446C131.533 126.568 128.979 127.648 127.405 129.667C124.736 133.088 121.115 134.512 117.735 136.925C114.76 139.049 111.124 139.526 108.771 142.543C106.749 145.136 100.895 145.883 97.987 147.296C96.4176 148.058 93.6401 147.935 91.9028 148.319C89.9161 148.757 88.8558 149.495 87.1694 150.669L87.1607 150.675C83.8524 152.977 79.2054 152.164 75.4737 152.4C71.5988 152.646 68.7495 152.168 65.1921 150.477C57.2873 146.719 55.6736 138.162 58.0347 130.281C59.4949 125.407 59.6201 120.343 60.4168 115.571C61.1812 110.992 61.5388 108.056 59.9097 103.475C58.8848 100.593 59.2018 95.1764 56.9105 93.1586C54.804 91.3036 56.4868 83.2683 56.9943 81.0512C57.7612 77.7014 62.2596 72.0074 61.0787 68.6868C59.873 65.2964 60.0602 59.9141 61.4566 56.4997C62.8557 53.0788 62.2666 48.8013 63.3669 45.5532C64.071 43.4746 63.29 41.5585 64.3088 39.4151C64.7558 38.4748 66.1195 35.3474 65.8937 34.3875C65.2924 31.8314 67.3732 26.5243 69.4557 24.7384C71.9629 22.5885 73.3893 18.9748 76.7078 17.7946C80.186 16.5577 83.6091 16.3186 87.028 17.9437C88.8738 18.821 90.1598 20.2302 92.1447 21.0344C93.6408 21.6406 95.5448 21.8738 97.2349 22.7953C101.069 24.8859 103.591 29.4929 107.521 31.6363C111.492 33.8017 115.851 34.1745 117.781 39.1475C119.684 44.0484 122.968 46.0866 126.588 49.4074C128.882 51.511 131.214 53.4537 133.483 55.6849C135.565 57.7324 138.522 59.1999 140.165 61.6415C143.018 65.8834 145.934 70.6492 148.034 75.2606C149.778 79.0924 150.901 82.6756 154.613 84.9736C157.103 86.5155 157.501 92.7511 156.41 95.0481C155.394 97.1841 154.778 97.9872 154.085 99.0474Z" fill="#CB4B64"/>
<path d="M156.867 91.3141C156.851 95.5865 154.058 98.6095 152.425 102.045M152.425 102.045C150.854 105.35 147.35 108.17 146.529 111.755C145.535 116.099 142.631 118.726 138.975 121.336C137.03 122.724 136.019 124.312 133.765 125.446C131.533 126.568 128.979 127.648 127.405 129.667C124.736 133.088 121.115 134.512 117.735 136.925C114.76 139.049 111.124 139.526 108.771 142.543C106.749 145.136 100.895 145.883 97.987 147.296C96.4176 148.058 93.6401 147.935 91.9028 148.319C89.9126 148.758 88.8521 149.498 87.1607 150.675C83.8524 152.977 79.2054 152.164 75.4737 152.4C71.5988 152.646 68.7495 152.168 65.1921 150.477C57.2873 146.719 55.6736 138.162 58.0347 130.281C59.4949 125.407 59.6201 120.343 60.4168 115.571C61.1812 110.992 61.5388 108.056 59.9097 103.475C58.8848 100.593 59.2018 95.1764 56.9105 93.1586C54.804 91.3036 56.4868 83.2683 56.9943 81.0512C57.7612 77.7014 62.2596 72.0074 61.0787 68.6868C59.873 65.2964 60.0602 59.9141 61.4566 56.4997C62.8557 53.0788 62.2667 48.8013 63.3669 45.5532C64.071 43.4746 63.29 41.5585 64.3088 39.4151C64.7558 38.4748 66.1194 35.3474 65.8937 34.3875C65.2924 31.8314 67.3732 26.5243 69.4557 24.7384C71.9629 22.5885 73.3893 18.9748 76.7078 17.7946C80.186 16.5577 83.6091 16.3186 87.028 17.9437C88.8738 18.821 90.1598 20.2302 92.1447 21.0344C93.6408 21.6406 95.5448 21.8738 97.2349 22.7953C101.069 24.8859 103.591 29.4929 107.521 31.6363C111.492 33.8017 115.851 34.1745 117.781 39.1475C119.684 44.0484 122.968 46.0866 126.588 49.4074C128.882 51.511 131.214 53.4537 133.483 55.6849C135.565 57.7324 138.522 59.1999 140.165 61.6415C143.018 65.8834 145.934 70.6492 148.034 75.2606C149.778 79.0924 150.901 82.6757 154.613 84.9736C157.103 86.5155 157.501 92.7511 156.41 95.0481C154.707 98.6294 154.128 98.4636 152.425 102.045Z" stroke="#EBEBEB" stroke-width="3" stroke-linecap="round"/>
<path d="M145.513 89.0881C145.497 91.2535 142.693 93.0516 141.721 94.9186C140.71 96.8585 138.585 98.8619 137.112 100.476C133.521 104.411 130.026 108.493 126.418 112.472C124.706 114.359 122.359 115.979 120.869 118.059C119.629 119.788 117.962 121.576 116.388 122.99C114.91 124.317 113.383 125.916 111.943 127.327C110.155 129.08 107.75 129.993 105.913 131.579C104.292 132.978 102.37 134.534 100.452 135.509C99.6272 135.929 98.5793 136.095 97.7171 136.289C96.5701 136.548 95.5191 137.202 94.4451 137.444C93.5246 137.651 92.1312 138.31 91.2119 138.159C90.3841 138.023 89.2053 137.962 88.3856 138.018C86.7644 138.127 85.0289 137.15 83.3701 136.912C82.2245 136.748 81.0756 136.785 79.9251 136.839C79.241 136.872 78.551 136.43 77.931 136.579C77.2008 136.754 73.7003 134.83 73.7203 134.138C73.817 130.785 79.9184 127.737 82.5924 126.772C84.2165 126.186 86.1482 123.875 87.285 122.629C88.3852 121.423 89.8786 120.483 90.7623 119.053C91.8538 117.286 94.6505 116.705 96.0276 115.296C97.6205 113.667 99.1447 111.907 100.838 110.427C103.112 108.441 105.555 106.52 107.97 104.733C110.611 102.78 111.997 99.9568 114.028 97.4797C117.55 93.1816 120.922 88.9346 123.961 84.3397C125.173 82.5072 126.398 80.6062 127.357 78.5878C128.119 76.9849 127.447 75.1777 127.719 73.5693C127.855 72.7672 128.207 68.932 126.267 70.8561C124.992 72.1204 124.113 73.7461 122.899 75.0758C122.106 75.9454 121.072 76.3574 120.278 77.1693C118.65 78.8339 116.479 80.1484 114.672 81.6419C112.563 83.3855 110.52 85.2457 108.29 86.833C106.336 88.2239 104.049 89.1762 102.076 90.5965C101.24 91.1984 100.542 91.9415 99.7593 92.6058C98.6383 93.5575 97.2971 94.4609 96.2552 95.482C94.9566 96.7547 92.8204 97.5244 91.3181 98.7074C89.4391 100.187 87.5864 100.859 85.3826 101.726C83.3511 102.525 81.5331 104.574 79.2608 104.579C77.6983 104.582 73.0082 104.843 74.2333 102.265C74.792 101.09 75.1 99.7258 75.687 98.4909C76.2599 97.2856 77.4966 96.2736 78.3976 95.2948C80.4007 93.1187 82.3965 90.1346 84.8607 88.501C90.2322 84.9399 93.9656 79.6622 99.1587 75.9662C101.205 74.5097 104.006 72.5716 105.119 70.2309C105.696 69.0159 106.982 68.1509 107.698 66.9917C108.289 66.0358 109.201 64.5162 110.049 63.7964C110.912 63.0645 111.369 61.3771 111.853 60.36C112.369 59.2737 113.224 58.037 113.495 56.8659C113.708 55.9419 113.794 54.8498 113.737 53.8896C113.674 52.8371 113.338 52.7691 112.265 52.3312C111.266 51.9233 110.164 53.0705 109.298 53.4016C107.792 53.9774 106.023 54.8069 104.839 55.9386C102.686 57.9974 100.356 59.8115 98.0849 61.7542C95.1837 64.2357 92.0708 66.6891 89.6824 69.7634C87.9689 71.9691 84.5269 73.3118 82.0434 74.3762C80.5855 75.0011 79.5302 75.8231 78.0473 76.1789C76.9189 76.4496 73.7465 74.4099 73.697 73.1569C73.6358 71.6064 75.1903 69.4583 75.8487 68.0731C76.7978 66.0763 78.149 64.2724 79.5081 62.5228C80.4851 61.2653 81.98 60.1871 82.6757 58.7234C82.9551 58.1356 83.7015 57.0982 84.3762 56.9364C86.6719 56.3856 88.8692 53.8327 90.4672 52.1984C91.8904 50.7429 93.2208 48.7129 94.0995 46.8643C94.789 45.4137 97.2673 41.9979 95.9541 40.4561C93.0122 37.0019 88.9058 40.2303 86.6834 43.091C85.5026 44.611 83.3557 45.5553 81.6444 46.1727C79.9021 46.8012 79.0562 46.7516 77.1531 46.7095C72.4543 46.6055 75.9336 41.3976 76.9919 39.1713C77.8618 37.3412 83.0249 33.6181 81.3429 31.4499" stroke="#EBEBEB" stroke-width="3" stroke-linecap="round"/>
<path d="M135.78 85.0562C136.469 83.9427 137.068 83.6777 136.747 82.3126C136.533 81.4049 134.676 81.2959 135.004 80.304C135.53 78.7141 136.999 75.769 134.097 75.8268" stroke="#EDEDED" stroke-width="3" stroke-linecap="round"/>
<path d="M63.3551 94.1281C63.583 93.4389 62.6098 91.0325 62.372 90.3638C61.9627 89.2129 61.5068 88.0662 61.7941 86.8109C62.0939 85.5015 61.1815 84.5135 61.8417 83.1244C62.1686 82.4368 62.4954 81.7492 62.8223 81.0616C63.1811 80.3068 63.8351 80.3495 64.1568 79.6728" stroke="#EDEDED" stroke-width="3" stroke-linecap="round"/>
<path d="M76.2221 145.091C77.0309 145.607 75.12 145.915 74.7365 145.733C73.9129 145.342 72.9771 145.184 72.2679 144.897C71.3429 144.522 70.9154 143.917 70.0607 143.511C69.2644 143.132 68.4977 144.014 67.75 143.761C66.73 143.415 66.2472 143.357 65.4346 142.642C64.7812 142.066 65.2771 141.141 65.1437 140.574C64.8081 139.147 66.5303 137.244 66.5005 135.749" stroke="#EDEDED" stroke-width="3" stroke-linecap="round"/>
<path d="M97.7311 103.387C97.3976 104.395 97.4944 105.123 96.2473 105.642C95.2527 106.055 94.2543 106.096 93.3267 106.426C92.4135 106.751 91.7948 107.378 91.0874 107.984C90.5696 108.428 90.3143 108.577 89.735 108.859C89.278 109.081 88.7891 108.648 88.308 109.024" stroke="#EDEDED" stroke-width="3" stroke-linecap="round"/>
<path d="M75.2634 28.6412C76.2091 28.2409 76.0531 26.9798 76.44 26.1658C76.7717 25.468 77.7112 24.5965 78.4486 24.423C79.1822 24.2505 80.0504 24.3323 80.7734 24.4978C81.1448 24.5828 82.9321 24.2029 83.2076 23.9876" stroke="#EDEDED" stroke-width="3" stroke-linecap="round"/>
<path d="M123.945 106.406C123.474 107.397 121.868 110.476 120.609 109.878C119.061 109.143 118.971 112.635 117.259 112.669" stroke="#EDEDED" stroke-width="3" stroke-linecap="round"/>
<path d="M55.3835 22.2264C56.1573 21.014 55.9654 19.7902 56.533 18.3893C56.9934 17.2531 56.5818 15.4412 58.0698 14.9986C59.0591 14.7044 60.0952 14.0131 61.0867 14.4844C61.9982 14.9177 63.2805 16.3997 64.2429 15.6475" stroke="#EDEDED" stroke-width="3" stroke-linecap="round"/>
<path d="M54.7139 56.976C55.4774 57.3389 54.1926 58.7065 54.4278 59.7061C54.657 60.6805 55.0957 61.5906 55.1696 62.7563C55.2119 63.4218 54.6217 63.8542 54.773 64.4972C54.869 64.9055 54.9455 65.7107 54.7596 66.1018C54.5867 66.4655 54.1953 67.8008 53.8123 67.937C53.097 68.1914 52.8782 67.3943 52.9021 68.5908" stroke="#EDEDED" stroke-width="3" stroke-linecap="round"/>
<path d="M53.0182 122.259C52.6944 122.767 51.8308 120.461 51.5008 120.171C50.9514 119.687 49.548 119.036 49.217 118.354C48.9794 117.865 49.0579 117.402 49.1425 116.895C49.2343 116.345 48.6167 116.234 48.7096 115.678C48.8122 115.063 49.8263 113.531 49.5684 113.201" stroke="#EDEDED" stroke-width="3" stroke-linecap="round"/>
</svg>
