<svg width="193" height="179" viewBox="0 0 193 179" fill="none" xmlns="http://www.w3.org/2000/svg">
<path d="M117.982 9.12414C117.982 7.95842 113.716 6.71528 112.648 6.71528C109.627 6.71528 106.639 6.71528 103.701 6.71528C101.235 6.71528 98.7683 6.71528 96.3021 6.71528C93.0728 6.71528 90.4333 7.97696 87.3549 8.85649C85.9905 9.24632 84.8112 10.068 83.646 10.8448C81.9602 11.9686 80.1522 12.7778 78.3886 13.7698C74.085 16.1906 70.0874 18.7902 65.6751 20.9964C63.815 21.9264 62.4664 23.2665 60.5324 24.1126C58.6674 24.9286 57.0759 25.5419 55.9632 27.3627C55.1128 28.7543 52.5453 30.0721 51.2029 30.9951C49.2471 32.3396 47.4396 34.1788 45.7925 35.8893C44.341 37.3966 43.015 39.183 41.3189 40.4394C39.9566 41.4485 38.3012 42.7215 37.2659 44.0526C35.5213 46.2957 32.7905 48.6163 31.6069 51.2792C30.1293 54.604 27.7277 57.4892 26.101 60.7426C25.3071 62.3304 23.822 64.2456 23.348 65.9045C22.9457 67.3125 22.2915 69.3106 21.2833 70.3781C19.4358 72.3342 19.2762 75.3428 17.6508 77.4326C16.5273 78.8772 15.902 81.0927 15.089 82.7665C14.3264 84.3365 13.7068 86.2172 13.3684 87.9092C12.7004 91.2492 10.9596 93.7536 10.9596 97.2197C10.9596 99.7199 10.2713 101.946 10.2713 104.446C10.2713 106.602 9.58306 108.705 9.58306 110.813C9.58306 113.157 9.58306 115.456 9.58306 117.695C9.58306 121.729 8.31794 126.463 10.0037 130.256C10.9117 132.299 12.4496 134.18 13.0434 136.259C13.5089 137.888 14.2141 140.098 16.2935 140.56C18.4131 141.031 19.4627 142.842 21.2833 143.753C22.3846 144.303 22.5214 144.709 23.8642 144.709C25.0275 144.709 26.3182 143.676 27.4775 143.676C30.2011 143.676 30.1206 141.864 32.1231 140.751C32.885 140.328 33.9583 139.837 34.0158 138.859C34.0827 137.721 33.1605 136.961 34.1879 135.934C34.8284 135.293 35.5984 133.697 36.5967 133.697C37.6807 133.697 38.7838 133.757 39.8659 133.697C42.2755 133.563 42.4602 130.219 43.6513 128.879C44.4692 127.959 44.8283 126.517 45.6395 125.705C46.2792 125.066 47.233 124.918 47.7807 124.233C48.8958 122.839 50.2435 121.109 51.222 119.397C52.3099 117.493 53.0394 115.316 55.1985 114.082C57.473 112.782 56.3545 110.931 57.4162 109.073C58.7561 106.728 61.4678 106.789 62.8457 104.446C63.8467 102.745 64.7703 100.177 66.7075 99.2079C67.8325 98.6455 68.6016 98.1212 69.384 97.1432C69.4516 97.0587 69.3377 94.7611 69.4414 94.2946C69.6861 93.1933 69.9416 92.4562 70.7605 91.6372C71.574 90.8237 72.795 91.0465 73.762 90.5093C75.1296 89.7495 78.5295 89.019 78.7518 87.2401C78.9133 85.9483 81.4738 83.91 82.5372 83.3783C84.7051 82.2943 85.7843 79.687 87.527 78.2929C88.4771 77.5328 89.3778 76.7485 90.452 76.1517C91.6559 75.4829 91.5765 74.5234 91.8476 73.3031C92.3291 71.1365 94.1733 69.7525 95.5374 68.2369C96.4751 67.1949 97.1836 66.0553 98.1948 65.0442C99.0938 64.1452 100.702 63.0944 100.776 61.775C100.882 59.8565 102.431 57.3947 103.873 56.097C105.01 55.0731 106.9 53.9628 107.658 52.6366C108.524 51.1222 109.623 49.8238 110.488 48.3542C111.148 47.2317 115.172 46.2252 115.229 45.2571C115.339 43.3843 117.204 41.3255 118.326 39.9232C118.861 39.2549 120.336 38.2001 121.079 37.7628C122.185 37.1123 121.889 36.5355 122.13 35.4496C122.531 33.648 124.632 32.3187 124.864 30.4598C124.979 29.5435 125.208 28.6056 125.208 27.5347C125.208 26.2375 126.275 25.9358 126.853 24.9538C127.516 23.8267 128.65 23.7453 128.65 22.2008C128.65 21.5756 128.972 19.4992 128.478 19.1037C127.337 18.1911 128.795 14.9532 127.101 13.5977C126.705 13.2807 125.915 12.1578 125.553 11.7051C125.178 11.2366 123.084 11.1889 122.455 11.1889C120.236 11.1889 118.359 8.78002 116.261 8.78002C114.473 8.78002 112.738 7.74765 110.927 7.74765C109.894 7.74765 108.78 7.40352 107.658 7.40352C106.64 7.40352 105.382 7.60512 104.389 7.38441C103.359 7.15556 102.813 6.37115 101.636 6.37115C100.49 6.37115 99.4282 6.65632 98.3669 6.71528C95.8789 6.8535 93.552 8.16792 91.1403 8.43589C88.8866 8.68631 86.9691 10.3761 84.774 10.8639C82.6925 11.3264 80.1886 12.3857 78.2356 13.2536C77.1259 13.7469 76.397 14.6393 75.1577 14.9934C74.6282 15.1446 73.4119 15.7361 72.9782 16.0831C71.6325 17.1596 69.6946 18.5661 68.084 19.3714C65.9989 20.4139 64.2996 22.1621 62.2339 23.3097C60.8173 24.0967 57.937 26.1444 57.4162 27.7068" stroke="#EBEBEB" stroke-width="3" stroke-linecap="round"/>
<path d="M56.9369 28.2293C55.4389 28.2293 57.8354 26.8613 58.3889 26.5538C59.2832 26.057 60.789 25.4692 61.5041 24.7542C62.8904 23.3679 65.2625 22.7927 66.5429 21.1923C66.9026 20.7426 64.5791 22.3835 65.0288 22.0238C66.2549 21.0429 68.0747 20.602 69.2237 19.5168C70.0357 18.7499 70.9481 18.0368 71.7307 17.3325C72.3229 16.7994 73.5798 16.6128 73.915 15.9424" stroke="#EBEBEB" stroke-width="3" stroke-linecap="round"/>
<path d="M58.5006 26.4421C57.8526 26.5141 56.7102 28.1333 56.217 28.6264C55.3516 29.4919 54.4742 30.11 53.5363 30.8604C51.5973 32.4115 48.7184 33.4759 47.1074 35.4896C45.6552 37.3049 43.6842 38.9712 41.8576 40.3919C40.9167 41.1238 40.1913 42.1633 39.1644 42.75C38.2998 43.2441 37.0612 44.0771 36.6078 44.984" stroke="#EBEBEB" stroke-width="3" stroke-linecap="round"/>
<path d="M25.0841 97.5754C25.7007 96.4655 29.6204 92.694 29.6204 92.694C29.6727 92.694 29.8604 92.2072 30.0642 92.4721C30.3262 92.7996 31.8371 93.1115 32.283 93.1377C33.1874 93.1909 34.5018 97.1487 34.5018 98.0191C34.5018 100.249 32.6787 101.468 31.7406 103.344C30.7603 105.305 29.6997 107.195 28.6343 109.113C27.328 111.464 26.7633 109.88 25.5279 108.768C23.9104 107.312 23.8515 105.534 23.8515 103.344C23.8515 101.008 23.9675 99.5852 25.0841 97.5754Z" stroke="#EBEBEB" stroke-linecap="round"/>
<path d="M60.6839 64.1944C61.4991 63.7416 64.5854 61.8229 64.6778 62.0742C67.276 62.0742 71.0663 62.4573 69.9783 66.2653C69.2863 68.6872 66.0012 71.2739 63.7902 72.3794C62.2686 73.1402 59.9365 72.7246 58.2432 72.7246C56.2387 72.7246 57.5775 69.2958 57.5775 68.065C57.5775 66.8077 59.6725 64.7563 60.6839 64.1944Z" stroke="#EBEBEB" stroke-linecap="round"/>
<path d="M75.5332 25.4584C76.2616 22.9951 77.2058 24.3921 78.3008 24.3921C78.8463 24.3921 79.8857 24.5432 80.1926 25.1918C80.4454 25.726 81.112 25.6504 81.3838 26.11C81.687 26.6227 81.3575 28.2205 81.4713 28.8941C81.9799 31.9035 81.3625 36.724 79.0716 35.6173C78.3437 35.2657 76.9787 34.439 76.339 33.5737C75.8225 32.875 74.2581 32.4037 74.2019 30.7896C74.123 28.5206 74.9581 27.4033 75.5332 25.4584Z" stroke="#EBEBEB" stroke-linecap="round"/>
<path d="M94.4099 47.7752C88.2424 50.859 94.6597 40.7399 97.0725 40.7736C97.0725 40.3254 98.6354 41.4272 99.0448 41.6611C99.6726 42.0199 99.009 43.5733 98.6257 43.88C97.0034 45.1778 96.4238 46.7683 94.4099 47.7752Z" stroke="#EBEBEB" stroke-linecap="round"/>
<path d="M42.8347 60.3978C40.2128 57.7758 42.8671 54.0865 46.0397 54.0865C48.7493 54.9897 46.773 56.6661 45.9411 58.0804C45.1053 59.5012 44.3271 61.8902 42.8347 60.3978Z" stroke="#EBEBEB" stroke-linecap="round"/>
<path d="M43.3771 98.0191C43.2791 98.8032 42.9564 100.425 42.4896 101.125" stroke="#EBEBEB" stroke-width="3" stroke-linecap="round"/>
<path d="M30.508 118.876C29.6073 118.763 30.0642 120.432 30.0642 121.539" stroke="#EBEBEB" stroke-width="3" stroke-linecap="round"/>
<path d="M61.1276 46.9863C60.9368 45.46 60.85 47.4846 61.1276 48.3176" stroke="#EBEBEB" stroke-width="3" stroke-linecap="round"/>
<path d="M81.5407 62.9618C81.5407 64.2164 81.3402 65.296 81.097 66.5119" stroke="#EBEBEB" stroke-width="3" stroke-linecap="round"/>
<path d="M41.1582 78.9373C41.1582 79.5535 41.0489 79.7669 40.7145 80.2685" stroke="#EBEBEB" stroke-width="3" stroke-linecap="round"/>
<path d="M97.96 21.6918C96.7723 21.6918 97.96 23.5882 97.96 24.7981" stroke="#EBEBEB" stroke-width="3" stroke-linecap="round"/>
<path d="M109.942 24.7981C108.994 24.9034 109.054 25.8096 109.054 26.5732" stroke="#EBEBEB" stroke-width="3" stroke-linecap="round"/>
<path d="M109.054 37.6673C109.579 37.6016 109.498 37.2217 109.498 36.7797" stroke="#EBEBEB" stroke-width="3" stroke-linecap="round"/>
<path d="M93.0786 3.05369C92.309 3.05369 91.8096 2.29033 91.0817 2.85646C90.27 3.48777 89.3665 3.9639 88.4191 4.38498C86.8264 5.09284 84.5136 6.50724 82.872 6.6038C81.3317 6.69441 79.7116 8.26854 78.1879 8.82262C76.4192 9.46577 74.0924 9.83336 72.5669 10.9428C71.0556 12.0419 68.4157 12.6182 66.65 13.2603C64.452 14.0596 62.169 15.791 59.7963 15.9228C56.182 16.1236 52.5167 20.5396 49.5898 22.2341C45.1324 24.8147 43.6397 29.4169 40.2707 32.7859C38.4202 34.6363 36.7298 36.7363 35.1428 38.7767C33.8593 40.4268 33.176 42.8296 31.8392 44.3237C28.9637 47.5376 26.7973 50.204 24.6404 54.0865C23.3849 56.3464 21.0006 57.8249 19.1919 59.6336C17.4984 61.3271 18.0688 63.874 16.9731 65.8463C15.9286 67.7265 14.9052 69.4614 13.99 71.3933C13.1619 73.1415 13.1101 75.1482 12.3136 76.9404C10.5042 81.0116 6.54467 83.6787 6.54467 88.4782C6.54467 93.3892 3.43833 97.5745 3.43833 102.457C3.43833 104.023 3.98281 106.779 3.33971 108.226C2.42022 110.295 2.0563 111.658 2.52614 113.773C3.30316 117.269 2.5508 121.724 2.5508 125.311C2.5508 128.765 4.87891 132.57 5.63249 135.961C6.44828 139.632 8.3526 140.942 11.6726 142.839C14.9862 144.733 17.8618 144.614 21.6326 144.614" stroke="#EBEBEB" stroke-width="3" stroke-linecap="round"/>
<path d="M91.3036 3.49743C91.4162 2.59656 99.2617 2.16614 100.623 2.16614C102.011 2.16614 103.585 2.52794 105.06 2.6099C106.025 2.66349 108.605 2.75558 109.498 3.15228C112.068 4.29475 115.059 6.72859 117.929 7.04754C120.254 7.30583 121.763 10.0738 123.698 11.0414" stroke="#EBEBEB" stroke-width="3" stroke-linecap="round"/>
<path d="M100.057 74.2456C100.042 74.2611 101.562 75.0536 101.993 75.8295C102.625 76.9658 103.063 78.3393 104.105 79.1732C104.457 79.4544 104.281 80.3427 104.281 80.7571C104.281 81.3351 104.812 81.5149 105.063 81.989C105.824 83.4267 105.931 83.9675 107.449 84.7266C109.896 85.95 109.794 88.7045 111.321 90.6124C113.091 92.8249 114.574 94.4973 115.818 97.1239C117.149 99.9341 118.448 102.703 119.944 105.395C120.742 106.832 121.411 108.309 122.154 109.795C122.76 111.007 124.549 112.35 124.696 113.667C125.003 116.433 128.658 118.234 130.171 120.178C131.88 122.376 134.385 123.273 136.115 125.497C136.974 126.601 137.007 128.819 137.445 130.131C138.028 131.879 138.642 134.429 139.831 135.841C141.989 138.404 144.006 141.526 145.638 144.465C146.299 145.654 146.291 146.721 147.3 147.73C148.321 148.751 149.103 149.636 150.39 150.35C151.827 151.149 152.606 151.866 153.636 153.01C154.501 153.971 154.999 155.233 156.021 156.256C158.264 158.498 159.929 161.081 160.617 164.175C161.283 167.175 162.85 169.623 165.525 170.96C167.74 172.068 169.899 174.206 172.388 174.206C173.687 174.206 176.411 172.823 177.316 171.919C178.284 170.95 180.466 170.331 181.012 169.103C181.341 168.361 182.15 167.992 182.576 167.323C183.111 166.482 183.638 165.277 184.101 164.351C184.784 162.986 185.359 161.517 186.017 160.127C187.025 158 188.325 155.917 189.263 153.772C190.182 151.674 190.295 149.549 191.043 147.456C191.538 146.069 191.219 144.069 191.219 142.607C191.219 140.59 191.313 138.043 190.437 136.193C189.755 134.753 189.618 132.516 189.439 130.913C189.244 129.153 188.515 127.369 188.129 125.634C187.834 124.305 188.051 122.745 188.051 121.391C188.051 116.448 186.381 111.433 185.313 106.627C184.901 104.769 184.447 102.687 184.16 100.82C183.829 98.6711 182.43 96.319 181.559 94.3277C180.648 92.2454 180.027 90.1681 179.525 87.9726C178.979 85.581 177.781 84.2061 176.436 82.2628C175.316 80.6452 174.251 79.293 172.642 78.1173C171.041 76.9471 170.387 74.5249 169.396 72.9159C167.115 69.209 163.04 67.8718 159.541 65.6222C157.824 64.5186 155.804 63.667 154.262 62.2785C152.214 60.4356 149.787 59.8291 147.378 58.7587C145.283 57.8273 142.109 57.7028 139.831 57.7028C137.871 57.7028 136.024 56.9988 134.023 56.9988C130.215 56.9988 126.23 57.1383 122.564 58.0548C115.622 59.7904 108.859 61.6114 103.773 66.6977C103.079 67.3913 102.266 67.9694 101.544 68.6922C100.772 69.4634 100.473 70.2941 99.7837 71.156C98.6171 72.6142 101.516 77.1118 102.521 78.1173" stroke="#EBEBEB" stroke-width="3" stroke-linecap="round"/>
<path d="M176.595 149.975C176.595 148.85 175.891 148.048 175.891 146.983C175.891 144.289 177.303 143.992 179.587 144.499C182.061 145.049 181.875 148.148 181.875 150.151C181.875 152.73 180.043 153.889 177.651 152.693C176.413 152.074 176.595 151.199 176.595 149.975Z" stroke="#EBEBEB" stroke-linecap="round"/>
<path d="M118.712 78.7431C117.792 78.2016 116.453 73.2081 116.6 73.1897C117.108 73.4436 118.812 72.8325 119.416 72.5639C120.511 72.0773 121.211 73.2752 122.075 73.5221C123.953 74.0585 125.543 76.8514 124.148 78.6453C123.139 79.9424 120.039 79.5239 118.712 78.7431Z" stroke="#EBEBEB" stroke-linecap="round"/>
<path d="M146.538 107.488C146.351 106.46 145.997 102.756 146.87 102.756C148.769 102.756 150.674 102.54 151.074 104.339C151.519 106.34 151.127 106.316 150.116 108.035C149.604 108.905 146.746 108.632 146.538 107.488Z" stroke="#EBEBEB" stroke-linecap="round"/>
<path d="M148.806 81.989C148.003 81.632 147.222 79.8772 147.222 79.8772C147.176 79.8772 150.142 78.3997 151.172 78.743C152.41 79.1557 153.299 79.5899 154.418 80.2292C156.329 81.3211 156.195 84.4778 154.965 85.8608C153.451 87.5641 151.311 86.6047 150.214 84.6288C149.595 83.5157 150.265 82.6377 148.806 81.989Z" stroke="#EBEBEB" stroke-linecap="round"/>
<path d="M164.117 135.665C164.117 134.54 163.413 133.739 163.413 132.673C163.413 129.98 164.825 129.682 167.109 130.19C169.582 130.74 169.396 133.839 169.396 135.841C169.396 138.421 167.565 139.579 165.173 138.383C163.935 137.764 164.117 136.89 164.117 135.665Z" stroke="#EBEBEB" stroke-linecap="round"/>
<path d="M163.765 107.331C162.761 107.457 163.928 109.066 164.117 109.443" stroke="#EBEBEB" stroke-width="3" stroke-linecap="round"/>
<path d="M132.791 93.6042C132.099 93.6906 133.019 94.6397 133.143 95.0121" stroke="#EBEBEB" stroke-width="3" stroke-linecap="round"/>
<path d="M150.742 119.65C150.742 120.556 151.09 120.699 151.446 121.41" stroke="#EBEBEB" stroke-width="3" stroke-linecap="round"/>
<path d="M151.798 139.009C152.319 139.661 152.492 140.233 153.206 140.769" stroke="#EBEBEB" stroke-width="3" stroke-linecap="round"/>
<path d="M122.874 94.6876C121.134 94.905 122.937 95.3653 123.288 95.7161" stroke="#EBEBEB" stroke-width="3" stroke-linecap="round"/>
<path d="M139.831 70.0219C139.395 70.0841 141.401 71.497 141.59 71.7818" stroke="#EBEBEB" stroke-width="3" stroke-linecap="round"/>
<path d="M175.38 119.65C175.322 120.627 175.102 120.923 175.732 121.762" stroke="#EBEBEB" stroke-width="3" stroke-linecap="round"/>
<path d="M99.7054 73.1897C99.7054 74.2776 99.6438 75.2479 99.7054 76.3575C99.7773 77.6514 100.688 78.9001 100.761 80.2292C100.834 81.5306 101.536 82.9914 102.091 84.1009C102.799 85.5165 102.919 87.204 103.655 88.6766C104.266 89.8982 105.176 91.1757 105.337 92.5483C105.398 93.0634 106.197 93.4717 106.569 93.7607C107.428 94.4289 107.867 94.8966 108.231 95.9898C109.221 98.9582 109.957 102.095 112.201 104.339C113.291 105.43 114.774 106.668 115.701 107.859C116.1 108.373 116.028 109.231 116.326 109.795C116.648 110.403 117.735 110.217 118.008 110.695C119.703 113.661 121.127 117.138 123.64 119.65C126.379 122.39 127.039 125.762 128.646 129.154C130.131 132.289 131.803 135.235 133.339 138.305C133.989 139.607 136.057 139.677 136.291 140.964C136.677 143.088 137.324 143.219 138.951 144.484C140.022 145.317 140.405 147.288 141.434 148.317C142.529 149.411 143.269 150.814 144.054 152.188C145.628 154.942 148.006 156.965 149.334 159.951C149.877 161.174 150.79 162.278 151.954 162.943C153.171 163.639 153.044 165.49 153.91 166.463C154.709 167.362 154.58 168.842 156.021 168.927C156.894 168.978 158.101 170.525 158.759 171.117C160.449 172.638 162.291 174.678 164.293 175.79C165.71 176.578 170.073 177.39 171.684 176.494C172.777 175.887 173.738 175.337 174.48 174.382C175.437 173.153 176.529 173.576 177.14 171.743" stroke="#EBEBEB" stroke-width="3" stroke-linecap="round"/>
<path d="M87.3863 96.068H87.0344" stroke="#EBEBEB" stroke-width="3" stroke-linecap="round"/>
<path d="M94.7778 98.8838C94.4535 98.8433 94.5447 98.7696 94.4258 98.5318" stroke="#EBEBEB" stroke-width="3" stroke-linecap="round"/>
<path d="M99.7054 91.1404H99.3534" stroke="#EBEBEB" stroke-width="3" stroke-linecap="round"/>
<path d="M95.8337 93.6042H95.4818" stroke="#EBEBEB" stroke-width="3" stroke-linecap="round"/>
<path d="M104.633 102.052H104.281" stroke="#EBEBEB" stroke-width="3" stroke-linecap="round"/>
<path d="M104.985 108.387H104.633" stroke="#EBEBEB" stroke-width="3" stroke-linecap="round"/>
<path d="M100.761 73.8936C99.4575 74.0566 102.627 87.1076 103.401 88.5006C103.897 89.3927 104.869 90.9163 104.985 91.8443C105.073 92.5476 106.635 93.9352 107.019 94.6601C107.575 95.7117 108.412 96.9316 109.209 97.8279C110.034 98.7567 109.945 100.332 110.695 101.269C112.194 103.144 111.933 106.061 113.96 107.683C115.692 109.069 117.935 110.831 119.064 112.806C120.342 115.043 121.54 117.127 122.584 119.474C123.481 121.494 125.624 124.617 127.335 125.986C131.83 129.582 129.991 136.745 134.903 139.635C136.613 140.641 138.552 143.452 138.775 145.344C139.117 148.252 142.902 150.322 144.328 152.736C144.915 153.73 145.661 155.154 146.694 155.728C147.341 156.087 148.134 156.401 148.297 157.136C148.531 158.187 149.562 160.194 150.194 161.007C150.993 162.034 152.15 162.702 152.15 164.175C152.15 165.258 153.462 166.336 153.909 167.343C154.631 168.966 158.033 171.743 159.717 171.743C161.193 171.743 162.686 172.387 163.413 173.659C163.851 174.426 164.822 175.791 165.701 175.986C167.123 176.302 168.23 176.67 169.748 176.67C171.055 176.67 172.112 175.759 173.268 175.614C174.925 175.407 174.524 173.245 172.916 173.15C172.057 173.1 170.242 172.439 169.396 172.016C163.908 169.272 160.219 164.938 157.253 159.599C154.56 154.751 151.817 148.88 146.87 145.97C145.741 145.306 145.224 143.251 144.328 142.255C143.486 141.32 142.518 140.64 141.59 139.713C139.214 137.336 138.884 134.304 137.445 131.265C136.32 128.89 136.588 124.941 134.375 123.17C133.24 122.263 132.768 120.353 131.54 119.65C130.2 118.885 129.15 117.475 128.215 116.307C127.804 115.792 126.864 115.984 126.455 115.27C126.218 114.854 125.832 114.198 125.556 113.843C124.542 112.539 123.617 111.151 122.936 109.619C121.832 107.135 120.217 104.619 118.888 102.228C118.194 100.978 118.299 99.2993 117.304 98.1799C116.162 96.8948 115.642 94.9147 114.41 93.6824C113.31 92.5826 111.867 92.2646 111.047 90.7884C110.209 89.281 109.521 87.78 108.779 86.2127C107.417 83.3392 104.798 81.4766 102.795 79.2515C101.93 78.2904 101.086 77.5545 100.488 76.3574C99.8644 75.1111 99.9367 73.6522 99.3534 72.4857M104.633 102.052H104.281" stroke="#EBEBEB" stroke-width="3" stroke-linecap="round"/>
</svg>
