<svg width="189" height="177" viewBox="0 0 189 177" fill="none" xmlns="http://www.w3.org/2000/svg">
<path d="M90.7119 2.7793L92.8026 2.7793C93.8773 2.71959 94.9525 2.43085 96.1129 2.43085C96.6398 2.43085 97.0419 2.58607 97.4166 2.7793C97.8894 3.02316 98.3187 3.32755 98.9005 3.45684C99.9062 3.68033 101.179 3.4762 102.211 3.4762C103.347 3.4762 104.474 3.82464 105.521 3.82464C107.354 3.82464 109.111 4.86999 110.922 4.86999C113.046 4.86999 114.947 7.30914 117.194 7.30914C117.831 7.30914 119.951 7.35751 120.33 7.83181C120.697 8.29021 121.497 9.42727 121.898 9.74829C123.614 11.1207 122.137 14.3994 123.292 15.3235C123.793 15.7239 123.466 17.8264 123.466 18.4595C123.466 20.0234 122.318 20.1059 121.647 21.2471C121.062 22.2415 119.982 22.5469 119.982 23.8605C119.982 24.9448 119.749 25.8945 119.633 26.8223C119.398 28.7046 117.27 30.0506 116.865 31.8748C116.621 32.9744 116.92 33.5584 115.8 34.2172C115.048 34.66 113.554 35.728 113.013 36.4047C111.877 37.8246 109.988 39.9093 109.877 41.8056C109.819 42.7859 105.744 43.8051 105.076 44.9417C104.2 46.4297 103.087 47.7445 102.211 49.2779C101.443 50.6208 99.5298 51.745 98.3778 52.7818C96.9177 54.0959 95.3497 56.5886 95.2418 58.5312C95.1676 59.8672 93.5387 60.9312 92.6284 61.8415C91.6045 62.8653 90.8871 64.0193 89.9376 65.0743C88.5564 66.609 86.689 68.0104 86.2015 70.2043C85.9269 71.4399 86.0073 72.4114 84.7883 73.0886C83.7006 73.6929 82.7886 74.4871 81.8265 75.2568C80.0619 76.6684 78.9691 79.3085 76.774 80.4061C75.6972 80.9445 73.1045 83.0084 72.941 84.3165C72.7159 86.1177 69.2733 86.8574 67.8885 87.6267C66.9093 88.1707 65.673 87.9451 64.8493 88.7689C64.02 89.5981 63.7613 90.3445 63.5135 91.4597C63.4086 91.932 63.5239 94.2585 63.4555 94.3441C62.6632 95.3343 61.8844 95.8652 60.7453 96.4348C58.7837 97.4155 57.8485 100.016 56.8349 101.739C55.4397 104.111 52.6939 104.049 51.3372 106.424C50.2621 108.305 51.3947 110.179 49.0916 111.496C46.9053 112.745 46.1667 114.949 45.0651 116.877C44.0743 118.611 42.7097 120.363 41.5806 121.775C41.026 122.468 40.0601 122.618 39.4124 123.265C38.591 124.087 38.2274 125.547 37.3992 126.479C36.1932 127.836 36.0061 131.222 33.5662 131.357C32.4705 131.418 31.3536 131.357 30.256 131.357C29.2451 131.357 28.4654 132.973 27.8168 133.622C26.7765 134.662 27.7104 135.432 27.6426 136.584C27.5843 137.575 26.4976 138.072 25.7261 138.5C23.6984 139.627 23.78 141.462 21.0221 141.462C19.8482 141.462 18.5413 142.508 17.3633 142.508C16.0037 142.508 15.8652 142.097 14.75 141.54C12.9065 140.618 11.8438 138.784 9.69746 138.307C7.59199 137.839 6.87789 135.601 6.40655 133.951C5.8053 131.847 4.24803 129.941 3.32858 127.873C1.62167 124.032 2.9027 119.239 2.9027 115.154L2.9027 108.185C2.9027 106.052 3.59959 103.922 3.59959 101.739C3.59959 99.2072 4.29649 96.9532 4.29649 94.4215C4.29649 90.9118 6.05926 88.3759 6.73564 84.994C7.07831 83.2807 7.70571 81.3764 8.47789 79.7866C9.3011 78.0918 9.93419 75.8484 11.0719 74.3857C12.7177 72.2696 12.8793 69.2231 14.75 67.2424C15.7709 66.1615 16.4333 64.1383 16.8407 62.7126C17.3206 61.0329 18.8244 59.0936 19.6283 57.4859C21.2754 54.1916 23.7072 51.2701 25.2035 47.9035C26.4018 45.2071 29.167 42.8573 30.9335 40.5861C31.9819 39.2382 33.6581 37.9491 35.0375 36.9273C36.7549 35.6552 38.0976 33.8463 39.5673 32.3201C41.2351 30.5881 43.0654 28.7258 45.0457 27.3643C46.405 26.4298 49.0048 25.0953 49.8659 23.6863C50.9926 21.8426 52.6041 21.2215 54.4926 20.3954C56.3109 19.5998 57.6182 18.3731 59.3036 17.4479C60.215 16.7633 61.1326 16.0977 62.1391 15.5945C63.7699 14.7791 65.7322 13.355 67.0948 12.2649C67.534 11.9135 68.7655 11.3146 69.3017 11.1614C70.5566 10.8029 71.2946 9.89928 72.4183 9.39984C73.7471 8.80926 75.3279 8.13122 76.8615 7.60782C77.2106 7.40213 77.5562 7.18775 77.8967 6.96069C79.0765 6.17417 80.2707 5.34216 81.6523 4.94743C84.7693 4.05684 87.442 2.7793 90.7119 2.7793Z" fill="#CB4B64"/>
<path d="M112.664 5.21844C112.664 4.03807 108.345 2.7793 107.263 2.7793C104.204 2.7793 101.178 2.7793 98.2036 2.7793C95.7064 2.7793 93.2092 2.7793 90.7119 2.7793C87.442 2.7793 84.7693 4.05684 81.6523 4.94743C80.2707 5.34216 79.0765 6.17417 77.8967 6.96069C76.1897 8.09869 74.359 8.91803 72.5732 9.92251C68.2155 12.3737 64.1677 15.0061 59.6999 17.2399C57.8165 18.1817 56.4508 19.5386 54.4926 20.3954C52.6041 21.2215 50.9926 21.8426 49.8659 23.6863C49.0048 25.0953 46.405 26.4298 45.0457 27.3643C43.0654 28.7258 41.2351 30.5881 39.5673 32.3201C38.0976 33.8463 36.7549 35.6552 35.0375 36.9273C33.6581 37.9491 31.9819 39.2382 30.9335 40.5861C29.167 42.8573 26.4018 45.2071 25.2035 47.9035C23.7072 51.2701 21.2754 54.1916 19.6283 57.4859C18.8244 59.0936 17.3206 61.0329 16.8407 62.7126C16.4333 64.1383 15.7709 66.1615 14.75 67.2424C12.8793 69.2231 12.7177 72.2696 11.0719 74.3857C9.93419 75.8484 9.30109 78.0918 8.47789 79.7866C7.70571 81.3764 7.07831 83.2807 6.73564 84.994C6.05926 88.3759 4.29649 90.9118 4.29649 94.4215C4.29649 96.9532 3.59959 99.2072 3.59959 101.739C3.59959 103.922 2.9027 106.052 2.9027 108.185C2.9027 110.559 2.9027 112.887 2.9027 115.154C2.9027 119.239 1.62167 124.032 3.32858 127.873C4.24803 129.941 5.8053 131.847 6.40655 133.951C6.87789 135.601 7.59199 137.839 9.69746 138.307C11.8438 138.784 12.9065 140.618 14.75 141.54C15.8652 142.097 16.0037 142.508 17.3633 142.508C18.5413 142.508 19.8482 141.462 21.0221 141.462C23.78 141.462 23.6984 139.627 25.7261 138.5C26.4976 138.072 27.5843 137.575 27.6426 136.584C27.7104 135.432 26.7765 134.662 27.8168 133.622C28.4654 132.973 29.2451 131.357 30.256 131.357C31.3536 131.357 32.4705 131.418 33.5662 131.357C36.0061 131.222 36.1932 127.836 37.3992 126.479C38.2274 125.547 38.591 124.087 39.4124 123.265C40.0601 122.618 41.026 122.468 41.5806 121.775C42.7097 120.363 44.0743 118.611 45.0651 116.877C46.1667 114.949 46.9053 112.745 49.0916 111.496C51.3947 110.179 50.2621 108.305 51.3372 106.424C52.6939 104.049 55.4397 104.111 56.8349 101.739C57.8485 100.016 58.7837 97.4155 60.7453 96.4348C61.8844 95.8652 62.6632 95.3343 63.4555 94.3441C63.5239 94.2585 63.4086 91.932 63.5135 91.4597C63.7613 90.3445 64.02 89.5981 64.8493 88.7689C65.673 87.9451 66.9093 88.1707 67.8885 87.6267C69.2733 86.8574 72.7159 86.1177 72.941 84.3165C73.1045 83.0084 75.6972 80.9445 76.774 80.4061C78.9691 79.3085 80.0619 76.6684 81.8265 75.2568C82.7886 74.4871 83.7006 73.6929 84.7883 73.0886C86.0073 72.4114 85.9269 71.4399 86.2015 70.2043C86.689 68.0104 88.5564 66.609 89.9376 65.0743C90.8871 64.0193 91.6045 62.8653 92.6284 61.8415C93.5387 60.9312 95.1676 59.8672 95.2418 58.5312C95.3497 56.5886 96.9177 54.0959 98.3778 52.7818C99.5298 51.745 101.443 50.6208 102.211 49.2779C103.087 47.7445 104.2 46.4297 105.076 44.9417C105.744 43.8051 109.819 42.7859 109.877 41.8056C109.988 39.9093 111.877 37.8246 113.013 36.4047C113.554 35.728 115.048 34.66 115.8 34.2172C116.92 33.5584 116.621 32.9744 116.865 31.8748C117.27 30.0506 119.398 28.7046 119.633 26.8223C119.749 25.8945 119.982 24.9448 119.982 23.8605C119.982 22.5469 121.062 22.2415 121.647 21.2471C122.318 20.1059 123.466 20.0234 123.466 18.4595C123.466 17.8264 123.793 15.7239 123.292 15.3235C122.137 14.3994 123.614 11.1207 121.898 9.74829C121.497 9.42727 120.697 8.29021 120.33 7.83181C119.951 7.35751 117.831 7.30914 117.194 7.30914C114.947 7.30914 113.046 4.86999 110.922 4.86999C109.111 4.86999 107.354 3.82464 105.521 3.82464C104.474 3.82464 103.347 3.4762 102.211 3.4762C101.179 3.4762 99.9062 3.68033 98.9005 3.45684C97.8577 3.22511 97.3048 2.43085 96.1129 2.43085C94.9525 2.43085 93.8773 2.71959 92.8026 2.7793C90.2834 2.91925 87.9273 4.2502 85.4852 4.52154C83.2032 4.7751 81.2616 6.48612 79.0389 6.98005C76.9313 7.44841 74.3958 8.52096 72.4183 9.39984C71.2946 9.89928 70.5566 10.8029 69.3017 11.1614C68.7655 11.3146 67.534 11.9135 67.0948 12.2649C65.7322 13.355 63.7699 14.7791 62.1391 15.5945C60.0277 16.6502 58.3071 18.4203 56.2155 19.5823C54.781 20.3792 51.8645 22.4527 51.3372 24.0347" stroke="#EBEBEB" stroke-width="3" stroke-linecap="round"/>
<path d="M18.5987 94.7817C19.223 93.6578 23.1919 89.8389 23.1919 89.8389C23.2449 89.8389 23.435 89.346 23.6413 89.6142C23.9066 89.9458 25.4366 90.2617 25.888 90.2882C26.8038 90.3421 28.1347 94.3496 28.1347 95.231C28.1347 97.4886 26.2887 98.7233 25.3388 100.623C24.3462 102.608 23.2723 104.523 22.1934 106.465C20.8708 108.845 20.2989 107.241 19.048 106.115C17.4101 104.641 17.3505 102.84 17.3505 100.623C17.3505 98.257 17.468 96.8168 18.5987 94.7817Z" fill="#CB4B64" stroke="#EBEBEB" stroke-linecap="round"/>
<path d="M54.6459 60.9811C55.4713 60.5225 58.5965 58.5797 58.69 58.8342C61.3208 58.8342 65.1588 59.2221 64.0571 63.078C63.3565 65.5304 60.0301 68.1496 57.7913 69.269C56.2505 70.0393 53.8891 69.6184 52.1745 69.6184C50.1449 69.6184 51.5005 66.1465 51.5005 64.9003C51.5005 63.6272 53.6218 61.55 54.6459 60.9811Z" fill="#CB4B64" stroke="#EBEBEB" stroke-linecap="round"/>
<path d="M69.6819 21.758C70.4195 19.2638 71.3756 20.6784 72.4844 20.6784C73.0366 20.6784 74.0892 20.8313 74.3999 21.4881C74.6559 22.029 75.3309 21.9525 75.606 22.4178C75.9131 22.9369 75.5795 24.5548 75.6947 25.2369C76.2097 28.2841 75.5845 33.1653 73.2648 32.0446C72.5278 31.6886 71.1456 30.8515 70.4978 29.9753C69.9748 29.2679 68.3908 28.7906 68.3339 27.1562C68.254 24.8587 69.0996 23.7274 69.6819 21.758Z" fill="#CB4B64" stroke="#EBEBEB" stroke-linecap="round"/>
<path d="M88.796 44.3554C82.5509 47.4779 89.0489 37.2317 91.4921 37.2658C91.4921 36.8119 93.0746 37.9276 93.4891 38.1645C94.1248 38.5277 93.4529 40.1007 93.0647 40.4112C91.4221 41.7253 90.8352 43.3358 88.796 44.3554Z" fill="#CB4B64" stroke="#EBEBEB" stroke-linecap="round"/>
<path d="M36.5724 57.1367C33.9174 54.4818 36.6051 50.7461 39.8176 50.7461C42.5613 51.6607 40.5601 53.3581 39.7178 54.7902C38.8715 56.2289 38.0835 58.6479 36.5724 57.1367Z" fill="#CB4B64" stroke="#EBEBEB" stroke-linecap="round"/>
<path d="M37.1216 95.231C37.0223 96.0249 36.6955 97.6674 36.2229 98.3764" stroke="#EBEBEB" stroke-width="3" stroke-linecap="round"/>
<path d="M24.0906 116.35C23.1787 116.236 23.6413 117.926 23.6413 119.046" stroke="#EBEBEB" stroke-width="3" stroke-linecap="round"/>
<path d="M55.0952 43.5566C54.902 42.0112 54.8141 44.0611 55.0952 44.9046" stroke="#EBEBEB" stroke-width="3" stroke-linecap="round"/>
<path d="M75.765 59.7329C75.765 61.0033 75.5619 62.0964 75.3157 63.3277" stroke="#EBEBEB" stroke-width="3" stroke-linecap="round"/>
<path d="M34.8748 75.9092C34.8748 76.5332 34.7641 76.7493 34.4255 77.2573" stroke="#EBEBEB" stroke-width="3" stroke-linecap="round"/>
<path d="M92.3907 17.944C91.1881 17.944 92.3907 19.8643 92.3907 21.0894" stroke="#EBEBEB" stroke-width="3" stroke-linecap="round"/>
<path d="M104.523 21.0895C103.564 21.1961 103.624 22.1137 103.624 22.8868" stroke="#EBEBEB" stroke-width="3" stroke-linecap="round"/>
<path d="M103.624 34.1204C104.156 34.0539 104.074 33.6692 104.074 33.2217" stroke="#EBEBEB" stroke-width="3" stroke-linecap="round"/>
<path d="M96.4746 72.7624C96.0767 72.0463 94.7625 71.3162 94.5449 71.1807C93.9914 69.9107 93.7205 68.6761 94.2372 68.0302C94.9354 67.1575 95.2383 66.3164 96.0192 65.5354C96.7511 64.8035 97.5741 64.2181 98.2764 63.5159C103.427 58.3656 110.275 56.5217 117.304 54.7643C121.016 53.8362 125.051 53.6951 128.907 53.6951C130.933 53.6951 132.803 54.4079 134.788 54.4079C137.094 54.4079 140.308 54.5339 142.43 55.4771C144.869 56.5609 147.327 57.175 149.4 59.0411C150.962 60.447 153.008 61.3094 154.746 62.4269C158.289 64.7047 162.415 66.0587 164.725 69.8122C165.728 71.4415 166.39 73.8942 168.012 75.079C169.641 76.2695 170.719 77.6388 171.853 79.2766C173.215 81.2444 174.428 82.6366 174.981 85.0582C175.49 87.2813 176.118 89.3847 177.041 91.4932C177.923 93.5095 179.339 95.8913 179.674 98.0668C179.965 99.9573 180.424 102.066 180.842 103.947C181.924 108.814 183.614 113.892 183.614 118.896C183.614 120.268 183.395 121.848 183.693 123.193C184.084 124.95 184.822 126.756 185.02 128.539C185.2 130.162 185.339 132.427 186.03 133.885C186.917 135.758 186.822 138.337 186.822 140.379C186.822 141.86 187.145 143.885 186.644 145.29C185.887 147.409 185.772 149.56 184.842 151.685C183.892 153.857 182.575 155.966 181.555 158.12C180.888 159.527 180.306 161.014 179.615 162.397C179.146 163.334 178.612 164.555 178.07 165.407C177.639 166.084 176.82 166.458 176.486 167.208C175.934 168.452 173.725 169.079 172.744 170.059C171.828 170.975 169.069 172.376 167.754 172.376C165.234 172.376 163.048 170.211 160.805 169.089C158.096 167.735 156.51 165.256 155.835 162.219C155.139 159.086 153.453 156.471 151.182 154.2C150.146 153.164 149.642 151.886 148.766 150.913C147.724 149.754 146.935 149.029 145.48 148.22C144.177 147.496 143.385 146.601 142.351 145.567C141.33 144.545 141.337 143.464 140.668 142.26C139.015 139.285 136.973 136.123 134.788 133.529C133.584 132.099 132.962 129.517 132.372 127.747C131.929 126.418 131.895 124.172 131.026 123.054C129.274 120.802 126.737 119.894 125.006 117.669C123.475 115.7 119.774 113.877 119.462 111.075C119.314 109.742 117.502 108.382 116.888 107.155C116.136 105.65 115.459 104.155 114.651 102.7C113.136 99.9738 111.821 97.1701 110.473 94.3246C109.213 91.6649 107.711 89.9715 105.919 87.7312C104.374 85.7994 104.476 83.0102 101.999 81.7714C100.461 81.0027 100.354 80.4552 99.5832 78.9994C99.329 78.5194 98.7912 78.3373 98.7912 77.752C98.7912 77.3324 98.9689 76.433 98.613 76.1482C97.5575 75.3038 97.1138 73.913 96.4746 72.7624Z" fill="#CB4B64"/>
<path d="M94.5144 71.1586C94.4987 71.1744 96.0381 71.9768 96.4746 72.7624C97.1138 73.913 97.5575 75.3038 98.613 76.1482C98.9689 76.433 98.7912 77.3324 98.7912 77.752C98.7912 78.3373 99.329 78.5194 99.5832 78.9994C100.354 80.4552 100.461 81.0027 101.999 81.7714C104.476 83.0102 104.374 85.7994 105.919 87.7312C107.711 89.9715 109.213 91.6649 110.473 94.3246C111.821 97.1701 113.136 99.9738 114.651 102.7C115.459 104.155 116.136 105.65 116.888 107.155C117.502 108.382 119.314 109.742 119.462 111.075C119.774 113.877 123.475 115.7 125.006 117.669C126.737 119.894 129.274 120.802 131.026 123.054C131.895 124.172 131.929 126.418 132.372 127.747C132.962 129.517 133.584 132.099 134.788 133.529C136.973 136.123 139.015 139.285 140.668 142.26C141.337 143.464 141.33 144.545 142.351 145.567C143.385 146.601 144.177 147.496 145.48 148.22C146.935 149.029 147.724 149.754 148.766 150.913C149.642 151.886 150.146 153.164 151.182 154.2C153.453 156.471 155.139 159.086 155.835 162.219C156.51 165.256 158.096 167.735 160.805 169.089C163.048 170.211 165.234 172.376 167.754 172.376C169.069 172.376 171.828 170.975 172.744 170.059C173.725 169.079 175.934 168.452 176.486 167.208C176.82 166.458 177.639 166.084 178.07 165.406C178.612 164.555 179.146 163.334 179.615 162.397C180.306 161.014 180.888 159.527 181.555 158.12C182.575 155.966 183.892 153.857 184.842 151.685C185.772 149.56 185.887 147.409 186.644 145.29C187.145 143.885 186.822 141.86 186.822 140.379C186.822 138.337 186.917 135.758 186.03 133.885C185.339 132.427 185.2 130.162 185.02 128.539C184.822 126.756 184.084 124.95 183.693 123.193C183.395 121.848 183.614 120.268 183.614 118.896C183.614 113.892 181.924 108.814 180.842 103.947C180.424 102.066 179.965 99.9573 179.674 98.0668C179.339 95.8913 177.923 93.5095 177.041 91.4932C176.118 89.3847 175.49 87.2813 174.981 85.0582C174.428 82.6366 173.215 81.2444 171.853 79.2766C170.719 77.6388 169.641 76.2695 168.012 75.079C166.39 73.8942 165.728 71.4415 164.725 69.8122C162.415 66.0587 158.289 64.7047 154.746 62.4269C153.008 61.3094 150.962 60.447 149.4 59.0411C147.327 57.175 144.869 56.5609 142.43 55.4771C140.308 54.5339 137.094 54.4079 134.788 54.4079C132.803 54.4079 130.933 53.6951 128.907 53.6951C125.051 53.6951 121.016 53.8362 117.304 54.7643C110.275 56.5217 103.427 58.3656 98.2764 63.5159C97.5741 64.2181 96.7511 64.8035 96.0192 65.5354C95.2383 66.3164 94.9354 67.1575 94.2372 68.0302C93.056 69.5067 95.991 74.0608 97.0092 75.079" stroke="#EBEBEB" stroke-width="3" stroke-linecap="round"/>
<path d="M172.014 147.84C172.014 146.701 171.302 145.889 171.302 144.81C171.302 142.083 172.731 141.782 175.044 142.296C177.549 142.852 177.36 145.99 177.36 148.018C177.36 150.63 175.506 151.803 173.084 150.592C171.83 149.965 172.014 149.08 172.014 147.84Z" fill="#CB4B64" stroke="#EBEBEB" stroke-linecap="round"/>
<path d="M113.404 75.7126C112.471 75.1643 111.116 70.1081 111.265 70.0894C111.779 70.3465 113.505 69.7277 114.116 69.4558C115.225 68.963 115.934 70.176 116.809 70.426C118.71 70.9691 120.321 73.7972 118.908 75.6136C117.886 76.927 114.748 76.5033 113.404 75.7126Z" fill="#CB4B64" stroke="#EBEBEB" stroke-linecap="round"/>
<path d="M141.579 104.819C141.39 103.778 141.032 100.027 141.916 100.027C143.838 100.027 145.768 99.8089 146.173 101.631C146.623 103.656 146.226 103.632 145.202 105.373C144.684 106.254 141.79 105.977 141.579 104.819Z" fill="#CB4B64" stroke="#EBEBEB" stroke-linecap="round"/>
<path d="M143.876 78.9994C143.062 78.6379 142.272 76.861 142.272 76.861C142.225 76.861 145.228 75.3649 146.272 75.7126C147.525 76.1305 148.426 76.5701 149.558 77.2174C151.493 78.3231 151.357 81.5195 150.113 82.9198C148.58 84.6446 146.413 83.6731 145.301 81.6724C144.675 80.5453 145.354 79.6563 143.876 78.9994Z" fill="#CB4B64" stroke="#EBEBEB" stroke-linecap="round"/>
<path d="M159.379 133.35C159.379 132.211 158.666 131.4 158.666 130.321C158.666 127.594 160.096 127.292 162.409 127.806C164.914 128.363 164.725 131.501 164.725 133.529C164.725 136.141 162.871 137.314 160.448 136.103C159.195 135.476 159.379 134.591 159.379 133.35Z" fill="#CB4B64" stroke="#EBEBEB" stroke-linecap="round"/>
<path d="M159.023 104.66C158.006 104.787 159.188 106.417 159.379 106.799" stroke="#EBEBEB" stroke-width="3" stroke-linecap="round"/>
<path d="M127.66 90.7606C126.959 90.8482 127.89 91.8092 128.016 92.1862" stroke="#EBEBEB" stroke-width="3" stroke-linecap="round"/>
<path d="M145.836 117.134C145.836 118.051 146.189 118.196 146.549 118.916" stroke="#EBEBEB" stroke-width="3" stroke-linecap="round"/>
<path d="M146.905 136.736C147.433 137.396 147.608 137.976 148.331 138.518" stroke="#EBEBEB" stroke-width="3" stroke-linecap="round"/>
<path d="M117.617 91.8576C115.856 92.0778 117.682 92.5439 118.037 92.899" stroke="#EBEBEB" stroke-width="3" stroke-linecap="round"/>
<path d="M134.788 66.8818C134.347 66.9448 136.377 68.3755 136.57 68.6638" stroke="#EBEBEB" stroke-width="3" stroke-linecap="round"/>
<path d="M170.784 117.134C170.726 118.123 170.503 118.423 171.14 119.273" stroke="#EBEBEB" stroke-width="3" stroke-linecap="round"/>
<path d="M94.158 70.0894C94.158 71.191 94.0956 72.1735 94.158 73.297C94.2308 74.6072 95.1524 75.8716 95.2272 77.2174C95.3004 78.5352 96.0119 80.0143 96.5736 81.1378C97.2903 82.5712 97.4121 84.2799 98.1576 85.771C98.7761 87.008 99.6969 88.3015 99.8604 89.6914C99.9218 90.2129 100.732 90.6264 101.108 90.919C101.978 91.5956 102.422 92.0693 102.791 93.1762C103.793 96.1819 104.538 99.3586 106.81 101.631C107.915 102.735 109.416 103.988 110.354 105.195C110.759 105.715 110.686 106.584 110.988 107.155C111.314 107.771 112.414 107.582 112.691 108.066C114.407 111.07 115.849 114.59 118.393 117.134C121.167 119.908 121.835 123.323 123.462 126.757C124.966 129.931 126.659 132.914 128.214 136.023C128.873 137.342 130.967 137.412 131.204 138.716C131.595 140.866 132.249 140.999 133.897 142.28C134.981 143.124 135.37 145.119 136.411 146.161C137.52 147.269 138.269 148.69 139.064 150.081C140.658 152.87 143.066 154.918 144.41 157.942C144.96 159.179 145.885 160.298 147.064 160.971C148.296 161.676 148.168 163.55 149.044 164.535C149.853 165.446 149.722 166.944 151.182 167.03C152.065 167.082 153.288 168.648 153.954 169.248C155.666 170.788 157.53 172.854 159.557 173.98C160.992 174.777 165.41 175.599 167.042 174.693C168.148 174.078 169.121 173.521 169.873 172.554C170.841 171.309 171.947 171.737 172.566 169.881" stroke="#EBEBEB" stroke-width="3" stroke-linecap="round"/>
<path d="M81.684 93.2554H81.3276" stroke="#EBEBEB" stroke-width="3" stroke-linecap="round"/>
<path d="M89.1684 96.1066C88.84 96.0655 88.9323 95.9909 88.812 95.7502" stroke="#EBEBEB" stroke-width="3" stroke-linecap="round"/>
<path d="M94.158 88.2658H93.8016" stroke="#EBEBEB" stroke-width="3" stroke-linecap="round"/>
<path d="M90.2376 90.7606H89.8812" stroke="#EBEBEB" stroke-width="3" stroke-linecap="round"/>
<path d="M99.1476 99.3142H98.7912" stroke="#EBEBEB" stroke-width="3" stroke-linecap="round"/>
<path d="M99.504 105.729H99.1476" stroke="#EBEBEB" stroke-width="3" stroke-linecap="round"/>
<path d="M97.9002 85.5928C97.3354 84.5761 95.5098 77.425 95.0292 73.4503C95.6293 74.5734 96.4481 75.296 97.2864 76.2274C99.3142 78.4806 101.967 80.3665 103.345 83.2762C104.097 84.8632 104.794 86.383 105.642 87.9094C106.472 89.4041 107.934 89.7262 109.048 90.8398C110.295 92.0876 110.821 94.0926 111.978 95.3938C112.986 96.5274 112.879 98.2276 113.582 99.4924C114.927 101.914 116.562 104.461 117.68 106.977C118.37 108.528 119.307 109.933 120.334 111.254C120.613 111.613 121.003 112.277 121.244 112.699C121.658 113.422 122.609 113.227 123.026 113.748C123.973 114.932 125.036 116.359 126.392 117.134C127.637 117.845 128.115 119.779 129.263 120.698C131.505 122.491 131.232 126.49 132.372 128.895C133.829 131.972 134.163 135.042 136.57 137.449C137.509 138.388 138.489 139.076 139.342 140.023C140.249 141.031 140.772 143.112 141.916 143.785C146.924 146.731 149.702 152.676 152.429 157.586C155.432 162.991 159.167 167.38 164.725 170.159C165.582 170.587 167.419 171.256 168.289 171.307C169.917 171.403 170.323 173.592 168.646 173.802C167.475 173.948 166.404 174.871 165.082 174.871C163.544 174.871 162.424 174.498 160.983 174.178C160.093 173.98 159.11 172.598 158.666 171.822C157.93 170.534 156.418 169.881 154.924 169.881C153.219 169.881 149.774 167.07 149.044 165.426C148.591 164.407 147.262 163.315 147.262 162.219C147.262 160.727 146.09 160.05 145.282 159.011C144.641 158.188 143.597 156.155 143.361 155.091C143.196 154.347 142.392 154.029 141.737 153.665C140.692 153.084 139.936 151.642 139.342 150.636C137.897 148.191 134.065 146.095 133.718 143.151C133.493 141.235 131.53 138.388 129.798 137.37C124.824 134.444 126.687 127.191 122.135 123.549C120.403 122.163 118.233 119.001 117.324 116.956C116.293 114.637 115.113 112.572 113.854 110.369L113.76 110.204C112.617 108.204 110.346 106.42 108.592 105.017C106.539 103.374 106.804 100.42 105.286 98.5222C104.526 97.5733 104.617 95.9779 103.781 95.0374C102.974 94.1298 102.127 92.8946 101.563 91.8298C101.175 91.0958 99.593 89.6907 99.504 88.9786C99.3865 88.039 98.4021 86.4961 97.9002 85.5928Z" fill="#CB4B64"/>
<path d="M95.2272 70.8022C93.907 70.9673 97.1166 84.1824 97.9002 85.5928C98.4021 86.4961 99.3865 88.039 99.504 88.9786C99.593 89.6907 101.175 91.0958 101.563 91.8298C102.127 92.8946 102.974 94.1298 103.781 95.0374C104.617 95.9779 104.526 97.5733 105.286 98.5222C106.804 100.42 106.539 103.374 108.592 105.017C110.346 106.42 112.617 108.204 113.76 110.204C115.054 112.469 116.268 114.579 117.324 116.956C118.233 119.001 120.403 122.163 122.135 123.549C126.687 127.191 124.824 134.444 129.798 137.37C131.53 138.388 133.493 141.235 133.718 143.151C134.065 146.095 137.897 148.191 139.342 150.636C139.936 151.642 140.692 153.084 141.737 153.665C142.392 154.029 143.196 154.347 143.361 155.091C143.597 156.155 144.641 158.188 145.282 159.011C146.09 160.05 147.262 160.727 147.262 162.219C147.262 163.315 148.591 164.407 149.044 165.426C149.774 167.07 153.219 169.881 154.924 169.881C156.418 169.881 157.93 170.534 158.666 171.822C159.11 172.598 160.093 173.98 160.983 174.178C162.424 174.498 163.544 174.871 165.082 174.871C166.404 174.871 167.475 173.948 168.646 173.802C170.323 173.592 169.917 171.403 168.289 171.307C167.419 171.256 165.582 170.587 164.725 170.159C159.167 167.38 155.432 162.991 152.429 157.586C149.702 152.676 146.924 146.731 141.916 143.785C140.772 143.112 140.249 141.031 139.342 140.023C138.489 139.076 137.509 138.388 136.57 137.449C134.163 135.042 133.829 131.972 132.372 128.895C131.232 126.49 131.505 122.491 129.263 120.698C128.115 119.779 127.637 117.845 126.392 117.134C125.036 116.359 123.973 114.932 123.026 113.748C122.609 113.227 121.658 113.422 121.244 112.699C121.003 112.277 120.613 111.613 120.334 111.254C119.307 109.933 118.37 108.528 117.68 106.977C116.562 104.461 114.927 101.914 113.582 99.4924C112.879 98.2276 112.986 96.5274 111.978 95.3938C110.821 94.0926 110.295 92.0876 109.048 90.8398C107.934 89.7262 106.472 89.4041 105.642 87.9094C104.794 86.383 104.097 84.8632 103.345 83.2762C101.967 80.3665 99.3142 78.4806 97.2864 76.2274C96.4106 75.2544 95.5561 74.5091 94.95 73.297C94.319 72.035 94.3922 70.5578 93.8016 69.3766M99.1476 99.3142H98.7912" stroke="#EBEBEB" stroke-width="3" stroke-linecap="round"/>
</svg>
