<svg width="165" height="167" viewBox="0 0 165 167" fill="none" xmlns="http://www.w3.org/2000/svg">
<path d="M114.395 33.8955C115.856 34.8825 117.402 35.7349 118.859 36.7987C119.768 37.462 120.932 37.6214 121.848 38.2903C122.848 39.0198 124.191 39.4356 125.291 40.0033C127.076 40.9252 129.131 42.4694 130.24 44.1806C130.864 45.1446 131.752 45.9194 132.399 46.9177C133.14 48.0611 133.438 49.0268 133.919 50.2383C134.924 52.7713 135.112 55.303 136.256 57.7787C137.708 60.9186 139.589 63.7419 141.048 66.8981C141.573 68.0317 141.484 70.1913 141.094 71.3472C140.541 72.9885 141.316 75.5559 142.028 77.0942C143.631 80.5628 144.923 85.0347 144.271 88.7812C143.985 90.422 143.314 92.3112 142.562 93.7862C141.663 95.549 142.009 96.9654 141.746 98.8574C141.444 101.031 141.854 103.057 141.811 105.213C141.765 107.562 141.245 109.507 140.672 111.759C140.218 113.543 138.023 115.529 136.901 116.967C135.5 118.763 134.386 120.452 132.551 121.853C130.826 123.169 128.519 123.812 126.906 125.182C125.284 126.559 122.86 126.896 121.228 128.302C118.386 130.752 116.433 134.203 113.998 137.042C111.344 140.137 107.616 141.504 103.895 142.848C101.842 143.588 98.8849 144.333 96.6809 144.475C93.7441 144.665 91.1217 144.113 88.2344 143.783C85.5158 143.473 82.9281 142.068 80.2534 141.439C78.9092 141.123 77.6208 140.569 76.3265 140.094C74.9814 139.599 73.365 139.521 72.0971 138.888C70.6519 138.167 69.2351 137.373 67.7405 136.752C66.3914 136.191 65.2216 135.893 64.1411 134.872C61.9329 132.785 59.4927 130.493 56.9943 128.774C51.5859 125.052 45.9427 121.683 40.3487 118.223C34.3425 114.507 28.1197 110.043 25.1625 103.405C23.7895 100.322 23.0906 96.3229 23.497 92.9672C23.9317 89.3785 22.5649 85.7641 22.8393 82.2233C23.0817 79.0953 23.6118 76.5682 25.4364 74.0296C27.0963 71.7202 29.8575 70.23 31.4336 67.8716C33.0232 65.4928 32.9862 62.7946 32.8589 60.0441C32.7818 58.3796 32.9288 56.7164 32.9139 55.0534C32.8956 53.0083 33.7729 51.5841 34.4767 49.7327C36.0028 45.7178 38.8772 43.1902 41.4235 39.8627C43.3114 37.3956 45.0162 34.8256 47.1253 32.5482C48.2372 31.3475 48.9375 30.0163 50.33 29.0865C52.6778 27.5189 54.8269 25.8894 57.3882 24.705C60.1056 23.4484 62.7615 22.2705 65.7611 21.8549C68.3591 21.4948 70.8578 20.848 73.4856 20.7095L73.7213 20.6971C76.4347 20.554 79.0658 20.4152 81.7795 20.4504C85.7363 20.5017 89.963 21.0282 93.6921 22.2857C95.9825 23.058 98.342 23.6717 100.737 23.8492C102.47 23.9776 103.941 24.9788 105.618 25.3921C106.502 25.6098 107.333 25.8679 108.16 26.2282C108.967 26.5799 109.359 27.2253 109.881 27.7784C110.031 27.9366 110.191 28.0873 110.375 28.2214C111.024 28.6954 111.363 30.0473 111.697 30.7709C112.05 31.534 112.987 32.64 113.614 33.1894C113.886 33.4272 114.141 33.6629 114.395 33.8955Z" fill="#CB4B64"/>
<path d="M109.983 27.6843C109.439 28.0234 110.037 29.6662 110.258 30.1435C110.706 31.1126 111.672 31.7345 112.464 32.4281C114.428 34.1488 116.737 35.2496 118.859 36.7987C119.768 37.462 120.932 37.6214 121.848 38.2903C122.848 39.0198 124.191 39.4356 125.291 40.0033C127.076 40.9252 129.131 42.4694 130.24 44.1806C130.864 45.1446 131.752 45.9194 132.399 46.9177C133.14 48.0611 133.438 49.0268 133.919 50.2383C134.924 52.7713 135.112 55.303 136.256 57.7787C137.708 60.9186 139.589 63.7419 141.048 66.8981C141.573 68.0317 141.484 70.1913 141.094 71.3472C140.541 72.9885 141.316 75.5559 142.028 77.0942C143.631 80.5628 144.923 85.0347 144.271 88.7812C143.985 90.422 143.314 92.3112 142.562 93.7862C141.663 95.549 142.009 96.9654 141.746 98.8574C141.444 101.031 141.854 103.057 141.811 105.213C141.765 107.562 141.245 109.507 140.672 111.759C140.218 113.543 138.023 115.529 136.901 116.967C135.5 118.763 134.386 120.452 132.551 121.853C130.826 123.169 128.519 123.812 126.906 125.182C125.284 126.559 122.86 126.895 121.228 128.302C118.386 130.752 116.433 134.203 113.998 137.042C111.344 140.137 107.616 141.504 103.895 142.848C101.842 143.588 98.8849 144.333 96.6808 144.475C93.7441 144.665 91.1217 144.113 88.2344 143.783C85.5158 143.473 82.9281 142.068 80.2534 141.439C78.9091 141.123 77.6208 140.569 76.3265 140.094C74.9814 139.599 73.365 139.521 72.0971 138.888C70.6519 138.167 69.2351 137.373 67.7405 136.752C66.3914 136.191 65.2216 135.893 64.1411 134.872C61.9329 132.785 59.4927 130.493 56.9943 128.774C51.5859 125.052 45.9427 121.683 40.3487 118.223C34.3425 114.507 28.1197 110.043 25.1625 103.405C23.7895 100.322 23.0906 96.3229 23.497 92.9672C23.9317 89.3785 22.5649 85.7641 22.8393 82.2233C23.0817 79.0953 23.6118 76.5682 25.4364 74.0296C27.0963 71.7202 29.8575 70.23 31.4336 67.8716C33.0232 65.4928 32.9862 62.7946 32.8589 60.0441C32.7818 58.3796 32.9288 56.7164 32.9139 55.0534C32.8956 53.0083 33.7729 51.5841 34.4767 49.7327C36.0028 45.7178 38.8772 43.1902 41.4235 39.8627C43.3114 37.3956 45.0162 34.8256 47.1253 32.5482C48.2372 31.3475 48.9375 30.0163 50.33 29.0865C52.6778 27.5189 54.8269 25.8894 57.3882 24.705C60.1056 23.4484 62.7615 22.2705 65.7611 21.8549C68.3591 21.4948 70.8578 20.848 73.4856 20.7095C76.2825 20.5622 78.9873 20.4142 81.7795 20.4504C85.7363 20.5017 89.963 21.0282 93.6921 22.2857C95.9825 23.058 98.342 23.6717 100.737 23.8492C102.47 23.9776 103.941 24.9788 105.618 25.3921C106.502 25.6098 107.333 25.8679 108.16 26.2282C109.198 26.6806 109.549 27.6185 110.375 28.2214C111.024 28.6954 111.363 30.0473 111.697 30.7709C112.05 31.534 112.987 32.64 113.614 33.1894C114.462 33.9321 115.157 34.6538 116.103 35.3271C116.713 35.7609 117.538 35.9439 117.878 36.678" stroke="#EBEBEB" stroke-width="2" stroke-linecap="round"/>
<path d="M31.8406 68.1304C31.7367 67.8046 33.546 66.6393 33.8797 66.3254" stroke="#EBEBEB" stroke-width="2" stroke-linecap="round"/>
<path d="M35.5588 65.2077C35.8154 64.9926 36.0775 64.7982 36.348 64.6361C36.4253 64.5474 36.498 64.4571 36.5653 64.3649C37.0151 63.7488 38.0972 63.1674 38.3543 62.468C38.387 62.3789 38.0534 62.5623 37.629 62.8242C37.4523 63.1287 36.8484 63.4893 36.2108 63.8104L36.2653 63.7852C36.243 63.7955 36.2209 63.8059 36.199 63.8164C36.1419 63.8451 36.0846 63.8734 36.0273 63.9014C35.2076 64.322 34.5466 64.8674 33.6785 65.2688C32.1812 65.9612 33.3419 64.994 33.4275 64.1196C33.3818 64.0558 33.3491 63.9719 33.3323 63.8643C33.2723 63.48 34.035 62.9327 34.035 62.9327C34.035 62.9327 33.4665 63.6682 33.4286 64.1072C33.4283 64.1113 33.4279 64.1154 33.4275 64.1196C33.8256 64.6746 35.2131 63.697 35.7175 63.4638C36.1085 63.283 37.8858 62.3121 37.644 62.7964C37.6394 62.8056 37.6344 62.8149 37.629 62.8242C38.0534 62.5623 38.387 62.3789 38.3543 62.468C38.0972 63.1674 37.0151 63.7488 36.5653 64.3649C36.498 64.4571 36.4253 64.5474 36.348 64.6361C36.0206 65.0116 35.6097 65.3587 35.1714 65.6978C34.9528 65.9512 34.7155 66.2087 34.4626 66.3431C34.3834 66.3852 34.3083 66.4305 34.2365 66.4783C33.7627 66.9661 33.2916 67.456 32.8038 67.8654C32.7417 67.9202 32.6775 67.9728 32.6106 68.0224C32.5857 68.0419 32.5608 68.0612 32.5359 68.0803C32.4828 68.1208 32.4225 68.1678 32.357 68.2202C32.3071 68.3006 32.2611 68.3825 32.2194 68.4661C32.116 68.6732 31.8837 68.959 31.6076 69.2581C32.4147 68.6764 31.6251 69.4321 30.9392 70.0479C30.351 70.5761 29.7648 71.0907 29.2125 71.6441C28.9252 71.9954 28.6564 72.3636 28.3801 72.7421L28.3735 72.7511L28.3687 72.7577C27.9065 73.3908 27.0541 74.5586 26.3803 74.966C25.475 75.5134 25.0994 76.7923 24.4087 77.5382C22.8634 79.2067 25.0316 76.2217 27.5003 73.3488C27.3304 73.2835 27.5745 72.6357 28.1191 72.1663C28.884 71.5069 29.4573 70.6074 30.2601 69.9948C30.9471 69.4706 31.5112 68.5867 32.053 67.9683C32.7249 67.2013 33.8363 66.7284 34.4168 65.9332C34.624 65.6493 35.4408 65.1882 35.5588 65.2077Z" fill="#CB4B64"/>
<path d="M36.7384 64.4286C35.1986 65.1406 33.9505 67.0008 32.5359 68.0803C32.0712 68.4349 31.0508 69.2923 30.9128 69.8526C30.8626 70.0563 31.97 68.4224 32.4236 68.1482C33.1971 67.6805 33.5756 66.8147 34.4626 66.3431C34.8593 66.1322 35.2175 65.6187 35.5255 65.2928C35.8187 64.9826 34.6684 65.5885 34.4168 65.9332C33.8363 66.7284 32.7249 67.2013 32.053 67.9683C31.5112 68.5867 30.9471 69.4706 30.2601 69.9948C29.4573 70.6074 28.884 71.5069 28.1191 72.1663C27.2617 72.9054 27.149 74.0868 28.2247 72.7401C29.0328 71.7285 29.9834 70.9061 30.9392 70.0479C31.7145 69.3518 32.6222 68.477 31.2071 69.5569C28.4288 71.6769 22.0341 80.1023 24.4087 77.5382C25.0994 76.7923 25.475 75.5134 26.3803 74.966C27.0565 74.5572 27.9125 73.3827 28.3735 72.7511C28.9475 71.9647 29.4883 71.2224 30.2291 70.5839C30.7042 70.1743 31.9384 69.0291 32.2194 68.4661C33.0324 66.8371 35.4897 65.8384 36.5653 64.3649C37.0151 63.7488 38.0972 63.1674 38.3543 62.468C38.4347 62.2492 36.3041 63.6745 36.0488 63.8694C35.7408 64.1044 33.4489 65.0876 34.6343 64.5394C35.3167 64.2239 37.3458 63.394 37.644 62.7964C37.8858 62.3121 36.1085 63.283 35.7175 63.4638C35.1552 63.7238 33.4953 64.9089 33.3323 63.8643C33.2723 63.48 34.035 62.9327 34.035 62.9327C34.035 62.9327 33.4665 63.6682 33.4286 64.1072C33.353 64.9848 32.1741 65.9645 33.6785 65.2688C34.6289 64.8293 35.3312 64.2172 36.2653 63.7852C37.0851 63.4061 34.6256 64.5435 33.8057 64.9226" stroke="#EBEBEB" stroke-width="2" stroke-linecap="round"/>
<path d="M123.088 120.327C122.957 120.34 122.828 120.338 122.704 120.308C122.205 120.184 120.592 120.336 122.211 120.312C123.284 120.296 123.177 120.433 122.314 120.568C121.732 120.659 120.899 120.095 120.344 120.313C120.028 120.438 118.421 120.774 119.524 120.405C120.335 120.134 121.264 120.243 122.096 120.062C122.741 119.922 122.969 120.003 123.088 120.327C123.139 120.465 123.17 120.647 123.206 120.874C123.275 121.319 122.977 121.795 122.788 122.036C122.692 122.158 122.624 122.22 122.647 122.186C122.691 122.121 122.716 122.031 122.727 121.925C122.451 121.424 122.186 120.886 122.251 120.709C122.4 120.303 122.786 121.342 122.727 121.925C122.747 121.962 122.768 121.999 122.788 122.036C122.977 121.795 123.275 121.319 123.206 120.874C123.17 120.647 123.139 120.465 123.088 120.327Z" fill="#CB4B64"/>
<path d="M121.169 127.691C122.5 127.076 123.11 125.443 123.726 124.209C124.04 123.58 125.13 121.438 124.881 120.802C124.41 119.605 123.462 120.494 122.704 120.308C122.205 120.184 120.592 120.336 122.211 120.312C123.284 120.296 123.177 120.433 122.314 120.568C121.732 120.659 120.899 120.095 120.344 120.313C120.028 120.438 118.421 120.774 119.524 120.405C120.335 120.134 121.264 120.243 122.096 120.062C123.016 119.862 123.087 120.114 123.206 120.874C123.31 121.545 122.578 122.287 122.647 122.186C122.934 121.764 122.427 120.23 122.251 120.709C122.134 121.027 123.084 122.511 123.242 122.853C123.753 123.956 122.756 126.382 121.66 126.889" stroke="#EBEBEB" stroke-width="2" stroke-linecap="round"/>
<path d="M123.543 120.43C123.595 120.49 123.62 120.562 123.631 120.641C123.748 120.694 123.912 120.778 124.075 120.874C124.355 120.417 121.846 119.8 123.599 119.894C124.069 119.919 124.119 120.479 124.18 120.938C124.57 121.181 124.901 121.47 124.515 121.53C124.277 121.567 124.226 121.281 124.18 120.938C124.145 120.916 124.11 120.895 124.075 120.874C123.912 120.778 123.748 120.694 123.631 120.641C123.566 120.611 123.516 120.591 123.487 120.584C123.057 120.478 123.235 120.072 123.543 120.43Z" fill="#CB4B64"/>
<path d="M123.697 121.349C123.556 121.046 123.736 120.654 123.543 120.43C123.235 120.072 123.057 120.478 123.487 120.584C123.705 120.638 125.183 121.426 124.515 121.53C123.959 121.617 124.421 119.938 123.599 119.894C121.821 119.798 124.427 120.435 124.061 120.894" stroke="#EBEBEB" stroke-width="2" stroke-linecap="round"/>
<path d="M55.0244 107.7C55.5634 108.565 56.9188 109.311 57.3399 110.222C57.9821 111.61 58.4222 112.465 59.585 113.35C60.6545 114.165 62.2358 112.073 63.3353 112.622C63.8235 112.866 64.475 112.687 64.963 113.035C65.468 113.394 66.2487 114.214 65.3579 113.267" stroke="#EBEBEB" stroke-width="2" stroke-linecap="round"/>
<path d="M116.835 55.5522C117.39 56.7526 117.967 59.1875 119.397 59.54C120.942 59.9207 121.053 62.0176 121.232 63.1619C121.514 64.9699 122.55 65.9237 123.891 66.9452C125.002 67.7906 126.376 70.1482 125.336 71.4499" stroke="#EBEBEB" stroke-width="2" stroke-linecap="round"/>
<path d="M120.31 120.627C121.05 120.497 121.793 120.713 122.485 120.967" stroke="#EBEBEB" stroke-width="2" stroke-linecap="round"/>
<path d="M119.936 120.548C120.165 120.471 120.479 120.727 120.665 120.841C120.899 120.984 121.192 120.963 121.402 121.131C121.774 121.428 122.256 121.745 122.464 122.196C122.853 123.036 123.333 123.911 122.879 124.821C122.488 125.605 121.843 126.223 121.536 127.058C121.404 127.416 121.081 127.756 120.851 128.071C120.612 128.398 120.349 128.727 120.087 129.055" stroke="#EBEBEB" stroke-width="2" stroke-linecap="round"/>
<path d="M49.7865 29.5459C49.6734 29.1912 51.791 28.4068 52.109 28.2597C52.8994 27.8942 53.7482 27.3555 54.5947 27.4285C55.0875 27.471 55.5487 27.612 56.0493 27.6045C56.4121 27.5991 57.0623 27.7502 57.3842 27.6237C57.6179 27.5319 58.2555 27.3695 58.487 27.485C58.8577 27.6701 59.4765 27.2926 59.8115 27.1377C60.1146 26.9976 60.7915 26.9146 61.0988 26.9903C61.2653 27.0313 61.405 26.9883 61.5905 27.0341C61.7565 27.075 61.9762 27.2191 62.1302 27.2324C62.3089 27.2478 63.2237 27.1969 63.2951 27.3302C63.4269 27.5761 63.4936 27.6081 63.693 27.7827C63.8706 27.9383 63.9456 28.1743 64.1312 28.3226C64.2451 28.4135 64.9601 28.6748 64.8867 28.8219C64.8147 28.9662 64.8348 29.1757 64.8571 29.3188C64.8879 29.516 65.1269 29.7362 64.9768 29.9472C64.8126 30.1778 64.8229 30.3704 64.9182 30.6107C64.9565 30.7072 65.053 31.3206 65.0384 31.3803C64.9947 31.5572 65.1597 31.8779 65.0908 32.0161C64.8485 32.5015 65.7018 32.5593 65.8882 32.7082" stroke="#EBEBEB" stroke-width="2" stroke-linecap="round"/>
<path d="M100.187 65.4157C100.24 65.4055 100.293 65.3977 100.348 65.3921C100.706 65.2427 101.096 65.182 101.601 65.3264C102.334 65.5358 103.075 65.9935 103.797 66.2108C105.216 66.6377 107.726 66.1393 108.614 68.0607C108.858 68.5874 109.033 69.0346 109.164 69.5811C109.241 69.9048 109.472 70.8351 109.416 71.1225C109.332 71.5535 109.584 72.0539 109.499 72.491C109.403 72.9844 109.335 73.4189 109.329 73.941C109.312 75.2639 108.271 76.1698 107.68 77.1947C106.997 78.379 105.632 78.8766 104.476 79.411C103.381 79.9173 101.401 80.2588 100.617 78.776C100.083 77.765 99.1117 77.0667 98.0983 76.6339C95.4132 75.4872 95.8071 71.7286 95.7394 69.4173C95.7011 68.1105 96.2232 66.7739 97.3687 66.2442L98.7475 65.6066C99.1844 65.4046 99.7216 65.5061 100.187 65.4157Z" fill="#CB4B64"/>
<path d="M105.621 66.6222C105.928 66.4803 104.933 66.4997 104.589 66.4541C104.095 66.3888 103.498 66.2333 103.026 66.0475C102.196 65.7207 101.051 65.2482 100.187 65.4157C99.7216 65.5061 99.1844 65.4046 98.7475 65.6066C98.2879 65.8191 97.8283 66.0317 97.3687 66.2442C96.2232 66.7739 95.7011 68.1105 95.7394 69.4173C95.8071 71.7286 95.4132 75.4872 98.0983 76.6339C99.1117 77.0667 100.083 77.765 100.617 78.776C101.401 80.2588 103.381 79.9173 104.476 79.411C105.632 78.8766 106.997 78.379 107.68 77.1947C108.271 76.1698 109.312 75.2639 109.329 73.941C109.335 73.4189 109.403 72.9844 109.499 72.491C109.584 72.0539 109.332 71.5535 109.416 71.1225C109.472 70.8351 109.241 69.9048 109.164 69.5811C109.033 69.0346 108.858 68.5874 108.614 68.0607C107.726 66.1393 105.216 66.6377 103.797 66.2108C103.075 65.9935 102.334 65.5358 101.601 65.3264C100.466 65.002 99.9137 65.7125 98.9933 66.1382" stroke="#EBEBEB" stroke-width="2" stroke-linecap="round"/>
<path d="M102.458 68.8548C102.237 68.8744 101.826 68.9475 101.701 68.859C101.439 68.672 101.212 68.7473 100.93 68.6433C100.894 68.6301 100.857 68.6178 100.819 68.6067C100.619 68.6422 100.413 68.6583 100.211 68.7514C100.165 68.773 99.8316 68.9532 99.8094 68.9053C99.7524 68.782 100.012 68.6517 100.085 68.6176C100.312 68.513 100.58 68.5358 100.819 68.6067C100.915 68.5896 101.01 68.5682 101.102 68.5316C101.306 68.4508 101.68 68.2952 101.907 68.3655C102.174 68.4481 102.34 68.5384 102.445 68.8066C102.452 68.8242 102.456 68.8402 102.458 68.8548Z" fill="#CB4B64"/>
<path d="M102.6 68.8633C102.562 68.8029 101.87 68.9786 101.701 68.859C101.439 68.672 101.212 68.7473 100.93 68.6433C100.665 68.5461 100.347 68.4965 100.085 68.6176C100.012 68.6517 99.7524 68.782 99.8094 68.9053C99.8316 68.9532 100.165 68.773 100.211 68.7514C100.509 68.6137 100.818 68.6444 101.102 68.5316C101.306 68.4508 101.68 68.2952 101.907 68.3655C102.174 68.4481 102.34 68.5384 102.445 68.8066C102.572 69.1297 101.716 68.9252 101.61 68.9371" stroke="#EDEDED" stroke-width="2" stroke-linecap="round"/>
<path d="M129.409 87.3941C129.439 87.3872 129.47 87.3814 129.502 87.3768C129.713 87.2874 129.94 87.2437 130.227 87.304C130.643 87.3915 131.057 87.609 131.466 87.701C132.272 87.8816 133.735 87.5433 134.188 88.5245C134.313 88.7934 134.4 89.0227 134.459 89.3055C134.494 89.473 134.598 89.9542 134.557 90.1067C134.495 90.3354 134.625 90.5903 134.563 90.8223C134.493 91.0842 134.44 91.3143 134.42 91.5884C134.37 92.2832 133.742 92.7904 133.37 93.3463C132.94 93.9887 132.137 94.2916 131.454 94.6074C130.807 94.9066 129.655 95.1464 129.248 94.3922C128.971 93.8779 128.432 93.5412 127.861 93.3451C126.347 92.8254 126.689 90.8409 126.721 89.6301C126.739 88.9454 127.081 88.2281 127.758 87.9151L128.572 87.5383C128.831 87.4189 129.137 87.4558 129.409 87.3941Z" fill="#CB4B64"/>
<path d="M132.506 87.8611C132.687 87.7772 132.113 87.8178 131.916 87.8044C131.633 87.7853 131.293 87.7219 131.027 87.6389C130.558 87.4927 129.912 87.2798 129.409 87.3941C129.137 87.4558 128.831 87.4189 128.572 87.5383C128.301 87.6639 128.029 87.7895 127.758 87.9151C127.081 88.2281 126.739 88.9454 126.721 89.6301C126.689 90.8409 126.347 92.8254 127.861 93.3451C128.432 93.5412 128.971 93.8779 129.248 94.3922C129.655 95.1463 130.807 94.9066 131.454 94.6074C132.137 94.2916 132.94 93.9887 133.37 93.3463C133.742 92.7904 134.37 92.2832 134.42 91.5884C134.44 91.3143 134.493 91.0842 134.563 90.8223C134.625 90.5903 134.495 90.3354 134.557 90.1067C134.598 89.9542 134.494 89.473 134.459 89.3055C134.4 89.0227 134.313 88.7934 134.188 88.5245C133.735 87.5433 132.272 87.8816 131.466 87.701C131.057 87.609 130.643 87.3915 130.227 87.304C129.582 87.1685 129.242 87.5582 128.698 87.8097" stroke="#EBEBEB" stroke-width="2" stroke-linecap="round"/>
<path d="M130.763 89.5883C130.63 89.599 130.382 89.6412 130.307 89.5861C130.147 89.4696 130.011 89.5144 129.839 89.4488C129.818 89.4405 129.795 89.4327 129.773 89.4256C129.652 89.4461 129.528 89.4547 129.407 89.5106C129.379 89.5236 129.179 89.6321 129.165 89.6026C129.13 89.5265 129.286 89.4481 129.33 89.4277C129.466 89.3648 129.628 89.3805 129.773 89.4256C129.83 89.4157 129.887 89.4031 129.943 89.3813C130.065 89.3329 130.29 89.2397 130.428 89.2844C130.589 89.3367 130.69 89.3933 130.755 89.5586C130.759 89.5695 130.762 89.5793 130.763 89.5883Z" fill="#CB4B64"/>
<path d="M130.849 89.5944C130.825 89.5571 130.409 89.6606 130.307 89.5861C130.147 89.4696 130.011 89.5144 129.839 89.4488C129.679 89.3874 129.487 89.355 129.33 89.4277C129.286 89.4481 129.13 89.5265 129.165 89.6026C129.179 89.6321 129.379 89.5236 129.407 89.5106C129.586 89.4279 129.772 89.4487 129.943 89.3813C130.065 89.3329 130.29 89.2397 130.428 89.2844C130.589 89.3367 130.69 89.3933 130.755 89.5586C130.834 89.7578 130.316 89.6268 130.252 89.6335" stroke="#EDEDED" stroke-width="2" stroke-linecap="round"/>
<path d="M81.5858 101.205C81.6239 101.197 81.6629 101.191 81.7025 101.187C81.9634 101.078 82.2471 101.034 82.6145 101.137C83.1472 101.287 83.6852 101.618 84.2102 101.774C85.2414 102.08 87.0682 101.715 87.711 103.105C87.8872 103.486 88.0136 103.809 88.1078 104.205C88.1637 104.439 88.3294 105.112 88.2882 105.321C88.2265 105.633 88.4088 105.995 88.3461 106.312C88.2754 106.669 88.2252 106.984 88.2195 107.362C88.205 108.32 87.4462 108.978 87.0141 109.722C86.5148 110.581 85.5212 110.944 84.6795 111.333C83.8822 111.702 82.4406 111.953 81.8734 110.88C81.4866 110.149 80.7815 109.645 80.0452 109.333C78.0941 108.508 78.3876 105.785 78.3427 104.111C78.3173 103.165 78.6996 102.196 79.5338 101.81L80.538 101.345C80.8562 101.198 81.2468 101.271 81.5858 101.205Z" fill="#CB4B64"/>
<path d="M85.5359 102.068C85.7594 101.965 85.0362 101.981 84.7857 101.948C84.4265 101.902 83.9927 101.791 83.6498 101.657C83.0466 101.422 82.2142 101.082 81.5858 101.205C81.2468 101.271 80.8562 101.198 80.538 101.345C80.2033 101.5 79.8686 101.655 79.5338 101.81C78.6996 102.196 78.3173 103.165 78.3427 104.111C78.3876 105.785 78.0941 108.508 80.0452 109.333C80.7815 109.645 81.4866 110.149 81.8734 110.88C82.4406 111.953 83.8822 111.702 84.6795 111.333C85.5212 110.944 86.5148 110.581 87.0141 109.722C87.4462 108.978 88.205 108.32 88.2195 107.362C88.2252 106.984 88.2754 106.669 88.3461 106.312C88.4088 105.995 88.2265 105.633 88.2882 105.321C88.3294 105.112 88.1637 104.439 88.1078 104.205C88.0136 103.809 87.8872 103.486 87.711 103.105C87.0682 101.715 85.2414 102.08 84.2102 101.774C83.6852 101.618 83.1472 101.287 82.6145 101.137C81.7894 100.904 81.3861 101.42 80.7158 101.73" stroke="#EBEBEB" stroke-width="2" stroke-linecap="round"/>
<path d="M83.2309 103.691C83.0701 103.706 82.771 103.759 82.6808 103.696C82.4899 103.561 82.3252 103.616 82.1196 103.541C82.0935 103.531 82.0667 103.523 82.0393 103.515C81.8936 103.541 81.7436 103.553 81.5969 103.621C81.563 103.636 81.3203 103.767 81.3043 103.733C81.2631 103.644 81.4519 103.549 81.5056 103.524C81.6704 103.448 81.8653 103.464 82.0393 103.515C82.1092 103.502 82.1782 103.486 82.2452 103.46C82.3936 103.401 82.6659 103.287 82.8313 103.338C83.0254 103.397 83.1459 103.462 83.2221 103.656C83.227 103.669 83.2299 103.681 83.2309 103.691Z" fill="#CB4B64"/>
<path d="M83.3342 103.697C83.3069 103.653 82.8028 103.782 82.6808 103.696C82.4899 103.561 82.3252 103.616 82.1196 103.541C81.9273 103.471 81.6963 103.436 81.5056 103.524C81.4519 103.549 81.2631 103.644 81.3043 103.733C81.3203 103.767 81.563 103.636 81.5969 103.621C81.8139 103.52 82.0383 103.542 82.2452 103.46C82.3936 103.401 82.6659 103.287 82.8313 103.338C83.0254 103.397 83.1459 103.462 83.2221 103.656C83.3138 103.89 82.6911 103.744 82.6137 103.752" stroke="#EDEDED" stroke-width="2" stroke-linecap="round"/>
<path d="M102.541 102.61C102.578 102.6 102.615 102.591 102.653 102.583C102.912 102.471 103.185 102.404 103.518 102.435C104.001 102.48 104.468 102.656 104.943 102.706C105.877 102.804 107.642 102.312 108.077 103.252C108.196 103.51 108.275 103.731 108.316 104.01C108.339 104.175 108.413 104.648 108.349 104.806C108.252 105.042 108.379 105.285 108.281 105.525C108.171 105.796 108.085 106.033 108.033 106.311C107.902 107.015 107.107 107.591 106.608 108.189C106.033 108.88 105.052 109.268 104.212 109.657C103.416 110.025 102.027 110.386 101.625 109.669C101.35 109.181 100.748 108.898 100.092 108.76C98.3562 108.394 98.9668 106.361 99.1299 105.139C99.2221 104.449 99.7011 103.691 100.534 103.306L101.537 102.842C101.855 102.695 102.214 102.701 102.541 102.61Z" fill="#CB4B64"/>
<path d="M106.155 102.759C106.379 102.656 105.696 102.756 105.464 102.763C105.131 102.773 104.736 102.745 104.429 102.689C103.89 102.59 103.148 102.443 102.541 102.61C102.214 102.701 101.855 102.695 101.537 102.842C101.203 102.997 100.868 103.151 100.534 103.306C99.7011 103.691 99.2221 104.449 99.1299 105.139C98.9668 106.361 98.3562 108.394 100.092 108.76C100.748 108.898 101.35 109.181 101.625 109.669C102.027 110.386 103.416 110.025 104.212 109.657C105.052 109.268 106.033 108.88 106.608 108.189C107.107 107.591 107.902 107.015 108.033 106.311C108.085 106.033 108.171 105.796 108.281 105.525C108.379 105.285 108.252 105.042 108.349 104.806C108.413 104.648 108.339 104.175 108.316 104.01C108.275 103.731 108.196 103.51 108.077 103.252C107.642 102.312 105.877 102.804 104.943 102.706C104.468 102.656 104.001 102.48 103.518 102.435C102.77 102.365 102.327 102.793 101.657 103.102" stroke="#EBEBEB" stroke-width="2" stroke-linecap="round"/>
<path d="M104.222 105.191C104.062 105.206 103.763 105.26 103.672 105.196C103.481 105.061 103.317 105.116 103.111 105.041C103.085 105.032 103.058 105.023 103.031 105.015C102.885 105.041 102.735 105.053 102.588 105.121C102.555 105.136 102.312 105.268 102.296 105.233C102.255 105.144 102.443 105.049 102.497 105.024C102.662 104.948 102.857 104.964 103.031 105.015C103.101 105.002 103.17 104.986 103.237 104.96C103.385 104.901 103.657 104.788 103.823 104.838C104.017 104.897 104.137 104.962 104.214 105.156C104.219 105.169 104.221 105.181 104.222 105.191Z" fill="#CB4B64"/>
<path d="M104.326 105.197C104.298 105.154 103.794 105.282 103.672 105.196C103.481 105.061 103.317 105.116 103.111 105.041C102.919 104.971 102.688 104.936 102.497 105.024C102.443 105.049 102.255 105.144 102.296 105.233C102.312 105.268 102.555 105.136 102.588 105.121C102.805 105.02 103.03 105.042 103.237 104.96C103.385 104.901 103.657 104.788 103.823 104.838C104.017 104.897 104.137 104.962 104.214 105.156C104.305 105.39 103.683 105.244 103.605 105.253" stroke="#EDEDED" stroke-width="2" stroke-linecap="round"/>
<path d="M43.0298 43.6734C43.0631 43.6663 43.0971 43.6607 43.1315 43.6564C43.3604 43.5603 43.6078 43.5172 43.9247 43.5959C44.3842 43.71 44.8446 43.9739 45.2973 44.093C46.1865 44.3269 47.7808 43.9842 48.3101 45.1289C48.4552 45.4427 48.5583 45.7096 48.6319 46.0372C48.6755 46.2313 48.8055 46.7889 48.7654 46.9632C48.7052 47.2247 48.856 47.5224 48.795 47.7877C48.7262 48.087 48.676 48.3504 48.6632 48.6655C48.6307 49.4641 47.958 50.0281 47.5673 50.6565C47.1157 51.3826 46.2452 51.7056 45.5061 52.0474C44.8059 52.3712 43.5487 52.6103 43.0783 51.7286C42.7576 51.1274 42.1557 50.7222 41.5227 50.478C39.8453 49.8308 40.1569 47.556 40.1527 46.1624C40.1503 45.3744 40.5025 44.5591 41.2351 44.2203L42.1169 43.8126C42.3963 43.6834 42.734 43.7357 43.0298 43.6734Z" fill="#CB4B64"/>
<path d="M46.4426 44.3108C46.6389 44.22 46.0104 44.2483 45.7935 44.2266C45.4825 44.1954 45.1081 44.1115 44.813 44.0073C44.2941 43.8239 43.5782 43.5579 43.0298 43.6734C42.734 43.7357 42.3963 43.6834 42.1169 43.8126C41.8229 43.9485 41.529 44.0844 41.2351 44.2203C40.5025 44.5591 40.1503 45.3744 40.1527 46.1624C40.1569 47.556 39.8453 49.8308 41.5227 50.478C42.1557 50.7222 42.7576 51.1274 43.0783 51.7286C43.5487 52.6103 44.8059 52.3712 45.5061 52.0474C46.2452 51.7056 47.1157 51.3826 47.5673 50.6565C47.958 50.0281 48.6307 49.4641 48.6632 48.6655C48.676 48.3504 48.7262 48.087 48.795 47.7877C48.856 47.5224 48.7052 47.2247 48.7654 46.9632C48.8055 46.7889 48.6755 46.2313 48.6319 46.0372C48.5583 45.7096 48.4552 45.4427 48.3101 45.1289C47.7808 43.9842 46.1865 44.3269 45.2973 44.093C44.8446 43.9739 44.3842 43.71 43.9247 43.5959C43.2129 43.4191 42.852 43.857 42.2633 44.1293" stroke="#EBEBEB" stroke-width="2" stroke-linecap="round"/>
<path d="M44.4069 45.7108C44.2669 45.7264 44.006 45.7773 43.929 45.726C43.766 45.6175 43.6218 45.6667 43.4449 45.6087C43.4224 45.6013 43.3993 45.5945 43.3757 45.5884C43.2486 45.6132 43.118 45.6264 42.9892 45.6859C42.9595 45.6997 42.746 45.814 42.7328 45.7855C42.6988 45.712 42.8648 45.6291 42.9119 45.6073C43.0566 45.5403 43.2256 45.5496 43.3757 45.5884C43.4366 45.5765 43.4968 45.562 43.5557 45.5384C43.6857 45.4863 43.9245 45.3861 44.0672 45.4248C44.2346 45.4701 44.3378 45.5219 44.3999 45.6819C44.404 45.6924 44.4063 45.702 44.4069 45.7108Z" fill="#CB4B64"/>
<path d="M44.4965 45.7136C44.4737 45.6778 44.0332 45.7954 43.929 45.726C43.766 45.6175 43.6218 45.6667 43.4449 45.6087C43.2793 45.5544 43.0794 45.5298 42.9119 45.6073C42.8648 45.6291 42.6988 45.712 42.7328 45.7855C42.746 45.814 42.9595 45.6997 42.9892 45.6859C43.1798 45.5978 43.3742 45.6112 43.5557 45.5384C43.6857 45.4863 43.9245 45.3861 44.0672 45.4248C44.2346 45.4701 44.3378 45.5219 44.3999 45.6819C44.4748 45.8748 43.9369 45.7657 43.8696 45.7746" stroke="#EDEDED" stroke-width="2" stroke-linecap="round"/>
<path d="M77.9486 38.4234C77.9875 38.415 78.0272 38.4082 78.0675 38.4029C78.3358 38.2899 78.6251 38.2375 78.9942 38.3243C79.5294 38.4501 80.0639 38.7478 80.5911 38.8794C81.6265 39.1379 83.4916 38.7263 84.0966 40.0345C84.2624 40.3931 84.3796 40.6985 84.4619 41.0737C84.5106 41.296 84.656 41.9347 84.6072 42.1353C84.534 42.4362 84.7066 42.7764 84.6324 43.0816C84.5486 43.426 84.4871 43.729 84.4685 44.0909C84.4215 45.0082 83.6297 45.6634 83.1664 46.3893C82.631 47.228 81.6111 47.6088 80.7443 48.0097C79.9232 48.3894 78.4527 48.6782 77.9136 47.6713C77.546 46.9846 76.848 46.5263 76.1117 46.253C74.1608 45.5291 74.5504 42.9139 74.5614 41.3138C74.5676 40.4092 74.988 39.4691 75.8471 39.0719L76.8812 38.5937C77.2088 38.4421 77.6026 38.4983 77.9486 38.4234Z" fill="#CB4B64"/>
<path d="M81.9256 39.1165C82.1558 39.01 81.4217 39.0497 81.1688 39.0272C80.8061 38.9949 80.3699 38.9029 80.0266 38.7865C79.4228 38.5819 78.5901 38.2846 77.9486 38.4234C77.6026 38.4983 77.2088 38.4421 76.8812 38.5937C76.5365 38.7531 76.1918 38.9125 75.8471 39.0719C74.988 39.4691 74.5676 40.4092 74.5614 41.3138C74.5504 42.9139 74.1608 45.5291 76.1117 46.253C76.848 46.5263 77.546 46.9846 77.9136 47.6713C78.4527 48.6782 79.9232 48.3894 80.7443 48.0097C81.6111 47.6088 82.631 47.228 83.1664 46.3893C83.6297 45.6634 84.4215 45.0082 84.4685 44.0909C84.4871 43.729 84.5486 43.426 84.6324 43.0816C84.7066 42.7764 84.534 42.4362 84.6072 42.1353C84.656 41.9347 84.5106 41.296 84.4619 41.0737C84.3796 40.6985 84.2624 40.3931 84.0966 40.0345C83.4916 38.7263 81.6265 39.1379 80.5911 38.8794C80.0639 38.7478 79.5294 38.4501 78.9942 38.3243C78.1652 38.1294 77.7389 38.6364 77.0486 38.9556" stroke="#EBEBEB" stroke-width="2" stroke-linecap="round"/>
<path d="M80.4509 40.8507C80.2686 40.87 79.9288 40.935 79.828 40.8668C79.6146 40.7225 79.427 40.7862 79.1958 40.7083C79.1664 40.6984 79.1362 40.6892 79.1054 40.681C78.9399 40.7126 78.7698 40.7289 78.6024 40.8063C78.5637 40.8242 78.2863 40.9731 78.2688 40.9354C78.2239 40.8383 78.4397 40.7304 78.501 40.702C78.6891 40.6151 78.9094 40.6287 79.1054 40.681C79.1848 40.6659 79.2632 40.6472 79.3397 40.6166C79.5088 40.5489 79.8194 40.4189 80.0057 40.471C80.2243 40.5321 80.3593 40.6012 80.4416 40.8126C80.447 40.8265 80.45 40.8391 80.4509 40.8507Z" fill="#CB4B64"/>
<path d="M80.5677 40.8551C80.5377 40.8077 79.9644 40.959 79.828 40.8668C79.6146 40.7225 79.427 40.7862 79.1958 40.7083C78.9795 40.6354 78.7186 40.6014 78.501 40.702C78.4397 40.7304 78.2239 40.8383 78.2688 40.9354C78.2863 40.9731 78.5637 40.8242 78.6024 40.8063C78.8501 40.6918 79.1037 40.711 79.3397 40.6166C79.5088 40.5489 79.8194 40.4189 80.0057 40.471C80.2243 40.5321 80.3593 40.6012 80.4416 40.8126C80.5407 41.0673 79.8387 40.9192 79.7509 40.9304" stroke="#EDEDED" stroke-width="2" stroke-linecap="round"/>
<path d="M60.4405 66.9646C60.4848 66.9576 60.5301 66.9529 60.5763 66.9502C60.875 66.8277 61.2049 66.7897 61.6433 66.949C62.2789 67.18 62.9332 67.6437 63.5601 67.8816C64.7916 68.3489 66.9103 68.0033 67.761 69.843C67.9942 70.3473 68.165 70.7739 68.303 71.2913C68.3848 71.5977 68.626 72.4789 68.5921 72.745C68.5412 73.144 68.7803 73.6241 68.7287 74.0289C68.6705 74.4857 68.6334 74.8888 68.6529 75.3767C68.7023 76.6132 67.8574 77.4104 67.4018 78.3406C66.8754 79.4154 65.7344 79.8152 64.7736 80.2596C63.8634 80.6805 62.1889 80.9048 61.4488 79.4804C60.9442 78.5091 60.0817 77.8094 59.1959 77.356C56.8489 76.1547 57.0046 72.6584 56.8359 70.4935C56.7404 69.2695 57.1219 68.0445 58.0743 67.6041L59.2206 67.074C59.5838 66.906 60.0473 67.0268 60.4405 66.9646Z" fill="#CB4B64"/>
<path d="M65.1364 68.3539C65.3916 68.2359 64.5439 68.2063 64.2476 68.1472C63.8229 68.0624 63.306 67.8883 62.8943 67.6919C62.1701 67.3463 61.1696 66.8494 60.4405 66.9646C60.0473 67.0268 59.5838 66.906 59.2206 67.074C58.8385 67.2507 58.4564 67.4274 58.0743 67.6041C57.1219 68.0445 56.7404 69.2695 56.8359 70.4935C57.0046 72.6584 56.8489 76.1547 59.1959 77.356C60.0817 77.8094 60.9442 78.5091 61.4488 79.4804C62.1889 80.9048 63.8634 80.6805 64.7736 80.2596C65.7344 79.8152 66.8754 79.4154 67.4018 78.3406C67.8574 77.4104 68.7023 76.6132 68.6529 75.3767C68.6334 74.8888 68.6705 74.4857 68.7287 74.0289C68.7803 73.6241 68.5412 73.144 68.5921 72.745C68.626 72.4789 68.3848 71.5977 68.303 71.2913C68.165 70.7739 67.9942 70.3473 67.761 69.843C66.9103 68.0033 64.7916 68.3489 63.5601 67.8816C62.9332 67.6437 62.2789 67.18 61.6433 66.949C60.6587 66.5911 60.2212 67.2291 59.456 67.5829" stroke="#EBEBEB" stroke-width="2" stroke-linecap="round"/>
<path d="M62.5436 70.29C62.3559 70.2978 62.0086 70.3464 61.8983 70.2577C61.6649 70.0701 61.4754 70.1297 61.229 70.0189C61.1977 70.0048 61.1656 69.9915 61.1329 69.9793C60.9637 70.0029 60.7885 70.0081 60.6211 70.0855C60.5823 70.1034 60.3066 70.2559 60.2854 70.2101C60.2308 70.0921 60.4458 69.9827 60.5072 69.9543C60.6953 69.8673 60.9252 69.9015 61.1329 69.9793C61.2141 69.968 61.2939 69.9525 61.3708 69.9227C61.5408 69.8569 61.8525 69.7293 62.0502 69.806C62.2821 69.896 62.428 69.9885 62.5308 70.2444C62.5376 70.2612 62.5418 70.2763 62.5436 70.29Z" fill="#CB4B64"/>
<path d="M62.6652 70.3048C62.6302 70.2465 62.0475 70.3776 61.8983 70.2577C61.6649 70.0701 61.4754 70.1298 61.229 70.0189C60.9984 69.9153 60.7248 69.8536 60.5072 69.9543C60.4458 69.9827 60.2308 70.0921 60.2854 70.2101C60.3066 70.2559 60.5823 70.1034 60.6211 70.0855C60.8688 69.971 61.1336 70.0145 61.3708 69.9227C61.5408 69.8569 61.8525 69.7293 62.0502 69.806C62.2821 69.896 62.428 69.9885 62.5308 70.2444C62.6547 70.5527 61.9137 70.3203 61.8235 70.3263" stroke="#EDEDED" stroke-width="2" stroke-linecap="round"/>
<path d="M40.5327 89.0484C40.5761 89.0394 40.6203 89.0323 40.6652 89.0269C40.9628 88.9021 41.285 88.8473 41.6988 88.9536C42.2989 89.1078 42.9013 89.4592 43.4925 89.6198C44.6537 89.9353 46.7295 89.4968 47.4289 91.0094C47.6207 91.4241 47.7572 91.7767 47.8559 92.2089C47.9144 92.4649 48.0883 93.2007 48.0374 93.4301C47.9612 93.7741 48.1602 94.1677 48.0828 94.5167C47.9955 94.9105 47.9323 95.2572 47.9181 95.6723C47.8823 96.7243 47.0098 97.462 46.5055 98.2868C45.9228 99.2398 44.7904 99.6584 43.8296 100.103C42.9194 100.524 41.2822 100.828 40.6617 99.6628C40.2387 98.868 39.4506 98.3292 38.6233 98.0022C36.4311 97.1357 36.8188 94.141 36.8019 92.3046C36.7924 91.2663 37.2449 90.1949 38.1972 89.7545L39.3436 89.2244C39.7068 89.0564 40.1476 89.1281 40.5327 89.0484Z" fill="#CB4B64"/>
<path d="M44.9874 89.9162C45.2426 89.7982 44.4234 89.8303 44.1404 89.7999C43.7347 89.7563 43.2459 89.6427 42.8603 89.5029C42.1823 89.2571 41.2467 88.9007 40.5327 89.0484C40.1476 89.1281 39.7068 89.0564 39.3436 89.2244C38.9615 89.4011 38.5794 89.5778 38.1972 89.7545C37.2449 90.1949 36.7924 91.2663 36.8019 92.3046C36.8188 94.141 36.4311 97.1357 38.6233 98.0022C39.4506 98.3292 40.2387 98.868 40.6617 99.6628C41.2822 100.828 42.9194 100.524 43.8296 100.103C44.7904 99.6584 45.9228 99.2398 46.5055 98.2868C47.0098 97.462 47.8823 96.7243 47.9181 95.6723C47.9323 95.2572 47.9955 94.9105 48.0828 94.5167C48.1602 94.1677 47.9612 93.7741 48.0374 93.4301C48.0883 93.2007 47.9144 92.4649 47.8559 92.2089C47.7572 91.7767 47.6207 91.4241 47.4289 91.0094C46.7295 89.4968 44.6537 89.9353 43.4925 89.6198C42.9013 89.4592 42.2989 89.1078 41.6988 88.9536C40.7693 88.7148 40.3023 89.289 39.5371 89.6429" stroke="#EBEBEB" stroke-width="2" stroke-linecap="round"/>
<path d="M42.3448 91.7443C42.1625 91.7636 41.8228 91.8286 41.7219 91.7604C41.5085 91.6161 41.3209 91.6798 41.0897 91.6019C41.0604 91.592 41.0302 91.5829 40.9994 91.5746C40.8338 91.6062 40.6637 91.6225 40.4963 91.6999C40.4576 91.7179 40.1802 91.8667 40.1627 91.829C40.1179 91.732 40.3336 91.624 40.3949 91.5957C40.583 91.5087 40.8034 91.5223 40.9994 91.5746C41.0787 91.5595 41.1571 91.5408 41.2336 91.5102C41.4027 91.4425 41.7133 91.3125 41.8996 91.3646C42.1182 91.4257 42.2533 91.4948 42.3355 91.7062C42.3409 91.7201 42.3439 91.7327 42.3448 91.7443Z" fill="#CB4B64"/>
<path d="M42.4616 91.7487C42.4316 91.7013 41.8583 91.8527 41.7219 91.7604C41.5085 91.6161 41.3209 91.6798 41.0897 91.6019C40.8734 91.5291 40.6126 91.495 40.3949 91.5957C40.3336 91.624 40.1179 91.732 40.1627 91.829C40.1802 91.8667 40.4576 91.7179 40.4963 91.6999C40.744 91.5854 40.9976 91.6046 41.2336 91.5102C41.4027 91.4425 41.7133 91.3125 41.8996 91.3646C42.1182 91.4257 42.2533 91.4948 42.3355 91.7062C42.4347 91.961 41.7326 91.8128 41.6448 91.824" stroke="#EDEDED" stroke-width="2" stroke-linecap="round"/>
<path d="M93.4971 120.291C91.0999 121.4 96.4964 123.042 97.114 123.269C98.5821 123.808 98.4005 122.579 99.6594 122.304C100.9 122.034 101.614 121.131 102.815 120.576" stroke="#EBEBEB" stroke-width="2" stroke-linecap="round"/>
<path d="M61.6292 27.3879C60.9277 27.6116 59.9765 27.2792 59.2113 27.6331C58.5253 27.9503 57.5017 28.1442 56.7308 28.1207C56.3316 28.1085 55.8002 28.1105 55.4335 28.1677C55.0733 28.224 54.5573 28.4998 54.1875 28.4724C53.5157 28.4226 51.9848 28.8482 51.4441 29.3143C50.9511 29.7392 50.1304 30.478 49.8432 31.0536C49.6648 31.411 49.0027 31.5291 48.7672 31.8518C48.4994 32.2186 48.1379 32.4517 47.7946 32.7477C46.5156 33.8503 45.0416 34.7751 44.7589 36.5859" stroke="#EBEBEB" stroke-width="2" stroke-linecap="round"/>
<path d="M57.7352 25.0999C57.6698 25.1678 57.6207 25.2693 57.5683 25.3691C57.2633 25.5603 56.9675 25.7701 56.7298 25.9854C56.588 26.1139 56.4397 26.1833 56.2875 26.2327C56.0687 26.4741 55.8484 26.6751 55.5086 26.6415C55.1429 26.6053 55.4138 26.5307 55.6118 26.4392C55.8399 26.3337 56.0678 26.3041 56.2875 26.2327C56.416 26.0909 56.544 25.9351 56.6953 25.8046C57.0267 25.519 57.3545 25.3112 57.7352 25.0999C57.7567 25.0777 57.7799 25.0591 57.8055 25.0453C57.9453 24.9705 58.3567 24.7667 58.0139 24.949C57.9176 25.0002 57.8249 25.0502 57.7352 25.0999Z" fill="#CB4B64"/>
<path d="M56.6282 26.6015C56.786 26.5031 56.726 26.2361 56.8568 26.1234C57.0341 25.9705 57.1814 25.78 57.3797 25.6287C57.5648 25.4874 57.6228 25.1433 57.8055 25.0453C57.9453 24.9705 58.3567 24.7667 58.0139 24.949C57.5088 25.2175 57.1047 25.4517 56.6953 25.8046C56.2863 26.1572 56.048 26.6948 55.5086 26.6415C55.1429 26.6053 55.4138 26.5307 55.6118 26.4392C55.9978 26.2607 56.3832 26.2994 56.7298 25.9854C57.1805 25.5771 57.8402 25.189 58.3746 24.9086C58.8771 24.645 59.2576 24.1331 59.6952 23.7991C59.9178 23.6293 60.8613 23.413 61.0351 23.5519" stroke="#EBEBEB" stroke-width="2" stroke-linecap="round"/>
<path d="M97.5265 31.6324C98.4194 31.0757 94.2938 28.5917 93.251 29.074C91.8977 29.6998 91.6029 29.3732 90.3741 28.8467C89.172 28.3316 88.5315 28.7825 87.3831 29.3136" stroke="#EBEBEB" stroke-width="2" stroke-linecap="round"/>
<path d="M30.56 102.595C31.1229 103.498 32.034 104 32.5745 105.168C33.1431 106.398 33.4944 106.653 34.432 107.402" stroke="#EBEBEB" stroke-width="2" stroke-linecap="round"/>
<path d="M44.6969 61.8351C44.1502 60.931 43.9075 63.5209 43.6735 64.2784C43.2798 65.5525 43.6582 66.4387 42.1915 67.1169C40.6608 67.8248 35.5453 68.7941 36.7055 71.3031" stroke="#EBEBEB" stroke-width="2" stroke-linecap="round"/>
<path d="M133.626 105.238C133.601 105.185 134.538 106.828 134.339 107.473C134.104 108.233 132.976 109.183 133.394 110.087C133.973 111.338 132.711 111.638 132.481 112.57C132.103 114.104 131.759 113.72 130.521 113.683" stroke="#EBEBEB" stroke-width="2" stroke-linecap="round"/>
<path d="M130.838 118.012C132.635 117.37 135.537 118.706 133.781 119.453C132.583 121.407 132.017 121.319 127.534 123.742C126.591 124.354 125.925 125.187 123.55 126.11C121.242 127.177 120.755 127.441 120.654 127.799C120.476 128.437 120.122 128.695 119.617 129.343C118.951 130.197 118.769 130.157 118.003 130.776C116.36 132.105 116.151 133.209 114.764 134.376C113.567 136.33 111.875 138.592 109.773 139.486C108.657 139.96 108.081 140.307 107.032 140.753C105.855 141.253 105.511 141.631 104.224 141.877C99.8809 143.722 99.1295 143.357 93.1942 144.155C92.2443 143.828 90.2189 143.503 89.2447 143.388C88.4568 143.295 86.486 142.135 85.7403 142.227C83.5691 142.497 82.56 141.056 80.4166 140.803C76.4974 140.341 73.7683 138.96 70.5172 137.15C69.0895 136.355 67.2007 136.208 65.8865 135.089C65.0835 134.405 62.903 132.324 62.0097 131.628C60.2812 130.281 57.3726 128.433 55.5166 127.433C53.8682 125.762 51.6469 124.967 49.5368 123.211C48.464 122.319 45.6333 121.343 44.5799 120.446C43.4518 119.486 42.1456 119.151 41.0048 118.306C37.819 115.947 34.9625 113.137 31.7628 110.644C30.4171 109.595 28.9222 108.344 27.9467 106.979C27.2633 106.023 29.3152 106.263 29.9956 106.538C30.8534 106.884 31.9023 107.63 32.581 108.263C34.3002 109.867 35.0367 111.983 37.451 112.813C39.8979 113.654 41.6516 115.508 43.9259 116.568C45.0194 117.077 46.548 117.639 47.7384 117.885C49.9214 118.336 51.6453 119.81 53.6978 120.639C56.5837 121.803 58.9663 123.649 62.1111 124.383C66.1973 125.337 70.5398 126.295 74.4346 127.867C76.183 128.573 77.7476 129.337 79.732 129.276C81.9853 129.206 90.1146 130.23 92.3366 130.689C100.094 132.292 102.831 131.188 110.529 129.451C115.299 128.375 116.836 123.79 121.405 121.849C122.256 121.487 124.856 119.602 125.733 119.847C126.42 120.039 130.162 118.253 130.838 118.012Z" fill="#CB4B64"/>
</svg>
