<svg width="318" height="283" viewBox="0 0 318 283" fill="none" xmlns="http://www.w3.org/2000/svg">
<path d="M255.189 82.3501C254.739 82.6305 255.234 83.9888 255.416 84.3833C255.787 85.1846 256.586 85.6988 257.24 86.2723C258.864 87.6949 260.773 88.6051 262.528 89.8858C263.279 90.4342 264.241 90.566 264.999 91.1191C265.825 91.7222 266.936 92.066 267.845 92.5353C269.321 93.2975 271.02 94.5742 271.937 95.9891C272.454 96.7861 273.188 97.4267 273.723 98.2521C274.335 99.1974 274.582 99.9959 274.979 100.997C275.81 103.092 275.965 105.185 276.912 107.232C278.112 109.828 279.667 112.162 280.873 114.772C281.307 115.709 281.234 117.494 280.911 118.45C280.454 119.807 281.095 121.93 281.683 123.202C283.009 126.069 284.077 129.767 283.538 132.864C283.302 134.221 282.747 135.783 282.125 137.002C281.382 138.46 281.668 139.631 281.45 141.195C281.2 142.992 281.539 144.668 281.504 146.45C281.466 148.392 281.036 150 280.562 151.862C280.187 153.337 278.372 154.979 277.445 156.168C276.286 157.653 275.365 159.05 273.848 160.207C272.422 161.296 270.514 161.827 269.181 162.96C267.84 164.098 265.836 164.377 264.487 165.54C262.136 167.566 260.521 170.419 258.509 172.766C256.314 175.324 253.232 176.455 250.155 177.566C248.459 178.178 246.013 178.794 244.191 178.911C241.763 179.068 239.595 178.612 237.208 178.339C234.96 178.083 232.82 176.921 230.609 176.401C229.498 176.14 228.432 175.682 227.362 175.289C226.25 174.88 224.914 174.815 223.865 174.292C222.671 173.696 221.499 173.04 220.263 172.526C219.148 172.062 218.181 171.816 217.288 170.972C215.462 169.246 213.444 167.351 211.379 165.929C206.907 162.853 202.241 160.067 197.616 157.206C192.65 154.134 187.506 150.444 185.061 144.955C183.925 142.406 183.347 139.1 183.684 136.325C184.043 133.358 182.913 130.37 183.14 127.442C183.34 124.856 183.778 122.767 185.287 120.668C186.659 118.758 188.942 117.526 190.245 115.576C191.56 113.61 191.529 111.379 191.424 109.105C191.36 107.729 191.482 106.353 191.469 104.979C191.454 103.288 192.18 102.11 192.761 100.579C194.023 97.26 196.4 95.1702 198.505 92.4191C200.066 90.3793 201.475 88.2545 203.219 86.3715C204.138 85.3788 204.717 84.2782 205.869 83.5094C207.81 82.2133 209.587 80.8662 211.704 79.8869C213.951 78.8479 216.147 77.8741 218.627 77.5304C220.775 77.2327 222.841 76.698 225.013 76.5835C227.326 76.4616 229.562 76.3393 231.871 76.3692C235.142 76.4116 238.637 76.8469 241.72 77.8866C243.614 78.5251 245.564 79.0326 247.545 79.1793C248.977 79.2854 250.193 80.1132 251.58 80.4549C252.311 80.635 252.998 80.8484 253.682 81.1463C254.54 81.5202 254.83 82.2958 255.513 82.7942C256.05 83.1861 256.33 84.3038 256.606 84.9021C256.898 85.533 257.673 86.4474 258.191 86.9017C258.892 87.5158 259.467 88.1124 260.249 88.6691C260.753 89.0278 261.435 89.179 261.716 89.786" stroke="#EBEBEB" stroke-width="2" stroke-linecap="round"/>
<path d="M190.582 115.79C190.496 115.521 191.992 114.558 192.268 114.298" stroke="#EBEBEB" stroke-width="2" stroke-linecap="round"/>
<path d="M194.631 112.73C193.358 113.319 192.326 114.857 191.157 115.749C190.773 116.042 189.929 116.751 189.815 117.214C189.773 117.383 190.689 116.032 191.064 115.805C191.703 115.418 192.016 114.703 192.75 114.313C193.078 114.138 193.374 113.714 193.629 113.444C193.871 113.188 192.92 113.689 192.712 113.974C192.232 114.631 191.313 115.022 190.757 115.656C190.31 116.168 189.843 116.899 189.275 117.332C188.611 117.838 188.137 118.582 187.505 119.127C186.796 119.738 186.703 120.715 187.592 119.602C188.26 118.765 189.046 118.085 189.837 117.376C190.478 116.8 191.228 116.077 190.058 116.97C187.761 118.723 182.474 125.689 184.437 123.569C185.008 122.952 185.319 121.895 186.067 121.442C186.626 121.104 187.334 120.133 187.715 119.611C188.19 118.961 188.637 118.347 189.25 117.819C189.642 117.48 190.663 116.533 190.895 116.068C191.567 114.721 193.599 113.896 194.488 112.677C194.86 112.168 195.755 111.687 195.967 111.109C196.034 110.928 194.272 112.106 194.061 112.268C193.806 112.462 191.912 113.275 192.892 112.822C193.456 112.561 195.133 111.875 195.38 111.38C195.58 110.98 194.111 111.783 193.787 111.932C193.322 112.147 191.95 113.127 191.815 112.263C191.766 111.946 192.396 111.493 192.396 111.493C192.396 111.493 191.926 112.101 191.895 112.464C191.832 113.19 190.858 114 192.101 113.425C192.887 113.061 193.468 112.555 194.24 112.198C194.918 111.885 192.884 112.825 192.207 113.138" stroke="#EBEBEB" stroke-width="2" stroke-linecap="round"/>
<path d="M264.438 165.034C265.538 164.526 266.043 163.176 266.552 162.156C266.811 161.636 267.713 159.864 267.506 159.339C267.117 158.349 266.333 159.084 265.707 158.93C265.294 158.828 263.961 158.953 265.299 158.933C266.186 158.92 266.098 159.034 265.384 159.145C264.903 159.22 264.215 158.754 263.755 158.935C263.494 159.037 262.165 159.315 263.078 159.01C263.748 158.786 264.516 158.877 265.204 158.727C265.964 158.561 266.023 158.769 266.121 159.398C266.208 159.953 265.602 160.567 265.659 160.483C265.896 160.134 265.477 158.866 265.332 159.261C265.235 159.525 266.021 160.751 266.152 161.034C266.573 161.946 265.75 163.952 264.844 164.371" stroke="#EBEBEB" stroke-width="2" stroke-linecap="round"/>
<path d="M266.527 159.791C266.411 159.54 266.56 159.216 266.4 159.031C266.145 158.735 265.999 159.071 266.354 159.159C266.534 159.203 267.756 159.854 267.204 159.94C266.744 160.012 267.126 158.624 266.446 158.588C264.976 158.509 267.131 159.035 266.828 159.414" stroke="#EBEBEB" stroke-width="2" stroke-linecap="round"/>
<path d="M209.75 148.506C210.196 149.221 211.316 149.838 211.664 150.591C212.195 151.739 212.559 152.446 213.521 153.178C214.405 153.851 215.712 152.122 216.621 152.576C217.025 152.777 217.564 152.63 217.967 152.917C218.385 153.214 219.03 153.892 218.294 153.109" stroke="#EBEBEB" stroke-width="2" stroke-linecap="round"/>
<path d="M260.854 105.391C261.313 106.383 261.79 108.397 262.973 108.688C264.25 109.003 264.342 110.736 264.489 111.683C264.723 113.177 265.579 113.966 266.688 114.811C267.606 115.51 268.742 117.459 267.883 118.535" stroke="#EBEBEB" stroke-width="2" stroke-linecap="round"/>
<path d="M263.727 159.194C264.339 159.087 264.953 159.265 265.525 159.475" stroke="#EBEBEB" stroke-width="2" stroke-linecap="round"/>
<path d="M263.418 159.129C263.608 159.065 263.867 159.277 264.021 159.371C264.214 159.489 264.456 159.472 264.63 159.611C264.938 159.857 265.336 160.119 265.508 160.491C265.83 161.186 266.227 161.909 265.851 162.661C265.528 163.31 264.995 163.821 264.741 164.511C264.632 164.807 264.365 165.088 264.174 165.348C263.977 165.619 263.759 165.891 263.543 166.162" stroke="#EBEBEB" stroke-width="2" stroke-linecap="round"/>
<path d="M205.419 83.8893C205.326 83.596 207.077 82.9475 207.34 82.8259C207.993 82.5237 208.695 82.0783 209.395 82.1387C209.802 82.1738 210.183 82.2904 210.597 82.2842C210.897 82.2797 211.435 82.4046 211.701 82.3C211.894 82.2241 212.421 82.0899 212.613 82.1854C212.919 82.3384 213.431 82.0263 213.708 81.8982C213.958 81.7824 214.518 81.7138 214.772 81.7764C214.91 81.8103 215.025 81.7747 215.179 81.8125C215.316 81.8463 215.498 81.9656 215.625 81.9765C215.773 81.9893 216.529 81.9472 216.588 82.0574C216.697 82.2607 216.752 82.2871 216.917 82.4315C217.064 82.5601 217.126 82.7553 217.279 82.8779C217.373 82.9531 217.965 83.1691 217.904 83.2907C217.844 83.41 217.861 83.5832 217.88 83.7016C217.905 83.8646 218.103 84.0466 217.978 84.221C217.843 84.4118 217.851 84.571 217.93 84.7697C217.962 84.8494 218.041 85.3566 218.029 85.4059C217.993 85.5522 218.13 85.8173 218.073 85.9316C217.872 86.3329 218.578 86.3807 218.732 86.5038" stroke="#EBEBEB" stroke-width="2" stroke-linecap="round"/>
<path d="M251.582 114.544C251.836 114.426 251.014 114.442 250.729 114.405C250.321 114.351 249.827 114.222 249.437 114.068C248.751 113.798 247.804 113.407 247.09 113.546C246.705 113.621 246.261 113.537 245.9 113.704C245.52 113.879 245.14 114.055 244.76 114.231C243.813 114.669 243.381 115.774 243.413 116.854C243.469 118.765 243.143 121.873 245.363 122.821C246.201 123.179 247.004 123.756 247.445 124.592C248.093 125.818 249.731 125.536 250.636 125.117C251.592 124.675 252.72 124.264 253.285 123.285C253.774 122.437 254.634 121.688 254.648 120.595C254.653 120.163 254.709 119.804 254.789 119.396C254.859 119.034 254.651 118.621 254.72 118.264C254.766 118.027 254.576 117.257 254.512 116.99C254.403 116.538 254.259 116.168 254.058 115.733C253.323 114.144 251.248 114.556 250.075 114.203C249.478 114.024 248.865 113.645 248.259 113.472C247.321 113.204 246.864 113.791 246.103 114.143" stroke="#EBEBEB" stroke-width="2" stroke-linecap="round"/>
<path d="M249.085 116.396C249.053 116.347 248.481 116.492 248.342 116.393C248.125 116.238 247.938 116.301 247.704 116.215C247.485 116.134 247.222 116.093 247.006 116.193C246.945 116.222 246.73 116.329 246.778 116.431C246.796 116.471 247.071 116.322 247.11 116.304C247.356 116.19 247.611 116.215 247.846 116.122C248.015 116.055 248.324 115.927 248.512 115.985C248.733 116.053 248.87 116.128 248.957 116.35C249.062 116.617 248.354 116.448 248.266 116.457" stroke="#EDEDED" stroke-width="2" stroke-linecap="round"/>
<path d="M273.81 132.104C273.96 132.034 273.486 132.068 273.323 132.057C273.089 132.041 272.808 131.988 272.588 131.92C272.2 131.799 271.666 131.623 271.25 131.717C271.026 131.768 270.772 131.738 270.559 131.837C270.334 131.94 270.109 132.044 269.885 132.148C269.325 132.407 269.043 133 269.028 133.566C269.002 134.567 268.719 136.208 269.97 136.638C270.442 136.8 270.888 137.078 271.117 137.503C271.453 138.127 272.406 137.929 272.941 137.681C273.506 137.42 274.169 137.17 274.525 136.639C274.833 136.179 275.352 135.76 275.394 135.185C275.41 134.959 275.453 134.768 275.511 134.552C275.563 134.36 275.456 134.149 275.506 133.96C275.54 133.834 275.454 133.436 275.425 133.298C275.377 133.064 275.304 132.874 275.202 132.652C274.827 131.841 273.617 132.121 272.951 131.971C272.612 131.895 272.271 131.715 271.927 131.643C271.393 131.531 271.112 131.853 270.662 132.061" stroke="#EBEBEB" stroke-width="2" stroke-linecap="round"/>
<path d="M272.44 133.537C272.421 133.506 272.077 133.591 271.992 133.53C271.86 133.433 271.748 133.471 271.606 133.416C271.474 133.365 271.315 133.339 271.185 133.399C271.148 133.416 271.02 133.48 271.049 133.543C271.06 133.568 271.225 133.478 271.248 133.467C271.396 133.399 271.55 133.416 271.692 133.36C271.793 133.32 271.978 133.243 272.092 133.28C272.226 133.324 272.309 133.37 272.363 133.507C272.428 133.672 272 133.563 271.947 133.569" stroke="#EDEDED" stroke-width="2" stroke-linecap="round"/>
<path d="M234.976 143.85C235.161 143.764 234.563 143.778 234.356 143.751C234.059 143.712 233.701 143.62 233.417 143.51C232.918 143.315 232.23 143.034 231.711 143.136C231.43 143.191 231.107 143.131 230.844 143.252C230.568 143.38 230.291 143.508 230.014 143.636C229.324 143.955 229.008 144.756 229.029 145.539C229.066 146.923 228.824 149.174 230.437 149.857C231.046 150.114 231.629 150.531 231.948 151.135C232.417 152.022 233.609 151.815 234.268 151.51C234.964 151.188 235.786 150.888 236.199 150.178C236.556 149.563 237.183 149.019 237.195 148.227C237.2 147.914 237.241 147.654 237.3 147.358C237.352 147.096 237.201 146.797 237.252 146.539C237.286 146.367 237.149 145.81 237.103 145.616C237.025 145.289 236.92 145.022 236.775 144.707C236.243 143.557 234.733 143.86 233.88 143.606C233.446 143.477 233.002 143.204 232.561 143.08C231.879 142.888 231.545 143.314 230.991 143.57" stroke="#EBEBEB" stroke-width="2" stroke-linecap="round"/>
<path d="M233.156 145.197C233.134 145.16 232.717 145.267 232.616 145.195C232.458 145.084 232.322 145.129 232.152 145.067C231.993 145.01 231.802 144.98 231.644 145.053C231.6 145.074 231.444 145.152 231.478 145.226C231.491 145.255 231.692 145.146 231.72 145.133C231.899 145.05 232.085 145.068 232.256 145C232.378 144.952 232.604 144.858 232.74 144.9C232.901 144.949 233 145.002 233.063 145.163C233.139 145.356 232.624 145.235 232.56 145.242" stroke="#EDEDED" stroke-width="2" stroke-linecap="round"/>
<path d="M252.024 144.421C252.209 144.336 251.644 144.419 251.452 144.424C251.177 144.433 250.851 144.409 250.597 144.363C250.152 144.282 249.538 144.16 249.036 144.298C248.765 144.373 248.469 144.368 248.206 144.49C247.929 144.618 247.653 144.745 247.377 144.873C246.688 145.192 246.292 145.818 246.216 146.389C246.081 147.399 245.576 149.08 247.012 149.382C247.553 149.496 248.051 149.73 248.278 150.134C248.611 150.727 249.759 150.429 250.418 150.124C251.112 149.803 251.923 149.482 252.399 148.911C252.811 148.416 253.468 147.94 253.577 147.358C253.62 147.128 253.691 146.932 253.782 146.708C253.863 146.51 253.758 146.309 253.838 146.113C253.891 145.983 253.83 145.591 253.81 145.455C253.777 145.225 253.712 145.042 253.613 144.828C253.253 144.051 251.794 144.458 251.022 144.377C250.629 144.336 250.244 144.19 249.844 144.153C249.225 144.096 248.859 144.449 248.305 144.705" stroke="#EBEBEB" stroke-width="2" stroke-linecap="round"/>
<path d="M250.512 146.437C250.489 146.401 250.072 146.507 249.971 146.436C249.814 146.324 249.677 146.37 249.507 146.308C249.348 146.25 249.157 146.221 249 146.294C248.955 146.314 248.799 146.393 248.833 146.466C248.847 146.495 249.047 146.387 249.075 146.374C249.255 146.291 249.44 146.309 249.611 146.241C249.734 146.192 249.959 146.098 250.096 146.14C250.256 146.189 250.356 146.243 250.419 146.403C250.495 146.597 249.98 146.475 249.916 146.483" stroke="#EDEDED" stroke-width="2" stroke-linecap="round"/>
<path d="M202.655 96.0967C202.817 96.0217 202.297 96.045 202.118 96.0271C201.861 96.0013 201.551 95.932 201.307 95.8458C200.878 95.6941 200.286 95.4742 199.833 95.5697C199.588 95.6212 199.309 95.578 199.078 95.6848C198.835 95.7972 198.592 95.9095 198.349 96.0219C197.743 96.302 197.452 96.9761 197.454 97.6276C197.458 98.7798 197.2 100.661 198.587 101.196C199.11 101.398 199.608 101.733 199.873 102.23C200.262 102.959 201.301 102.761 201.88 102.493C202.491 102.211 203.211 101.944 203.584 101.343C203.908 100.824 204.464 100.357 204.491 99.6971C204.501 99.4366 204.543 99.2188 204.6 98.9713C204.65 98.7521 204.525 98.5059 204.575 98.2897C204.608 98.1455 204.501 97.6845 204.465 97.5241C204.404 97.2533 204.319 97.0326 204.199 96.7731C203.761 95.8267 202.443 96.11 201.708 95.9166C201.333 95.8181 200.953 95.6 200.573 95.5056C199.984 95.3594 199.686 95.7216 199.199 95.9466" stroke="#EBEBEB" stroke-width="2" stroke-linecap="round"/>
<path d="M201.046 97.2566C201.027 97.2269 200.663 97.3242 200.576 97.2668C200.442 97.1771 200.322 97.2178 200.176 97.1699C200.039 97.125 199.874 97.1046 199.736 97.1687C199.697 97.1867 199.559 97.2553 199.587 97.316C199.598 97.3396 199.775 97.2451 199.799 97.2337C199.957 97.1608 200.118 97.1719 200.268 97.1117C200.375 97.0686 200.573 96.9858 200.691 97.0178C200.829 97.0553 200.914 97.0981 200.966 97.2304C201.028 97.3899 200.583 97.2996 200.527 97.307" stroke="#EDEDED" stroke-width="2" stroke-linecap="round"/>
<path d="M231.991 91.8021C232.182 91.7141 231.575 91.7468 231.366 91.7282C231.066 91.7016 230.705 91.6255 230.421 91.5293C229.922 91.3601 229.234 91.1143 228.703 91.2291C228.417 91.291 228.092 91.2445 227.821 91.3698C227.536 91.5016 227.251 91.6334 226.966 91.7652C226.256 92.0936 225.908 92.8709 225.903 93.6188C225.894 94.9417 225.572 97.1039 227.185 97.7025C227.793 97.9284 228.37 98.3074 228.674 98.8751C229.12 99.7076 230.336 99.4688 231.015 99.1548C231.731 98.8235 232.575 98.5086 233.017 97.8151C233.4 97.215 234.055 96.6732 234.094 95.9149C234.109 95.6156 234.16 95.3651 234.229 95.0804C234.291 94.828 234.148 94.5468 234.209 94.298C234.249 94.1321 234.129 93.6041 234.088 93.4203C234.02 93.11 233.924 92.8576 233.786 92.5611C233.286 91.4795 231.744 91.8197 230.888 91.6061C230.452 91.4973 230.01 91.2511 229.568 91.1471C228.882 90.986 228.53 91.4051 227.959 91.669" stroke="#EBEBEB" stroke-width="2" stroke-linecap="round"/>
<path d="M230.869 93.2395C230.844 93.2003 230.37 93.3255 230.257 93.2492C230.081 93.1299 229.926 93.1826 229.735 93.1182C229.556 93.0579 229.34 93.0298 229.16 93.113C229.109 93.1364 228.931 93.2257 228.968 93.3059C228.983 93.3371 229.212 93.214 229.244 93.1992C229.449 93.1045 229.658 93.1204 229.853 93.0423C229.993 92.9864 230.25 92.8789 230.404 92.922C230.585 92.9725 230.697 93.0296 230.765 93.2044C230.846 93.415 230.266 93.2925 230.193 93.3018" stroke="#EDEDED" stroke-width="2" stroke-linecap="round"/>
<path d="M218.11 115.975C218.321 115.878 217.621 115.853 217.376 115.804C217.024 115.734 216.597 115.59 216.257 115.428C215.658 115.142 214.831 114.731 214.228 114.827C213.903 114.878 213.52 114.778 213.219 114.917C212.903 115.063 212.587 115.209 212.272 115.355C211.484 115.719 211.169 116.732 211.248 117.744C211.387 119.534 211.258 122.425 213.199 123.418C213.931 123.793 214.644 124.371 215.062 125.174C215.673 126.352 217.058 126.167 217.81 125.819C218.605 125.451 219.548 125.121 219.983 124.232C220.36 123.463 221.059 122.804 221.018 121.782C221.002 121.378 221.032 121.045 221.08 120.667C221.123 120.333 220.925 119.936 220.968 119.606C220.996 119.386 220.796 118.657 220.729 118.404C220.614 117.976 220.473 117.623 220.28 117.206C219.577 115.685 217.825 115.971 216.807 115.585C216.289 115.388 215.748 115.005 215.222 114.814C214.408 114.518 214.047 115.045 213.414 115.338" stroke="#EBEBEB" stroke-width="2" stroke-linecap="round"/>
<path d="M216.067 117.588C216.038 117.54 215.557 117.648 215.433 117.549C215.24 117.394 215.084 117.443 214.88 117.352C214.689 117.266 214.463 117.215 214.283 117.298C214.232 117.322 214.055 117.412 214.1 117.51C214.117 117.548 214.345 117.422 214.377 117.407C214.582 117.312 214.801 117.348 214.997 117.272C215.138 117.218 215.395 117.112 215.559 117.176C215.751 117.25 215.871 117.327 215.956 117.538C216.059 117.793 215.446 117.601 215.371 117.606" stroke="#EDEDED" stroke-width="2" stroke-linecap="round"/>
<path d="M201.452 133.803C201.662 133.705 200.985 133.732 200.751 133.707C200.416 133.67 200.012 133.577 199.693 133.461C199.132 133.258 198.359 132.963 197.768 133.085C197.45 133.151 197.086 133.092 196.785 133.231C196.469 133.377 196.153 133.523 195.837 133.669C195.05 134.033 194.676 134.919 194.684 135.777C194.698 137.296 194.377 139.772 196.19 140.488C196.874 140.758 197.525 141.204 197.875 141.861C198.388 142.825 199.742 142.573 200.494 142.225C201.289 141.857 202.225 141.511 202.707 140.723C203.124 140.041 203.845 139.431 203.875 138.562C203.886 138.218 203.939 137.932 204.011 137.606C204.075 137.318 203.91 136.992 203.973 136.708C204.015 136.518 203.871 135.91 203.823 135.698C203.742 135.341 203.629 135.049 203.47 134.707C202.892 133.456 201.176 133.818 200.216 133.558C199.727 133.425 199.229 133.134 198.733 133.007C197.964 132.809 197.578 133.284 196.945 133.577" stroke="#EBEBEB" stroke-width="2" stroke-linecap="round"/>
<path d="M199.363 135.318C199.338 135.279 198.864 135.404 198.752 135.327C198.575 135.208 198.42 135.261 198.229 135.196C198.05 135.136 197.834 135.108 197.654 135.191C197.604 135.215 197.425 135.304 197.462 135.384C197.477 135.415 197.706 135.292 197.738 135.277C197.943 135.183 198.153 135.199 198.348 135.121C198.488 135.065 198.744 134.957 198.898 135C199.079 135.051 199.191 135.108 199.259 135.283C199.341 135.493 198.76 135.371 198.688 135.38" stroke="#EDEDED" stroke-width="2" stroke-linecap="round"/>
<path d="M241.559 158.916C239.577 159.833 244.038 161.19 244.549 161.378C245.763 161.824 245.613 160.807 246.654 160.581C247.679 160.357 248.27 159.611 249.263 159.151" stroke="#EBEBEB" stroke-width="2" stroke-linecap="round"/>
<path d="M215.211 82.105C214.631 82.2901 213.844 82.0152 213.212 82.3078C212.644 82.5701 211.798 82.7304 211.161 82.7109C210.831 82.7008 210.391 82.7025 210.088 82.7498C209.79 82.7963 209.364 83.0244 209.058 83.0017C208.503 82.9606 207.237 83.3124 206.79 83.6978C206.382 84.0491 205.704 84.6599 205.466 85.1358C205.319 85.4313 204.771 85.529 204.577 85.7958C204.355 86.0991 204.056 86.2918 203.772 86.5365C202.715 87.4481 201.496 88.2127 201.263 89.7098" stroke="#EBEBEB" stroke-width="2" stroke-linecap="round"/>
<path d="M211.076 81.4548C211.206 81.3735 211.157 81.1528 211.265 81.0596C211.412 80.9332 211.533 80.7756 211.697 80.6505C211.85 80.5338 211.898 80.2492 212.049 80.1682C212.165 80.1063 212.505 79.9379 212.222 80.0886C211.804 80.3106 211.47 80.5042 211.131 80.796C210.793 81.0875 210.596 81.532 210.15 81.4879C209.848 81.458 210.072 81.3963 210.236 81.3207C210.555 81.1731 210.873 81.205 211.16 80.9455C211.533 80.6079 212.078 80.287 212.52 80.0552C212.935 79.8373 213.25 79.414 213.612 79.1379C213.796 78.9974 214.576 78.8186 214.72 78.9334" stroke="#EBEBEB" stroke-width="2" stroke-linecap="round"/>
<path d="M244.89 85.6144C245.628 85.1541 242.217 83.1004 241.355 83.4991C240.236 84.0165 239.993 83.7465 238.977 83.3112C237.983 82.8853 237.453 83.2581 236.504 83.6972" stroke="#EBEBEB" stroke-width="2" stroke-linecap="round"/>
<path d="M189.523 144.286C189.988 145.032 190.742 145.447 191.189 146.413C191.659 147.43 191.949 147.64 192.724 148.26" stroke="#EBEBEB" stroke-width="2" stroke-linecap="round"/>
<path d="M201.211 110.586C200.759 109.838 200.559 111.979 200.365 112.606C200.04 113.659 200.353 114.392 199.14 114.953C197.874 115.538 193.645 116.339 194.604 118.414" stroke="#EBEBEB" stroke-width="2" stroke-linecap="round"/>
<path d="M274.736 146.47C274.716 146.426 275.491 147.785 275.326 148.319C275.132 148.947 274.2 149.733 274.545 150.479C275.023 151.514 273.98 151.762 273.79 152.533C273.478 153.8 273.193 153.484 272.17 153.452" stroke="#EBEBEB" stroke-width="2" stroke-linecap="round"/>
<path d="M112.074 140.422C111.887 140.918 113.104 141.697 113.488 141.9C114.269 142.312 115.216 142.236 116.084 142.295C118.238 142.44 120.308 142.005 122.48 141.959C123.41 141.939 124.255 141.46 125.193 141.44C126.215 141.418 127.307 141.017 128.314 140.838C129.95 140.549 132.075 140.533 133.662 141.101C134.557 141.421 135.529 141.485 136.455 141.816C137.515 142.196 138.196 142.681 139.119 143.236C141.05 144.397 142.444 145.966 144.438 147.019C146.968 148.354 149.62 149.266 152.163 150.608C153.076 151.09 154.101 152.554 154.425 153.509C154.884 154.865 156.682 156.164 157.921 156.818C160.715 158.293 163.808 160.584 165.258 163.373C165.894 164.595 166.401 166.173 166.646 167.519C166.94 169.129 167.878 169.886 168.654 171.262C169.546 172.841 170.832 173.968 171.886 175.406C173.034 176.972 173.667 178.512 174.421 180.28C175.017 181.679 174.572 184.086 174.555 185.594C174.535 187.476 174.651 189.146 174.147 190.987C173.674 192.717 172.48 194.297 172.108 196.007C171.733 197.725 170.308 199.163 169.942 200.906C169.303 203.942 169.75 207.19 169.575 210.276C169.383 213.642 167.619 216.411 165.847 219.16C164.87 220.677 163.3 222.65 161.923 223.849C160.088 225.447 158.088 226.4 156.025 227.632C154.083 228.792 151.677 229.166 149.604 230.095C148.562 230.562 147.437 230.844 146.348 231.181C145.216 231.531 144.115 232.29 142.964 232.511C141.652 232.762 140.323 232.951 139.029 233.292C137.861 233.601 136.943 233.992 135.721 233.863C133.222 233.599 130.469 233.316 127.964 233.44C122.543 233.707 117.144 234.325 111.732 234.857C105.92 235.428 99.5917 235.616 94.3177 232.737C91.869 231.4 89.4033 229.122 87.9869 226.713C86.4723 224.136 83.7608 222.447 82.1648 219.982C80.7549 217.805 79.8354 215.878 79.761 213.294C79.6933 210.944 80.7604 208.579 80.613 206.239C80.4643 203.878 79.0864 202.123 77.6228 200.38C76.7371 199.324 75.9993 198.158 75.1553 197.072C74.1172 195.737 73.9794 194.361 73.5131 192.791C72.5018 189.387 73.1229 186.284 73.1269 182.82C73.13 180.251 72.961 177.707 73.2046 175.152C73.333 173.806 73.1254 172.579 73.5741 171.27C74.3305 169.062 74.9255 166.913 76.0146 164.849C77.17 162.66 78.3246 160.554 80.0873 158.776C81.6141 157.236 82.9317 155.557 84.5892 154.148C86.3534 152.648 88.0567 151.194 89.9099 149.817C92.536 147.865 95.5779 146.091 98.6595 145.047C100.552 144.405 102.411 143.625 104.074 142.54C105.277 141.755 106.746 141.675 108.055 141.105C108.745 140.805 109.421 140.558 110.145 140.38C111.054 140.156 111.756 140.596 112.601 140.578C113.265 140.564 114.166 141.283 114.749 141.59C115.364 141.915 116.534 142.172 117.222 142.218C118.152 142.281 118.971 142.406 119.931 142.374C120.549 142.354 121.183 142.06 121.774 142.372" stroke="#EBEBEB" stroke-width="2" stroke-linecap="round"/>
<path d="M81.0103 206.205C80.7785 206.043 81.383 204.369 81.4448 203.996" stroke="#EBEBEB" stroke-width="2" stroke-linecap="round"/>
<path d="M82.372 201.315C81.7173 202.555 81.8303 204.404 81.4421 205.823C81.3146 206.289 81.0742 207.364 81.2646 207.802C81.3338 207.961 81.2419 206.332 81.4024 205.924C81.6761 205.228 81.4905 204.47 81.8369 203.715C81.9918 203.377 81.9696 202.86 82.0085 202.491C82.0455 202.14 81.5936 203.116 81.6011 203.468C81.6186 204.282 81.1254 205.15 81.0686 205.992C81.0228 206.67 81.0955 207.534 80.9069 208.223C80.6867 209.028 80.7612 209.907 80.5893 210.724C80.3966 211.64 80.9152 212.473 80.9466 211.048C80.9701 209.978 81.1823 208.961 81.3799 207.917C81.5402 207.071 81.6979 206.04 81.3096 207.46C80.5473 210.247 80.5716 218.992 80.8458 216.116C80.9255 215.279 80.5308 214.25 80.8512 213.436C81.0904 212.828 81.0638 211.627 81.0499 210.981C81.0326 210.176 81.0157 209.417 81.1821 208.626C81.2889 208.118 81.5255 206.746 81.4277 206.235C81.1447 204.757 82.2587 202.868 82.2263 201.36C82.2128 200.729 82.6323 199.804 82.4504 199.216C82.3935 199.032 81.7083 201.037 81.6383 201.293C81.5538 201.602 80.5408 203.398 81.0449 202.443C81.335 201.894 82.2522 200.33 82.1484 199.788C82.0643 199.348 81.3833 200.878 81.2171 201.193C80.978 201.646 80.4817 203.257 79.8505 202.653C79.6183 202.43 79.8449 201.688 79.8449 201.688C79.8449 201.688 79.8403 202.457 80.0356 202.764C80.4262 203.379 80.1429 204.614 80.7826 203.402C81.1868 202.636 81.3412 201.882 81.7384 201.129C82.087 200.469 81.0412 202.45 80.6925 203.111" stroke="#EBEBEB" stroke-width="2" stroke-linecap="round"/>
<path d="M169.596 200.534C170.162 199.462 169.744 198.083 169.53 196.963C169.421 196.392 169.063 194.437 168.579 194.144C167.67 193.594 167.493 194.654 166.901 194.911C166.511 195.081 165.528 195.989 166.579 195.161C167.276 194.613 167.275 194.757 166.775 195.278C166.439 195.63 165.608 195.677 165.353 196.099C165.207 196.339 164.32 197.366 164.86 196.571C165.257 195.986 165.922 195.591 166.378 195.055C166.882 194.462 167.055 194.592 167.515 195.032C167.92 195.421 167.811 196.276 167.806 196.175C167.783 195.754 166.68 194.999 166.804 195.402C166.887 195.67 168.256 196.168 168.531 196.314C169.42 196.783 169.983 198.877 169.517 199.76" stroke="#EBEBEB" stroke-width="2" stroke-linecap="round"/>
<path d="M168.076 195.098C167.831 194.969 167.753 194.621 167.514 194.571C167.132 194.491 167.219 194.846 167.554 194.7C167.724 194.626 169.091 194.402 168.704 194.806C168.383 195.142 167.844 193.807 167.281 194.191C166.065 195.02 168.097 194.13 168.087 194.616" stroke="#EBEBEB" stroke-width="2" stroke-linecap="round"/>
<path d="M116.098 220.579C116.886 220.877 118.151 220.687 118.884 221.074C120.003 221.665 120.721 222.006 121.929 222.004C123.041 222.003 123.031 219.835 124.029 219.644C124.472 219.559 124.811 219.115 125.305 219.099C125.818 219.082 126.742 219.229 125.682 219.054" stroke="#EBEBEB" stroke-width="2" stroke-linecap="round"/>
<path d="M130.558 155.299C131.525 155.809 133.125 157.12 134.242 156.634C135.449 156.109 136.573 157.432 137.265 158.094C138.357 159.141 139.517 159.248 140.911 159.246C142.065 159.245 144.15 160.105 144.12 161.482" stroke="#EBEBEB" stroke-width="2" stroke-linecap="round"/>
<path d="M165.488 196.323C165.909 195.866 166.505 195.635 167.088 195.455" stroke="#EBEBEB" stroke-width="2" stroke-linecap="round"/>
<path d="M165.203 196.458C165.315 196.292 165.649 196.303 165.829 196.285C166.054 196.262 166.236 196.101 166.459 196.106C166.852 196.114 167.328 196.081 167.691 196.272C168.368 196.63 169.122 196.963 169.28 197.789C169.416 198.501 169.303 199.231 169.52 199.933C169.613 200.235 169.571 200.62 169.578 200.943C169.585 201.278 169.577 201.626 169.569 201.973" stroke="#EBEBEB" stroke-width="2" stroke-linecap="round"/>
<path d="M73.4473 171.844C73.195 171.668 74.1932 170.09 74.3284 169.834C74.6645 169.197 74.952 168.417 75.545 168.041C75.8902 167.821 76.264 167.683 76.5892 167.427C76.8249 167.241 77.3281 167.014 77.4761 166.77C77.5837 166.592 77.9212 166.165 78.1313 166.125C78.4677 166.061 78.6851 165.502 78.8275 165.232C78.9564 164.988 79.3597 164.594 79.5996 164.49C79.7296 164.433 79.7998 164.335 79.9447 164.272C80.0743 164.215 80.291 164.2 80.3988 164.131C80.524 164.052 81.0997 163.56 81.2135 163.611C81.4234 163.707 81.4834 163.694 81.702 163.709C81.8967 163.722 82.0644 163.84 82.2609 163.844C82.3813 163.847 82.9822 163.66 83.0078 163.793C83.0329 163.924 83.1512 164.052 83.2377 164.135C83.3569 164.249 83.6244 164.274 83.6315 164.487C83.6394 164.721 83.7428 164.843 83.926 164.953C83.9995 164.997 84.3707 165.352 84.3909 165.398C84.4511 165.537 84.7204 165.665 84.7444 165.79C84.8287 166.23 85.4184 165.84 85.6156 165.845" stroke="#EBEBEB" stroke-width="2" stroke-linecap="round"/>
<path d="M128.741 168.2C128.872 167.953 128.228 168.464 127.979 168.607C127.622 168.812 127.151 169.009 126.748 169.124C126.039 169.325 125.049 169.59 124.565 170.133C124.305 170.426 123.901 170.629 123.715 170.981C123.519 171.351 123.324 171.721 123.129 172.091C122.641 173.014 122.969 174.154 123.65 174.994C124.854 176.479 126.48 179.147 128.82 178.553C129.703 178.329 130.692 178.301 131.55 178.698C132.809 179.279 133.939 178.061 134.405 177.179C134.896 176.248 135.544 175.236 135.399 174.115C135.273 173.145 135.503 172.027 134.85 171.15C134.592 170.803 134.419 170.484 134.234 170.111C134.071 169.781 133.654 169.579 133.493 169.254C133.386 169.037 132.768 168.541 132.554 168.367C132.194 168.074 131.855 167.867 131.43 167.643C129.883 166.826 128.483 168.413 127.337 168.844C126.753 169.064 126.036 169.135 125.45 169.365C124.541 169.721 124.534 170.465 124.143 171.207" stroke="#EBEBEB" stroke-width="2" stroke-linecap="round"/>
<path d="M127.88 171.188C127.825 171.168 127.458 171.63 127.288 171.636C127.021 171.645 126.91 171.808 126.672 171.882C126.45 171.951 126.216 172.077 126.105 172.288C126.073 172.348 125.968 172.563 126.068 172.616C126.106 172.636 126.235 172.351 126.254 172.313C126.381 172.073 126.599 171.938 126.73 171.722C126.823 171.566 126.991 171.277 127.175 171.209C127.392 171.129 127.547 171.105 127.75 171.228C127.996 171.377 127.33 171.672 127.267 171.734" stroke="#EDEDED" stroke-width="2" stroke-linecap="round"/>
<path d="M157.065 168.671C157.142 168.524 156.785 168.839 156.649 168.929C156.453 169.059 156.198 169.187 155.982 169.266C155.6 169.405 155.069 169.59 154.795 169.917C154.648 170.094 154.428 170.224 154.318 170.432C154.203 170.65 154.087 170.869 153.972 171.088C153.684 171.633 153.819 172.276 154.151 172.735C154.737 173.547 155.508 175.023 156.763 174.605C157.237 174.447 157.76 174.398 158.2 174.597C158.846 174.889 159.483 174.153 159.758 173.632C160.049 173.081 160.424 172.48 160.385 171.842C160.351 171.29 160.509 170.641 160.193 170.16C160.069 169.97 159.988 169.792 159.902 169.585C159.827 169.401 159.614 169.298 159.539 169.117C159.49 168.996 159.18 168.733 159.073 168.64C158.893 168.484 158.72 168.377 158.504 168.262C157.713 167.845 156.921 168.801 156.302 169.087C155.986 169.232 155.605 169.296 155.288 169.448C154.796 169.682 154.768 170.109 154.537 170.547" stroke="#EBEBEB" stroke-width="2" stroke-linecap="round"/>
<path d="M156.845 170.641C156.812 170.628 156.59 170.905 156.485 170.907C156.322 170.911 156.255 171.009 156.109 171.052C155.973 171.092 155.831 171.167 155.764 171.293C155.745 171.329 155.682 171.458 155.743 171.491C155.767 171.503 155.844 171.332 155.856 171.309C155.932 171.165 156.065 171.085 156.143 170.955C156.199 170.862 156.3 170.688 156.413 170.648C156.546 170.602 156.64 170.588 156.766 170.664C156.918 170.756 156.511 170.93 156.473 170.966" stroke="#EDEDED" stroke-width="2" stroke-linecap="round"/>
<path d="M133.324 201.571C133.419 201.391 132.952 201.764 132.771 201.868C132.512 202.018 132.171 202.163 131.878 202.247C131.364 202.395 130.646 202.589 130.295 202.985C130.105 203.199 129.812 203.347 129.677 203.603C129.535 203.873 129.392 204.142 129.25 204.412C128.895 205.084 129.13 205.913 129.622 206.522C130.491 207.6 131.664 209.536 133.36 209.1C134.001 208.935 134.717 208.913 135.338 209.199C136.249 209.62 137.07 208.731 137.409 208.089C137.767 207.411 138.238 206.674 138.135 205.859C138.046 205.154 138.215 204.341 137.743 203.704C137.558 203.452 137.433 203.22 137.3 202.95C137.182 202.71 136.881 202.564 136.765 202.327C136.687 202.17 136.24 201.811 136.086 201.685C135.826 201.472 135.58 201.323 135.273 201.161C134.154 200.57 133.137 201.726 132.305 202.042C131.882 202.203 131.363 202.256 130.937 202.425C130.278 202.686 130.272 203.227 129.987 203.767" stroke="#EBEBEB" stroke-width="2" stroke-linecap="round"/>
<path d="M132.694 203.746C132.654 203.731 132.388 204.068 132.264 204.073C132.071 204.08 131.99 204.198 131.818 204.252C131.656 204.303 131.487 204.396 131.406 204.549C131.383 204.593 131.306 204.75 131.378 204.788C131.406 204.802 131.5 204.594 131.514 204.567C131.606 204.392 131.765 204.294 131.86 204.136C131.927 204.023 132.05 203.812 132.184 203.762C132.341 203.704 132.453 203.686 132.6 203.775C132.778 203.883 132.295 204.099 132.249 204.144" stroke="#EDEDED" stroke-width="2" stroke-linecap="round"/>
<path d="M147.222 191.68C147.317 191.501 146.918 191.909 146.769 192.03C146.555 192.204 146.282 192.383 146.052 192.5C145.648 192.706 145.087 192.982 144.772 193.396C144.602 193.62 144.363 193.796 144.228 194.052C144.086 194.322 143.944 194.591 143.802 194.86C143.448 195.531 143.513 196.269 143.799 196.77C144.304 197.654 144.923 199.296 146.247 198.666C146.747 198.428 147.285 198.312 147.711 198.495C148.335 198.764 149.066 197.83 149.405 197.189C149.762 196.512 150.212 195.765 150.244 195.022C150.271 194.379 150.505 193.602 150.238 193.073C150.132 192.864 150.07 192.665 150.007 192.432C149.951 192.225 149.745 192.129 149.69 191.925C149.653 191.79 149.367 191.515 149.269 191.419C149.103 191.256 148.939 191.15 148.732 191.04C147.974 190.641 147.061 191.85 146.398 192.254C146.061 192.459 145.666 192.577 145.326 192.79C144.799 193.12 144.722 193.624 144.438 194.163" stroke="#EBEBEB" stroke-width="2" stroke-linecap="round"/>
<path d="M147.242 194.201C147.203 194.186 146.936 194.523 146.812 194.528C146.619 194.535 146.538 194.654 146.366 194.708C146.204 194.758 146.035 194.851 145.954 195.004C145.931 195.048 145.854 195.205 145.926 195.243C145.954 195.257 146.048 195.049 146.062 195.022C146.155 194.847 146.313 194.749 146.408 194.591C146.476 194.478 146.598 194.267 146.732 194.217C146.889 194.159 147.001 194.141 147.148 194.23C147.326 194.338 146.843 194.554 146.797 194.599" stroke="#EDEDED" stroke-width="2" stroke-linecap="round"/>
<path d="M78.6569 183.225C78.7404 183.067 78.3415 183.401 78.188 183.495C77.968 183.631 77.6799 183.764 77.4337 183.843C77.0006 183.983 76.3967 184.167 76.0942 184.518C75.9311 184.708 75.6829 184.843 75.5641 185.068C75.4391 185.305 75.3142 185.541 75.1892 185.778C74.8777 186.368 75.0552 187.081 75.4521 187.598C76.154 188.511 77.0904 190.163 78.5175 189.746C79.056 189.589 79.6549 189.554 80.1672 189.788C80.9187 190.131 81.625 189.343 81.9227 188.779C82.237 188.184 82.647 187.535 82.5795 186.831C82.521 186.222 82.6802 185.514 82.3009 184.973C82.1512 184.76 82.0521 184.561 81.9471 184.33C81.8542 184.125 81.6057 184.005 81.514 183.803C81.4529 183.668 81.0878 183.367 80.9618 183.261C80.7491 183.083 80.5474 182.959 80.2947 182.826C79.3725 182.339 78.4967 183.364 77.795 183.657C77.4377 183.805 77.0028 183.863 76.6435 184.019C76.087 184.259 76.0695 184.728 75.8192 185.203" stroke="#EBEBEB" stroke-width="2" stroke-linecap="round"/>
<path d="M78.0816 185.123C78.0487 185.111 77.8182 185.41 77.7149 185.416C77.5534 185.427 77.4834 185.531 77.3379 185.582C77.2019 185.629 77.0582 185.714 76.987 185.848C76.9669 185.886 76.8995 186.024 76.9586 186.055C76.9816 186.068 77.0646 185.885 77.0772 185.861C77.1583 185.708 77.2927 185.619 77.3755 185.48C77.4348 185.381 77.5415 185.195 77.6546 185.149C77.7874 185.095 77.8812 185.077 78.0023 185.151C78.1483 185.24 77.7401 185.438 77.7003 185.478" stroke="#EDEDED" stroke-width="2" stroke-linecap="round"/>
<path d="M99.3702 162.011C99.468 161.825 99.0055 162.22 98.828 162.332C98.5734 162.492 98.2406 162.651 97.9566 162.747C97.4572 162.915 96.7608 163.137 96.4088 163.55C96.219 163.773 95.9321 163.934 95.7927 164.198C95.6462 164.475 95.4996 164.753 95.353 165.031C94.9878 165.723 95.183 166.552 95.6328 167.149C96.4283 168.206 97.4842 170.12 99.1295 169.617C99.7505 169.428 100.439 169.379 101.025 169.646C101.885 170.037 102.706 169.109 103.055 168.448C103.424 167.75 103.903 166.988 103.834 166.168C103.775 165.458 103.966 164.631 103.537 164.004C103.367 163.757 103.256 163.527 103.138 163.259C103.034 163.021 102.75 162.884 102.647 162.649C102.578 162.493 102.162 162.146 102.019 162.025C101.777 161.819 101.546 161.677 101.257 161.525C100.204 160.969 99.1843 162.175 98.3742 162.524C97.9617 162.702 97.4611 162.775 97.0463 162.961C96.4037 163.248 96.3778 163.796 96.0843 164.352" stroke="#EBEBEB" stroke-width="2" stroke-linecap="round"/>
<path d="M99.3499 163.834C99.3065 163.818 99.0056 164.205 98.8697 164.213C98.6571 164.225 98.5658 164.361 98.3747 164.426C98.196 164.487 98.0075 164.595 97.9149 164.771C97.8889 164.82 97.8013 164.999 97.8794 165.041C97.9098 165.057 98.0174 164.82 98.0339 164.788C98.1392 164.589 98.3155 164.474 98.4233 164.294C98.5005 164.165 98.6393 163.923 98.7879 163.864C98.9622 163.795 99.0856 163.772 99.2458 163.87C99.4387 163.988 98.903 164.242 98.8509 164.294" stroke="#EDEDED" stroke-width="2" stroke-linecap="round"/>
<path d="M103.004 189.648C103.113 189.442 102.541 189.848 102.316 189.958C101.995 190.115 101.568 190.26 101.198 190.338C100.549 190.474 99.6423 190.649 99.221 191.091C98.9938 191.329 98.6286 191.482 98.4742 191.775C98.3117 192.082 98.1492 192.39 97.9868 192.698C97.5818 193.465 97.9456 194.462 98.6224 195.218C99.8194 196.556 101.471 198.932 103.616 198.544C104.426 198.398 105.344 198.425 106.162 198.81C107.363 199.375 108.351 198.388 108.738 197.654C109.147 196.88 109.696 196.045 109.503 195.075C109.336 194.235 109.491 193.287 108.838 192.499C108.581 192.188 108.403 191.905 108.212 191.575C108.043 191.283 107.645 191.088 107.478 190.8C107.367 190.608 106.766 190.15 106.559 189.99C106.208 189.719 105.882 189.524 105.476 189.31C103.994 188.528 102.775 189.818 101.731 190.128C101.2 190.287 100.537 190.31 100.004 190.477C99.177 190.736 99.2096 191.375 98.8842 191.991" stroke="#EBEBEB" stroke-width="2" stroke-linecap="round"/>
<path d="M102.359 192.17C102.307 192.149 101.989 192.528 101.831 192.524C101.584 192.517 101.489 192.652 101.271 192.702C101.068 192.75 100.857 192.847 100.765 193.022C100.739 193.071 100.652 193.251 100.747 193.301C100.784 193.321 100.889 193.082 100.905 193.051C101.011 192.852 101.207 192.747 101.316 192.568C101.395 192.44 101.536 192.199 101.704 192.151C101.902 192.093 102.044 192.081 102.24 192.198C102.476 192.338 101.873 192.557 101.816 192.606" stroke="#EDEDED" stroke-width="2" stroke-linecap="round"/>
<path d="M100.58 213.927C100.688 213.721 100.166 214.153 99.9647 214.275C99.6762 214.45 99.2979 214.621 98.9745 214.722C98.4055 214.901 97.6119 215.136 97.2167 215.591C97.0036 215.837 96.678 216.011 96.5235 216.303C96.3611 216.611 96.1986 216.919 96.0361 217.227C95.6312 217.994 95.8713 218.925 96.3984 219.603C97.3308 220.801 98.5784 222.964 100.454 222.433C101.162 222.233 101.95 222.192 102.626 222.502C103.619 222.957 104.542 221.935 104.929 221.202C105.338 220.428 105.872 219.585 105.777 218.666C105.694 217.871 105.898 216.949 105.393 216.239C105.194 215.959 105.062 215.7 104.922 215.397C104.798 215.129 104.469 214.97 104.347 214.706C104.265 214.53 103.782 214.133 103.615 213.994C103.333 213.76 103.067 213.597 102.733 213.42C101.514 212.777 100.37 214.107 99.4485 214.482C98.9794 214.673 98.4072 214.744 97.9355 214.944C97.2049 215.253 97.186 215.865 96.8606 216.481" stroke="#EBEBEB" stroke-width="2" stroke-linecap="round"/>
<path d="M99.839 216.398C99.7955 216.382 99.4947 216.769 99.3587 216.777C99.1461 216.789 99.0548 216.925 98.8638 216.99C98.6851 217.051 98.4965 217.159 98.404 217.334C98.3779 217.384 98.2903 217.563 98.3685 217.604C98.3988 217.62 98.5065 217.383 98.523 217.352C98.6283 217.153 98.8046 217.038 98.9123 216.858C98.9895 216.728 99.1284 216.487 99.277 216.428C99.4513 216.358 99.5747 216.336 99.7348 216.434C99.9277 216.551 99.392 216.806 99.34 216.857" stroke="#EDEDED" stroke-width="2" stroke-linecap="round"/>
<path d="M147.698 209.553C146.679 211.484 151.049 209.856 151.569 209.695C152.804 209.313 152.068 208.596 152.758 207.784C153.438 206.984 153.454 206.032 153.965 205.065" stroke="#EBEBEB" stroke-width="2" stroke-linecap="round"/>
<path d="M80.1477 164.485C79.7989 164.984 79.007 165.243 78.6817 165.859C78.39 166.412 77.8145 167.053 77.2961 167.424C77.0276 167.616 76.6794 167.884 76.4672 168.106C76.2586 168.323 76.0579 168.763 75.8011 168.931C75.3346 169.235 74.542 170.283 74.4205 170.86C74.3097 171.387 74.141 172.284 74.241 172.807C74.303 173.131 73.9272 173.541 73.9343 173.871C73.9423 174.247 73.8217 174.581 73.7445 174.948C73.4571 176.314 72.9524 177.661 73.675 178.993" stroke="#EBEBEB" stroke-width="2" stroke-linecap="round"/>
<path d="M76.4666 166.477C76.5209 166.333 76.3476 166.188 76.377 166.048C76.4168 165.859 76.418 165.66 76.4724 165.461C76.5232 165.275 76.3887 165.02 76.4596 164.864C76.5139 164.744 76.6821 164.404 76.5482 164.696C76.351 165.126 76.2029 165.482 76.1109 165.92C76.019 166.356 76.1321 166.829 75.7508 167.065C75.4924 167.225 75.633 167.04 75.7172 166.88C75.8813 166.569 76.154 166.401 76.2243 166.021C76.3157 165.527 76.5545 164.941 76.7651 164.488C76.9631 164.063 76.9563 163.536 77.0763 163.097C77.1374 162.873 77.649 162.258 77.8329 162.262" stroke="#EBEBEB" stroke-width="2" stroke-linecap="round"/>
<path d="M105.868 149.266C106.176 148.452 102.219 148.889 101.775 149.729C101.2 150.819 100.842 150.753 99.7704 151.023C98.722 151.288 98.5272 151.905 98.039 152.83" stroke="#EBEBEB" stroke-width="2" stroke-linecap="round"/>
<path d="M97.4588 229.497C98.2817 229.808 99.132 229.681 100.074 230.178C101.064 230.7 101.423 230.692 102.415 230.714" stroke="#EBEBEB" stroke-width="2" stroke-linecap="round"/>
<path d="M86.3012 195.618C85.4883 195.298 86.6281 197.122 86.8543 197.737C87.2348 198.772 87.928 199.164 87.3044 200.346C86.6535 201.579 83.7779 204.782 85.7992 205.849" stroke="#EBEBEB" stroke-width="2" stroke-linecap="round"/>
<path d="M166.518 179.528C166.476 179.506 167.916 180.116 168.109 180.64C168.335 181.257 168.071 182.447 168.799 182.831C169.807 183.363 169.128 184.194 169.445 184.922C169.966 186.119 169.547 186.039 168.715 186.636" stroke="#EBEBEB" stroke-width="2" stroke-linecap="round"/>
<path d="M54.1645 45.6835C54.3491 46.1803 55.7789 45.9679 56.2021 45.8682C57.0614 45.6658 57.7252 44.9863 58.4182 44.4599C60.1374 43.1541 61.4118 41.4658 63.0182 40.0035C63.706 39.3774 64.028 38.4612 64.7217 37.8298C65.4782 37.1411 66.0376 36.1218 66.6796 35.3252C67.7222 34.0316 69.3134 32.6233 70.8833 32.0085C71.7677 31.6622 72.5424 31.0712 73.4583 30.7126C74.5072 30.3018 75.3389 30.2204 76.3998 30.0319C78.618 29.6377 80.6999 29.9051 82.8949 29.388C85.6788 28.7321 88.2774 27.6769 91.0758 27.0176C92.0808 26.7808 93.8155 27.2105 94.6872 27.7177C95.9249 28.4379 98.1331 28.2353 99.497 27.914C102.572 27.1895 106.409 26.8842 109.335 28.0334C110.617 28.5367 112.036 29.3929 113.106 30.2468C114.385 31.2672 115.59 31.2215 117.079 31.7481C118.789 32.3531 120.499 32.3567 122.238 32.7483C124.133 33.1748 125.622 33.9189 127.352 34.7563C128.721 35.4193 129.967 37.5261 130.945 38.6732C132.167 40.1054 133.352 41.288 134.182 43.0066C134.962 44.6217 135.101 46.5975 135.943 48.1307C136.79 49.6725 136.661 51.6918 137.53 53.2467C139.043 55.9551 141.515 58.1091 143.411 60.5512C145.478 63.2139 145.968 66.4603 146.44 69.6972C146.7 71.4824 146.813 74.0014 146.563 75.8103C146.23 78.2205 145.348 80.2532 144.602 82.5373C143.901 84.688 142.334 86.5512 141.381 88.6136C140.902 89.6501 140.241 90.602 139.641 91.5716C139.017 92.5792 138.686 93.8755 137.964 94.7977C137.14 95.8488 136.262 96.8649 135.511 97.9727C134.834 98.9725 134.398 99.8707 133.392 100.577C131.336 102.02 129.075 103.616 127.268 105.355C123.357 109.119 119.694 113.132 115.964 117.09C111.959 121.339 107.312 125.64 101.444 126.936C98.7202 127.537 95.3648 127.441 92.714 126.555C89.8791 125.609 86.7249 126.117 83.9023 125.308C81.4087 124.593 79.4496 123.745 77.6956 121.846C76.1 120.119 75.3505 117.636 73.7013 115.968C72.0379 114.287 69.8461 113.869 67.5971 113.517C66.236 113.303 64.9132 112.909 63.5637 112.645C61.9041 112.321 60.8959 111.375 59.5128 110.498C56.5136 108.596 54.9424 105.849 52.6691 103.235C50.9835 101.297 49.1842 99.4906 47.689 97.4048C46.9006 96.3052 45.9384 95.5173 45.416 94.2353C44.5352 92.0739 43.5714 90.0631 43.0364 87.7921C42.4688 85.3827 41.9548 83.0363 42.1152 80.5376C42.254 78.3736 42.1441 76.2424 42.4674 74.091C42.8115 71.801 43.1398 69.5856 43.6318 67.3299C44.3289 64.1332 45.4557 60.7968 47.0922 57.9846C48.0973 56.2573 48.9855 54.4478 49.5261 52.5368C49.9172 51.1547 50.9718 50.1295 51.5846 48.8393C51.9074 48.1596 52.2543 47.5287 52.683 46.9188C53.2214 46.153 54.0394 46.024 54.6646 45.455C55.1561 45.0075 56.3073 44.9572 56.9489 44.806C57.6254 44.6466 58.6765 44.0712 59.2255 43.6542C59.9676 43.0906 60.6673 42.6469 61.3695 41.9921C61.8219 41.5702 62.1068 40.9322 62.7577 40.7788" stroke="#EBEBEB" stroke-width="2" stroke-linecap="round"/>
<path d="M73.9784 115.682C73.6972 115.712 73.0531 114.053 72.8541 113.731" stroke="#EBEBEB" stroke-width="2" stroke-linecap="round"/>
<path d="M71.7915 111.101C72.1131 112.466 73.4131 113.785 74.053 115.11C74.2633 115.545 74.7887 116.514 75.2197 116.718C75.3764 116.793 74.2364 115.625 74.0894 115.212C73.8388 114.508 73.2002 114.058 72.9652 113.261C72.8601 112.905 72.5035 112.53 72.2905 112.226C72.0878 111.938 72.388 112.97 72.6256 113.231C73.1735 113.833 73.3724 114.811 73.8823 115.483C74.2935 116.024 74.9159 116.627 75.2267 117.271C75.5899 118.022 76.2235 118.636 76.6309 119.365C77.0875 120.182 78.0259 120.469 77.1132 119.374C76.4277 118.552 75.9191 117.646 75.3823 116.729C74.9469 115.986 74.3887 115.106 75.0289 116.431C76.2858 119.033 82.0509 125.609 80.3674 123.26C79.8777 122.577 78.904 122.061 78.6106 121.237C78.3915 120.622 77.582 119.734 77.1468 119.256C76.6049 118.66 76.0933 118.099 75.6988 117.393C75.4457 116.941 74.7226 115.751 74.3131 115.43C73.1283 114.502 72.7266 112.346 71.7113 111.23C71.2867 110.764 70.9951 109.791 70.4711 109.467C70.3072 109.366 71.1087 111.328 71.2243 111.567C71.3636 111.855 71.7803 113.875 71.5326 112.823C71.3901 112.219 71.0541 110.437 70.6195 110.097C70.2672 109.821 70.7592 111.421 70.8408 111.768C70.9583 112.266 71.6432 113.807 70.77 113.766C70.4488 113.751 70.1318 113.043 70.1318 113.043C70.1318 113.043 70.6334 113.625 70.9827 113.729C71.681 113.935 72.2793 115.052 71.9651 113.719C71.7666 112.876 71.3871 112.206 71.192 111.377C71.0207 110.651 71.5345 112.831 71.7057 113.558" stroke="#EBEBEB" stroke-width="2" stroke-linecap="round"/>
<path d="M137.025 53.1933C136.747 52.0135 135.526 51.2485 134.628 50.5452C134.171 50.1866 132.616 48.9485 132.06 49.0456C131.012 49.2282 131.575 50.1438 131.299 50.7265C131.116 51.1107 130.972 52.4418 131.22 51.1265C131.385 50.2553 131.479 50.3644 131.445 51.086C131.422 51.5718 130.827 52.1532 130.912 52.6393C130.96 52.9161 130.966 54.2731 130.851 53.3185C130.765 52.6166 131.008 51.8822 130.999 51.1787C130.989 50.4 131.205 50.3844 131.84 50.4142C132.402 50.4406 132.881 51.1567 132.811 51.0842C132.517 50.7821 131.19 50.9383 131.548 51.16C131.787 51.3076 133.146 50.7836 133.449 50.7122C134.427 50.4818 136.228 51.691 136.457 52.6624" stroke="#EBEBEB" stroke-width="2" stroke-linecap="round"/>
<path d="M132.307 50.0951C132.038 50.1585 131.75 49.9481 131.537 50.0672C131.196 50.2578 131.496 50.4688 131.652 50.1385C131.732 49.9707 132.615 48.904 132.589 49.4625C132.567 49.9267 131.284 49.2751 131.112 49.9335C130.74 51.3576 131.687 49.3518 131.998 49.7247" stroke="#EBEBEB" stroke-width="2" stroke-linecap="round"/>
<path d="M109.872 103.459C110.662 103.166 111.491 102.191 112.298 102.001C113.529 101.711 114.295 101.496 115.204 100.701C116.041 99.9696 114.609 98.3422 115.236 97.5426C115.514 97.1875 115.478 96.6302 115.84 96.2925C116.215 95.943 117.008 95.4465 116.094 96.0111" stroke="#EBEBEB" stroke-width="2" stroke-linecap="round"/>
<path d="M77.8733 44.7509C78.9376 44.5001 81.0055 44.4363 81.5281 43.336C82.0924 42.1476 83.8093 42.4052 84.7659 42.4501C86.2771 42.5211 87.2214 41.8401 88.271 40.9227C89.1398 40.1634 91.2772 39.4411 92.1593 40.4991" stroke="#EBEBEB" stroke-width="2" stroke-linecap="round"/>
<path d="M131.161 52.7191C131.178 52.0979 131.476 51.532 131.796 51.0136" stroke="#EBEBEB" stroke-width="2" stroke-linecap="round"/>
<path d="M131.035 53.0082C131.011 52.8101 131.269 52.5987 131.393 52.4663C131.548 52.3009 131.579 52.0602 131.75 51.9176C132.052 51.6655 132.389 51.3278 132.788 51.2337C133.533 51.0581 134.321 50.8138 134.983 51.3324C135.554 51.7796 135.948 52.4043 136.573 52.7911C136.841 52.9572 137.063 53.2754 137.28 53.5141C137.505 53.7617 137.728 54.0295 137.95 54.2961" stroke="#EBEBEB" stroke-width="2" stroke-linecap="round"/>
<path d="M45.698 94.7517C45.392 94.7845 45.1075 92.9392 45.0411 92.6573C44.876 91.9565 44.5802 91.1797 44.7796 90.5061C44.8957 90.114 45.0863 89.7638 45.1632 89.357C45.219 89.0623 45.4491 88.5606 45.4 88.2789C45.3643 88.0744 45.3384 87.5311 45.4704 87.3627C45.6816 87.0931 45.4785 86.5293 45.4085 86.2323C45.3452 85.9636 45.3902 85.4015 45.5024 85.1651C45.5632 85.0371 45.5515 84.9168 45.6193 84.7741C45.6799 84.6464 45.8331 84.4924 45.8694 84.3698C45.9115 84.2276 46.0219 83.4781 46.1416 83.4424C46.3626 83.3764 46.3996 83.3276 46.5741 83.1951C46.7296 83.077 46.9331 83.0554 47.084 82.9296C47.1766 82.8524 47.5067 82.3165 47.6137 82.4004C47.7186 82.4826 47.8917 82.501 48.0113 82.5066C48.1761 82.5144 48.3941 82.3573 48.5401 82.5138C48.6997 82.685 48.8574 82.7086 49.0679 82.6712C49.1523 82.6562 49.6652 82.6797 49.7111 82.7014C49.8472 82.7661 50.1343 82.6856 50.2348 82.7643C50.5878 83.041 50.776 82.3594 50.9275 82.2331" stroke="#EBEBEB" stroke-width="2" stroke-linecap="round"/>
<path d="M84.982 55.6687C84.9179 55.3966 84.7689 56.2051 84.6749 56.4766C84.5402 56.8659 84.3153 57.3235 84.0866 57.6749C83.6844 58.2931 83.1118 59.1427 83.1044 59.8699C83.1005 60.2621 82.9292 60.6805 83.0205 61.0678C83.1165 61.4753 83.2125 61.8828 83.3085 62.2903C83.5477 63.3059 84.5439 63.9503 85.6087 64.1358C87.4922 64.464 90.4714 65.4058 91.8452 63.4209C92.3636 62.6718 93.0901 62.0009 93.9976 61.7357C95.3286 61.3466 95.3801 59.6855 95.1515 58.7148C94.9101 57.6902 94.7331 56.5023 93.8871 55.7526C93.1549 55.1037 92.5935 54.1106 91.5247 53.878C91.1029 53.7863 90.7622 53.6592 90.3785 53.4998C90.0384 53.3585 89.5913 53.4796 89.2561 53.3403C89.0326 53.2474 88.2409 53.2797 87.9658 53.289C87.5015 53.3045 87.1103 53.3721 86.6433 53.4821C84.9397 53.8834 84.9275 55.9992 84.3467 57.0776C84.0509 57.6266 83.5574 58.1508 83.2664 58.7097C82.8155 59.5755 83.2995 60.1407 83.4918 60.9568" stroke="#EBEBEB" stroke-width="2" stroke-linecap="round"/>
<path d="M86.2968 58.4871C86.2416 58.5076 86.2692 59.0977 86.1445 59.214C85.9494 59.3959 85.973 59.5917 85.8419 59.8036C85.7193 60.0018 85.6265 60.2509 85.6812 60.4831C85.6966 60.5485 85.7591 60.78 85.8684 60.7543C85.9109 60.7443 85.8202 60.4446 85.8104 60.4033C85.7482 60.1391 85.8242 59.8943 85.78 59.6454C85.7483 59.467 85.6842 59.1384 85.7788 58.9656C85.8899 58.763 85.9906 58.6436 86.2253 58.6027C86.5081 58.5534 86.2005 59.2134 86.1925 59.3014" stroke="#EDEDED" stroke-width="2" stroke-linecap="round"/>
<path d="M106.641 37.4109C106.603 37.2501 106.54 37.7217 106.497 37.8794C106.435 38.1053 106.327 38.3698 106.216 38.5718C106.02 38.9273 105.74 39.4155 105.749 39.842C105.754 40.072 105.673 40.3144 105.727 40.5433C105.784 40.7841 105.841 41.0249 105.898 41.2657C106.039 41.8658 106.563 42.2617 107.115 42.3897C108.091 42.6159 109.641 43.2219 110.313 42.0819C110.567 41.6517 110.929 41.2712 111.391 41.1318C112.069 40.9274 112.066 39.9538 111.931 39.3802C111.788 38.7747 111.676 38.0746 111.227 37.6196C110.838 37.2258 110.532 36.6331 109.977 36.4775C109.758 36.4161 109.581 36.3355 109.38 36.2351C109.203 36.1461 108.975 36.2091 108.799 36.1214C108.683 36.0629 108.276 36.0677 108.134 36.0682C107.895 36.069 107.695 36.1016 107.457 36.1578C106.587 36.3627 106.618 37.6038 106.339 38.2261C106.196 38.5429 105.952 38.8415 105.812 39.1642C105.595 39.6641 105.854 40.0044 105.968 40.4866" stroke="#EBEBEB" stroke-width="2" stroke-linecap="round"/>
<path d="M107.77 39.0403C107.736 39.0528 107.751 39.4075 107.673 39.4779C107.553 39.588 107.566 39.7057 107.485 39.8336C107.409 39.9532 107.35 40.1034 107.383 40.2428C107.393 40.282 107.43 40.4211 107.498 40.4052C107.524 40.399 107.469 40.2191 107.463 40.1943C107.426 40.0357 107.474 39.8882 107.447 39.7387C107.428 39.6315 107.39 39.4341 107.449 39.3299C107.518 39.2076 107.581 39.1355 107.726 39.11C107.9 39.0793 107.708 39.4773 107.703 39.5303" stroke="#EDEDED" stroke-width="2" stroke-linecap="round"/>
<path d="M110.366 77.8111C110.319 77.6129 110.212 78.2013 110.144 78.3989C110.047 78.6822 109.885 79.0151 109.72 79.2707C109.43 79.7203 109.016 80.3382 109.012 80.8676C109.009 81.1532 108.886 81.4576 108.952 81.7397C109.022 82.0364 109.092 82.3332 109.162 82.63C109.336 83.3697 110.058 83.8399 110.829 83.9761C112.192 84.2171 114.349 84.9061 115.341 83.4624C115.715 82.9176 116.24 82.43 116.897 82.2379C117.859 81.9561 117.895 80.7468 117.728 80.0399C117.552 79.2936 117.423 78.4286 116.81 77.8818C116.279 77.4086 115.872 76.685 115.098 76.5145C114.793 76.4473 114.546 76.3544 114.269 76.2379C114.022 76.1346 113.699 76.2223 113.456 76.1205C113.294 76.0527 112.721 76.0754 112.522 76.0818C112.186 76.0926 111.903 76.1413 111.566 76.2209C110.333 76.5113 110.327 78.0516 109.907 78.8361C109.694 79.2355 109.338 79.6166 109.128 80.0231C108.802 80.653 109.153 81.065 109.293 81.6593" stroke="#EBEBEB" stroke-width="2" stroke-linecap="round"/>
<path d="M111.32 79.8644C111.28 79.8793 111.301 80.3089 111.211 80.3934C111.07 80.5257 111.087 80.6682 110.992 80.8223C110.904 80.9665 110.837 81.1478 110.877 81.3169C110.888 81.3645 110.934 81.5331 111.013 81.5145C111.043 81.5073 110.977 81.289 110.97 81.2589C110.925 81.0665 110.98 80.8884 110.947 80.7071C110.924 80.5772 110.878 80.3379 110.946 80.2122C111.026 80.0648 111.099 79.978 111.269 79.9485C111.473 79.9129 111.251 80.393 111.246 80.4571" stroke="#EDEDED" stroke-width="2" stroke-linecap="round"/>
<path d="M114.342 61.2234C114.295 61.0255 114.263 61.5955 114.231 61.7846C114.184 62.0556 114.095 62.3708 113.999 62.6098C113.83 63.0303 113.588 63.6072 113.623 64.1265C113.641 64.4067 113.578 64.6966 113.644 64.9783C113.714 65.2747 113.784 65.571 113.854 65.8674C114.028 66.606 114.562 67.1195 115.106 67.3087C116.069 67.6432 117.614 68.4746 118.198 67.1288C118.418 66.6209 118.747 66.18 119.189 66.0386C119.836 65.8312 119.774 64.6466 119.607 63.9407C119.432 63.1955 119.28 62.337 118.815 61.7562C118.414 61.2536 118.079 60.5139 117.53 60.2909C117.314 60.2029 117.136 60.094 116.935 59.9597C116.757 59.8406 116.539 59.9035 116.363 59.7861C116.246 59.7079 115.85 59.6889 115.713 59.6809C115.481 59.6674 115.288 59.6949 115.059 59.7487C114.226 59.9451 114.332 61.4568 114.098 62.1967C113.978 62.5734 113.759 62.9218 113.642 63.3059C113.462 63.9008 113.735 64.3305 113.875 64.924" stroke="#EBEBEB" stroke-width="2" stroke-linecap="round"/>
<path d="M116.014 63.1096C115.974 63.1244 115.994 63.5541 115.904 63.6386C115.763 63.7708 115.781 63.9134 115.686 64.0675C115.597 64.2117 115.531 64.393 115.57 64.562C115.582 64.6097 115.627 64.7783 115.706 64.7597C115.737 64.7525 115.671 64.5342 115.664 64.5041C115.619 64.3117 115.673 64.1335 115.641 63.9523C115.618 63.8224 115.571 63.583 115.639 63.4574C115.72 63.31 115.792 63.2232 115.962 63.1936C116.167 63.1581 115.945 63.6382 115.939 63.7023" stroke="#EDEDED" stroke-width="2" stroke-linecap="round"/>
<path d="M57.1037 99.9068C57.0627 99.7327 56.9815 100.247 56.9279 100.419C56.8512 100.665 56.7212 100.955 56.5878 101.176C56.3533 101.566 56.0192 102.102 56.0219 102.566C56.0234 102.815 55.925 103.08 55.9834 103.328C56.0448 103.589 56.1062 103.849 56.1676 104.11C56.3206 104.759 56.9226 105.18 57.5613 105.308C58.6909 105.536 60.4818 106.165 61.284 104.914C61.5867 104.442 62.0147 104.021 62.5548 103.861C63.3469 103.626 63.3616 102.568 63.2153 101.947C63.0609 101.292 62.9435 100.533 62.4302 100.047C61.9859 99.6266 61.6405 98.9883 60.999 98.8296C60.7459 98.767 60.5409 98.6828 60.3098 98.5774C60.1051 98.484 59.8389 98.5568 59.6371 98.4648C59.5025 98.4034 59.0293 98.4163 58.8649 98.4195C58.5874 98.4248 58.3541 98.4641 58.0759 98.5296C57.0609 98.7687 57.0743 100.117 56.7375 100.798C56.566 101.145 56.276 101.475 56.1074 101.828C55.8462 102.375 56.1412 102.74 56.2642 103.262" stroke="#EBEBEB" stroke-width="2" stroke-linecap="round"/>
<path d="M57.9175 101.716C57.8847 101.728 57.907 102.104 57.8335 102.177C57.7187 102.291 57.7347 102.416 57.6583 102.55C57.5869 102.675 57.5339 102.833 57.5688 102.981C57.5787 103.023 57.6184 103.171 57.6835 103.156C57.7088 103.15 57.6516 102.958 57.6454 102.932C57.6056 102.763 57.6486 102.608 57.6197 102.449C57.599 102.335 57.5575 102.125 57.6124 102.015C57.6769 101.887 57.7359 101.812 57.8759 101.789C58.0445 101.76 57.867 102.177 57.8631 102.233" stroke="#EDEDED" stroke-width="2" stroke-linecap="round"/>
<path d="M58.7757 70.3045C58.7276 70.1004 58.6381 70.7015 58.578 70.9027C58.4917 71.1912 58.3449 71.5292 58.1938 71.788C57.928 72.2432 57.5492 72.8684 57.5554 73.4111C57.5587 73.7038 57.4479 74.0134 57.5164 74.3039C57.5884 74.6095 57.6604 74.9151 57.7324 75.2207C57.9118 75.9825 58.6036 76.4788 59.3354 76.6337C60.6296 76.9077 62.6834 77.6566 63.5931 76.1963C63.9364 75.6452 64.4233 75.1557 65.0404 74.9718C65.9454 74.7019 65.9551 73.4629 65.7836 72.7349C65.6025 71.9664 65.4631 71.0771 64.8724 70.5045C64.3612 70.0089 63.9616 69.259 63.2264 69.0689C62.9363 68.9939 62.7011 68.8939 62.436 68.7689C62.2011 68.6582 61.8969 68.7417 61.6653 68.6326C61.5109 68.5598 60.9695 68.5717 60.7814 68.5744C60.4638 68.5788 60.197 68.6232 59.8791 68.6981C58.7192 68.9713 58.7435 70.5503 58.3626 71.3462C58.1686 71.7514 57.8389 72.135 57.6483 72.5477C57.3531 73.1869 57.6931 73.6162 57.8373 74.2283" stroke="#EBEBEB" stroke-width="2" stroke-linecap="round"/>
<path d="M59.9591 71.6925C59.9157 71.709 59.9433 72.1984 59.846 72.2937C59.6937 72.4425 59.7143 72.6051 59.6129 72.7794C59.518 72.9426 59.4472 73.1482 59.4927 73.3412C59.5055 73.3956 59.5572 73.5882 59.6432 73.5679C59.6766 73.5601 59.602 73.3107 59.5939 73.2763C59.5422 73.0567 59.5998 72.8545 59.5624 72.6477C59.5356 72.4995 59.4818 72.2264 59.5548 72.0841C59.6405 71.9172 59.7189 71.8192 59.9038 71.7876C60.1265 71.7495 59.8902 72.2937 59.8847 72.3666" stroke="#EDEDED" stroke-width="2" stroke-linecap="round"/>
<path d="M79.6765 88.7486C79.6232 88.5223 79.4588 89.2041 79.3618 89.4343C79.2227 89.7643 78.9961 90.1541 78.7687 90.455C78.3689 90.9844 77.8006 91.7125 77.7731 92.3221C77.7583 92.6509 77.5837 93.0063 77.6595 93.3284C77.7394 93.6672 77.8192 94.0059 77.899 94.3447C78.0979 95.1891 79.0269 95.7011 80.0342 95.8267C81.8158 96.0487 84.622 96.7542 85.984 95.0521C86.4981 94.4097 87.2077 93.8271 88.0781 93.5792C89.3545 93.2158 89.4503 91.8223 89.2601 91.0152C89.0594 90.1633 88.9246 89.1728 88.1412 88.5683C87.4633 88.0452 86.9575 87.2287 85.9478 87.0638C85.5493 86.9988 85.2289 86.9019 84.8686 86.7791C84.5492 86.6703 84.1207 86.7843 83.8059 86.677C83.596 86.6055 82.8423 86.6548 82.5805 86.6703C82.1386 86.6964 81.7647 86.764 81.3176 86.8694C79.6865 87.2536 79.6153 89.0271 79.0328 89.9471C78.7361 90.4155 78.2522 90.8687 77.9597 91.3453C77.5067 92.0835 77.951 92.5436 78.1108 93.222" stroke="#EBEBEB" stroke-width="2" stroke-linecap="round"/>
<path d="M80.8473 91.0735C80.7943 91.0922 80.8039 91.5859 80.682 91.6869C80.4915 91.8449 80.5084 92.0082 80.3778 92.1895C80.2556 92.3591 80.1603 92.5705 80.2058 92.7635C80.2186 92.8178 80.2716 93.0101 80.3762 92.9855C80.4169 92.9759 80.339 92.7273 80.331 92.693C80.2792 92.4733 80.3584 92.266 80.3233 92.0587C80.2982 91.9101 80.2465 91.6365 80.3414 91.4891C80.4527 91.3161 80.5518 91.2132 80.7761 91.1723C81.0463 91.1231 80.7353 91.6848 80.7252 91.7588" stroke="#EDEDED" stroke-width="2" stroke-linecap="round"/>
<path d="M93.8036 108.642C93.7503 108.416 93.6406 109.085 93.569 109.309C93.4665 109.63 93.2935 110.008 93.1164 110.297C92.8049 110.805 92.3612 111.504 92.3625 112.107C92.3633 112.432 92.2322 112.777 92.308 113.099C92.3878 113.438 92.4677 113.777 92.5475 114.116C92.7464 114.96 93.5393 115.504 94.3819 115.668C95.8722 115.959 98.2337 116.769 99.2988 115.137C99.7008 114.521 100.268 113.972 100.982 113.761C102.029 113.452 102.053 112.075 101.863 111.268C101.662 110.416 101.511 109.43 100.835 108.8C100.251 108.254 99.7979 107.425 98.9517 107.222C98.6178 107.142 98.3475 107.033 98.043 106.897C97.7731 106.777 97.4213 106.873 97.1553 106.754C96.9779 106.675 96.3531 106.694 96.136 106.699C95.7695 106.707 95.4613 106.759 95.0937 106.846C93.7525 107.162 93.7637 108.916 93.3158 109.804C93.0877 110.256 92.7032 110.686 92.479 111.147C92.1315 111.86 92.5192 112.333 92.6791 113.012" stroke="#EBEBEB" stroke-width="2" stroke-linecap="round"/>
<path d="M94.8694 110.992C94.8261 111.008 94.8537 111.498 94.7563 111.593C94.6041 111.742 94.6246 111.904 94.5232 112.079C94.4283 112.242 94.3575 112.448 94.403 112.641C94.4158 112.695 94.4675 112.888 94.5536 112.867C94.587 112.859 94.5124 112.61 94.5043 112.576C94.4525 112.356 94.5101 112.154 94.4728 111.947C94.446 111.799 94.3921 111.526 94.4652 111.383C94.5509 111.217 94.6292 111.119 94.8141 111.087C95.0369 111.049 94.8005 111.593 94.7951 111.666" stroke="#EDEDED" stroke-width="2" stroke-linecap="round"/>
<path d="M126.446 74.3819C126.946 76.5074 129.171 72.4082 129.457 71.9456C130.137 70.8458 129.111 70.7892 129.097 69.724C129.084 68.6742 128.471 67.9459 128.22 66.8812" stroke="#EBEBEB" stroke-width="2" stroke-linecap="round"/>
<path d="M45.9123 84.8013C45.9774 85.4066 45.5505 86.1221 45.7104 86.8005C45.8536 87.4087 45.841 88.27 45.6943 88.8906C45.6182 89.2119 45.5318 89.6427 45.5174 89.9492C45.5033 90.2502 45.6412 90.7139 45.5577 91.0089C45.4061 91.5448 45.4972 92.8554 45.7851 93.3706C46.0476 93.8404 46.51 94.6275 46.9287 94.9556C47.1886 95.1593 47.1746 95.7152 47.397 95.9594C47.6497 96.2371 47.7786 96.5685 47.9615 96.8957C48.6427 98.1144 49.1475 99.4616 50.5675 99.9906" stroke="#EBEBEB" stroke-width="2" stroke-linecap="round"/>
<path d="M44.4467 88.7219C44.3932 88.5779 44.167 88.5822 44.0973 88.4576C44.0029 88.2886 43.873 88.1377 43.7832 87.952C43.6995 87.7787 43.4303 87.6747 43.3813 87.5105C43.3438 87.3849 43.247 87.0178 43.3378 87.3257C43.4716 87.7793 43.5944 88.1455 43.8124 88.5356C44.0302 88.9253 44.4262 89.2074 44.2936 89.6355C44.2037 89.9257 44.1882 89.6939 44.1468 89.5184C44.0662 89.1761 44.1614 88.8704 43.9645 88.5376C43.7085 88.1049 43.5034 87.5062 43.3649 87.0268C43.2346 86.5761 42.883 86.1831 42.685 85.7733C42.5843 85.5648 42.5654 84.7648 42.7067 84.647" stroke="#EBEBEB" stroke-width="2" stroke-linecap="round"/>
<path d="M55.2986 56.4274C54.9957 55.6119 52.3 58.5421 52.5178 59.4667C52.8005 60.6666 52.4871 60.8513 51.857 61.7593C51.2406 62.6477 51.4997 63.2413 51.7396 64.2595" stroke="#EBEBEB" stroke-width="2" stroke-linecap="round"/>
<path d="M101.683 122.43C102.508 122.123 103.065 121.468 104.101 121.224C105.192 120.967 105.456 120.725 106.218 120.09" stroke="#EBEBEB" stroke-width="2" stroke-linecap="round"/>
<path d="M71.0093 104.225C70.1863 104.518 72.244 105.143 72.8188 105.458C73.7856 105.988 74.5661 105.829 74.8725 107.129C75.1922 108.486 75.1297 112.791 77.3544 112.267" stroke="#EBEBEB" stroke-width="2" stroke-linecap="round"/>
<path d="M120.901 39.3829C120.854 39.394 122.341 38.9073 122.831 39.1757C123.407 39.4916 123.99 40.5627 124.791 40.374C125.9 40.1126 125.934 41.1845 126.651 41.5251C127.831 42.0852 127.463 42.3002 127.228 43.2967" stroke="#EBEBEB" stroke-width="2" stroke-linecap="round"/>
</svg>
