<svg width="199" height="226" viewBox="0 0 199 226" fill="none" xmlns="http://www.w3.org/2000/svg">
<path d="M131.216 12.0128C131.244 12.0301 131.272 12.0484 131.298 12.0679C131.464 12.7335 131.618 13.3923 131.667 14.0643C131.915 17.4444 137.167 17.8983 140.244 19.193C147.001 22.0363 153.125 24.7412 159.204 28.4247C165.224 32.0724 176.274 37.5088 176.016 42.7964C175.956 44.0191 178.087 46.3269 178.087 48.6805C179.123 48.6805 176.419 52.2732 178.087 52.9955C181.435 54.4444 180.931 55.0396 184.032 56.9183C189.479 60.2194 191.836 63.9881 194.013 69.7584C194.5 71.0485 195.768 73.0015 195.768 74.2413C196.671 75.7474 196.224 78.2625 196.872 78.8761C197.25 80.847 196.671 85.8003 196.671 88.2598C196.671 95.5023 193.963 102.043 193.963 109.459C193.963 116.907 194.149 124.9 191.254 132.025C189.2 137.081 186.655 142.801 185.787 148.057C185.408 150.355 184.032 152.575 184.032 154.933C184.032 155.719 183.531 158.997 182.928 159.568C181.028 161.367 179.376 166.528 178.665 168.952C177.736 172.116 177.82 175.263 176.107 178.183C172.61 184.143 173.23 190.779 169.787 196.647C168.645 198.592 168.538 203.573 166.426 204.853C164.071 206.28 165.447 212.02 163.467 213.895C162.391 214.913 161.896 216.862 161.411 218.149C160.856 219.618 159.356 219.744 158.05 220.733C154.918 223.105 150.925 224 146.564 224C142.627 224 138.715 222.632 134.376 222.632H121.285C117.346 222.632 113.375 221.265 109.096 221.265H96.0051H82.914C79.5459 221.265 75.8027 219.726 72.5314 219.175C68.4221 218.484 63.8577 216.557 61.246 214.085C59.3965 212.333 57.9602 209.501 55.3441 208.336C53.2725 205.982 54.6596 201.135 51.7662 199.382C49.942 198.277 50.618 195.987 49.3085 194.747C47.983 193.492 46.6573 191.947 45.6972 190.492C37.192 177.608 31.7925 163.881 23.7783 150.526C19.419 143.262 18.351 134.783 13.5964 127.58C11.4029 124.257 10.7803 120.185 8.43014 116.981C6.56035 114.431 6.93084 110.518 4.56801 108.281C2.633 106.449 2.56171 101.601 2.56171 99.2011C2.56171 97.2249 1.17318 90.9421 2.76234 89.4375C4.71539 87.5884 3.49345 82.5416 4.41754 80.0919C5.41206 77.4554 5.69929 72.9455 8.21485 71.0401C10.8305 69.059 13.16 63.6755 16.5013 62.4101C16.5013 61.6256 22.7162 58.0951 25.3057 59.2719C23.1835 53.6459 24.8855 48.8873 28.7439 43.7729C31.5728 40.0233 37.7469 34.0257 42.788 31.8439C45.7345 30.5686 49.7631 30.2479 51.5154 27.7409C53.4476 24.9765 55.1131 22.0153 57.1832 19.193C59.2782 16.3368 61.5042 13.9556 65.3087 12.3547C68.5253 11.0012 73.8642 8.23354 77.497 7.90982C80.6316 7.63049 84.5266 5.70087 87.8796 5.13651C91.8524 4.46782 95.9465 3.12301 100.068 3.12301C102.333 3.12301 111.339 2.16871 112.708 3.46492C113.832 4.52905 121.713 5.09755 123.542 5.1745C125.952 5.27594 127.617 6.98183 128.959 8.25173C129.963 9.20244 130.305 11.4611 131.216 12.0128Z" fill="#E4B335"/>
<path d="M141.316 18.4755C141.122 19.651 133.64 16.7865 132.771 15.9638C131.741 14.9889 132.314 12.6785 131.216 12.0128C130.305 11.4611 129.963 9.20244 128.959 8.25173C127.617 6.98183 125.952 5.27594 123.542 5.1745C121.713 5.09755 113.832 4.52905 112.708 3.46492C111.338 2.16871 102.333 3.12301 100.068 3.12301C95.9465 3.12301 91.8524 4.46782 87.8796 5.13651C84.5266 5.70087 80.6316 7.63049 77.497 7.90982C73.8642 8.23354 68.5253 11.0012 65.3087 12.3547C61.5042 13.9556 59.2782 16.3368 57.1832 19.193C55.1131 22.0153 53.4476 24.9765 51.5154 27.7409C49.7631 30.2479 45.7345 30.5686 42.788 31.8439C37.7469 34.0257 31.5728 40.0233 28.7439 43.7729C24.8855 48.8873 23.1835 53.6459 25.3057 59.2719C22.7162 58.0951 16.5013 61.6256 16.5013 62.4101C13.16 63.6755 10.8305 69.059 8.21485 71.0401C5.69929 72.9455 5.41206 77.4554 4.41754 80.0918C3.49345 82.5416 4.71539 87.5884 2.76234 89.4375C1.17318 90.9421 2.56171 97.2249 2.56171 99.2011C2.56171 101.601 2.633 106.449 4.56801 108.281C6.93084 110.518 6.56035 114.431 8.43014 116.981C10.7803 120.185 11.4029 124.257 13.5964 127.58C18.351 134.783 19.419 143.262 23.7783 150.526C31.7925 163.881 37.192 177.608 45.6972 190.492C46.6573 191.947 47.983 193.492 49.3085 194.747C50.618 195.987 49.942 198.277 51.7662 199.382C54.6596 201.135 53.2725 205.982 55.3441 208.336C57.9602 209.501 59.3965 212.333 61.246 214.084C63.8577 216.557 68.4221 218.484 72.5314 219.175C75.8027 219.726 79.5459 221.265 82.914 221.265C87.2777 221.265 91.6414 221.265 96.0051 221.265C100.369 221.265 104.733 221.265 109.096 221.265C113.375 221.265 117.346 222.632 121.285 222.632C125.648 222.632 130.012 222.632 134.376 222.632C138.715 222.632 142.627 224 146.564 224C150.925 224 154.918 223.105 158.05 220.733C159.356 219.744 160.856 219.618 161.411 218.149C161.896 216.862 162.391 214.913 163.467 213.895C165.447 212.02 164.071 206.28 166.426 204.853C168.538 203.573 168.645 198.592 169.787 196.647C173.23 190.779 172.61 184.143 176.107 178.183C177.82 175.263 177.736 172.116 178.665 168.952C179.376 166.528 181.028 161.367 182.928 159.568C183.531 158.997 184.032 155.719 184.032 154.933C184.032 152.575 185.408 150.355 185.787 148.057C186.655 142.801 189.2 137.081 191.254 132.025C194.149 124.9 193.963 116.907 193.963 109.459C193.963 102.043 196.671 95.5023 196.671 88.2598C196.671 85.8003 197.25 80.847 196.872 78.8761C196.224 78.2625 196.671 75.7474 195.768 74.2413C195.768 73.0015 194.5 71.0485 194.013 69.7584C191.836 63.9881 189.479 60.2194 184.032 56.9183C180.931 55.0396 181.435 54.4444 178.087 52.9955C176.419 52.2732 179.123 48.6805 178.087 48.6805C178.087 46.3269 175.956 44.0191 176.016 42.7964C176.274 37.5088 165.224 32.0724 159.204 28.4247C153.125 24.7412 147.001 22.0363 140.244 19.193C137.167 17.8983 131.915 17.4444 131.667 14.0643C131.543 12.3777 130.764 10.7743 130.764 8.93556C130.764 7.06642 130.173 8.02778 128.056 7.22599" stroke="black" stroke-width="3" stroke-linecap="round"/>
<path d="M25.3057 59.6642C18.2758 59.6642 9.69721 69.643 6.16085 74.4643C3.09345 78.6463 2.44957 83.6909 2.09809 88.4828C1.67095 94.3063 2.70908 99.6019 3.8536 105.237C5.29685 112.342 5.46651 119.495 9.82234 126.093C17.4017 137.575 22.6883 149.774 29.6346 161.349C32.1211 165.492 36.6344 170.733 37.3087 175.329C37.6205 177.455 40.5687 178.538 40.92 180.8C41.1064 182 43.2379 185.097 44.5313 185.587" stroke="black" stroke-width="3" stroke-linecap="round"/>
<path d="M31.8917 84.3799C31.1278 79.7512 28.2803 74.8436 28.2803 70.0194C28.2803 67.4401 26.6574 64.9891 26.4746 62.4973C26.2721 59.7359 25.5718 56.8916 25.5718 53.9494C25.5718 47.8596 26.8718 43.6579 31.8917 38.9052C35.1397 35.83 43.3904 28.9897 49.0455 28.9897" stroke="black" stroke-width="3" stroke-linecap="round"/>
<path d="M52.6568 36.5118C50.9472 36.3499 51.2688 25.8589 52.4562 24.7347C53.8947 23.3728 53.5772 20.773 55.8168 19.416C57.9269 18.1374 59.109 16.2006 60.983 14.7812C62.9822 13.2669 66.7129 13.2011 68.4063 11.552C70.2549 9.75175 72.5684 8.83809 75.2277 7.94289C79.9595 6.35002 87.7966 6.19262 91.6794 3.83991C93.014 3.03118 97.3969 3.00412 99.1528 3.00412C102.003 3.00412 105.125 3.34924 107.73 2.47225C111.803 1.10093 118.626 2.96287 121.473 4.90364C123.748 6.45454 130.11 10.1179 130.301 12.5777C130.583 16.2185 130.301 27.1661 130.301 23.519" stroke="black" stroke-width="3" stroke-linecap="round"/>
<path d="M141.424 18.573C143.382 19.4302 145.332 20.7041 146.973 21.3874C147.268 21.5102 147.652 21.7117 148.069 21.9488C149.154 22.4921 150.176 23.0763 151.039 23.7303C152.006 24.4622 149.764 22.9115 148.069 21.9488C146.344 21.0849 144.459 20.3246 142.798 19.5523C142.432 19.3822 141.834 18.9128 141.424 18.573C141.161 18.3548 140.976 18.1901 140.981 18.1925C141.816 18.6446 142.698 19.0677 143.576 19.4868C146.203 20.7393 148.845 22.0531 151.494 23.3371C151.629 23.4026 151.782 23.4705 151.948 23.541C153.063 24.0146 154.743 24.6052 155.257 25.3851C155.355 25.5327 153.314 24.2633 152.835 24.0416C152.653 23.9576 152.33 23.7732 151.948 23.541C151.782 23.4705 151.629 23.4026 151.494 23.3371C148.845 22.0531 146.203 20.7393 143.576 19.4868C142.698 19.0677 141.816 18.6446 140.981 18.1925C140.976 18.1901 141.161 18.3548 141.424 18.573Z" fill="#E4B335"/>
<path d="M138.428 17.7173C141.286 17.9578 144.486 20.3515 146.973 21.3874C148.465 22.009 152.244 24.6425 151.039 23.7303C148.803 22.0365 145.504 20.8103 142.798 19.5523C142.197 19.273 140.969 18.1864 140.981 18.1925C141.816 18.6446 142.698 19.0677 143.576 19.4868C146.203 20.7393 148.845 22.0531 151.494 23.3371C152.537 23.843 154.666 24.4892 155.257 25.3851C155.355 25.5327 153.314 24.2633 152.835 24.0416C151.864 23.5924 146.837 20.2667 150.412 22.141C151.44 22.6801 152.659 23.2924 153.592 23.9105C154.067 24.2256 155.675 25.3851 155.56 25.3851" stroke="black" stroke-width="3" stroke-linecap="round"/>
<path d="M7.99087 118.939C7.17857 117.862 6.87877 116.573 6.56021 115.279C6.45503 115.042 6.35739 114.805 6.26878 114.566C5.17978 111.895 4.18199 109.208 3.40501 106.487C2.60373 103.68 3.21132 100.529 3.53677 97.5551C3.63522 96.6555 3.70785 95.7722 3.70785 94.9195C3.70785 91.8012 4.3302 88.1695 5.82773 85.2528C6.53415 83.8769 6.83123 82.407 7.79619 81.1076C8.10323 80.6942 8.42525 80.2506 8.74085 79.794C9.13073 79.0221 9.56578 78.2791 10.0871 77.6312C10.1722 77.4719 10.2525 77.3143 10.3271 77.159C11.2958 75.1412 15.0148 74.0344 16.9463 72.5715C19.3679 70.7373 22.5139 70.1074 25.5123 69.098C26.8464 68.6489 27.1326 69.191 25.5123 69.3274C24.5958 69.4045 24.1178 70.0453 23.3708 70.3596C21.5102 71.1425 19.7005 71.9695 17.9197 72.7189C15.904 73.5671 14.2798 74.9873 12.2739 75.8811C11.3914 76.2742 10.6829 76.8906 10.0871 77.6312C9.70768 78.3409 9.23205 79.0832 8.74085 79.794C7.83466 81.5878 7.17249 83.5374 6.23872 84.8104C5.54782 85.7524 6.08848 86.9027 5.45999 87.7596C5.0071 88.377 4.87595 89.7177 4.87595 90.4138C4.87595 92.6702 4.48658 94.8046 4.48658 97.0494C4.48658 99.9085 5.26531 102.6 5.26531 105.454C5.26531 107.156 6.42156 108.341 6.99582 109.895C7.81096 112.1 7.87312 114.495 8.46676 116.743C8.84569 118.178 9.31151 119.643 9.86668 121.087C10.1868 121.673 10.4777 122.262 10.7164 122.854C11.4105 124.578 12.3904 126.18 13.3788 127.773C13.4917 127.889 13.6131 128.003 13.7448 128.114C13.9309 128.27 13.7322 128.125 13.4525 127.892C14.0481 128.852 14.6443 129.809 15.1806 130.788C15.1851 130.792 15.1896 130.797 15.1941 130.801C15.6077 131.184 16.2228 132.874 15.7782 131.948C15.5905 131.557 15.3902 131.171 15.1806 130.788C13.7714 129.482 12.7082 128.184 11.8845 126.606C11.2804 125.449 10.6578 124.313 9.95264 123.199C9.84858 123.034 9.74272 122.87 9.63485 122.707C8.86134 121.535 8.83839 120.062 7.99087 118.939Z" fill="#E4B335"/>
<path d="M59.6314 66.4542C59.4827 65.8893 59.3279 65.3301 59.22 64.7743C59.0886 64.4806 59.031 64.3015 59.1701 64.4963C59.2299 64.58 59.326 64.7327 59.4682 64.9751C59.5862 65.1761 59.6345 65.3993 59.6502 65.6325C59.7189 65.755 59.7818 65.8584 59.8304 65.9246C60.5859 66.9547 59.801 68.407 60.3318 69.5328C60.7505 70.4209 61.0165 72.0316 61.084 72.9511C61.1081 73.2805 61.1495 73.6088 61.2021 73.9365C62.0731 77.7875 63.1925 81.5896 63.9996 85.4459C64.4536 86.576 64.7135 87.6945 64.9255 88.819C65.688 90.1793 66.0301 92.9084 66.0985 93.8408C66.2517 95.9291 68.1043 98.0006 68.1043 100.129C68.1043 102.444 69.4922 104.596 69.6018 106.93C69.7308 107.282 69.863 107.631 69.9987 107.978C70.5986 109.512 70.6033 111.194 70.7372 112.837C70.7776 112.901 70.8192 112.963 70.8623 113.021C71.7787 114.271 71.6169 115.994 71.7536 117.591C71.8995 118.195 72.036 118.811 72.1564 119.426C72.2173 119.567 72.2869 119.704 72.3666 119.837C72.918 120.755 73.0954 122.099 73.1166 123.16C73.3841 123.78 73.6793 124.39 74.0103 124.985C74.788 126.384 75.6261 129.358 75.6261 130.872C75.6261 131.017 75.6341 131.161 75.6489 131.305C76.0399 133.019 77.1304 134.868 77.1304 136.57C77.1304 136.578 77.1306 136.587 77.1309 136.596C77.2934 136.832 77.3428 137.154 77.3695 137.488C77.7078 138.377 78.2352 139.366 77.7622 138.97C77.756 138.965 77.7498 138.96 77.7433 138.954C77.5393 138.777 77.4615 138.498 77.4229 138.183C77.2458 137.707 77.1304 137.232 77.1304 136.76C77.1304 136.703 77.1292 136.646 77.1268 136.59C77.0952 136.544 77.0595 136.502 77.019 136.464C76.233 135.72 76.4632 134.71 75.8768 133.911C75.3825 133.237 75.1246 131.646 75.1246 130.872C75.1246 129.599 74.2124 128.5 74.1217 127.264C74.1195 127.234 74.1169 127.205 74.1139 127.175C73.414 125.727 72.7271 124.285 72.6174 122.706C72.5928 122.353 72.5567 121.988 72.5108 121.614C71.2018 117.946 70.6044 114.011 69.2186 110.468C68.5345 108.719 68.8863 106.717 68.2157 104.94C67.7137 103.609 67.4116 101.877 67.1293 100.487C66.3528 96.6646 65.1863 92.7496 64.622 88.9032C64.5917 88.6968 64.5601 88.4907 64.5272 88.2847C64.4679 88.2293 64.4066 88.1819 64.3434 88.1436C63.218 87.4616 62.1444 82.7344 62.0869 81.6024C62.0291 80.4643 61.8049 78.9273 61.1954 77.8887C60.6798 77.01 61.471 75.9096 60.8333 75.0401C59.9423 73.8254 60.0811 70.5604 60.0811 69.153C60.0811 68.9761 60.073 68.8001 60.0584 68.6249C59.9435 68.1674 59.8214 67.7106 59.6911 67.254C59.62 67.005 59.6192 66.7322 59.6314 66.4542Z" fill="#E4B335"/>
<path d="M59.0782 63.4558C59.0782 65.3079 60.0811 67.1784 60.0811 69.153C60.0811 70.5604 59.9423 73.8254 60.8333 75.0401C61.471 75.9096 60.6798 77.01 61.1954 77.8887C61.8049 78.9273 62.0291 80.4643 62.0869 81.6024C62.1444 82.7344 63.218 87.4616 64.3434 88.1436C65.5197 88.8564 66.0147 92.698 66.0985 93.8408C66.2517 95.9291 68.1043 98.0006 68.1043 100.129C68.1043 102.54 69.6087 104.773 69.6087 107.219C69.6087 108.789 69.8718 111.671 70.8623 113.021C72.2416 114.902 71.1784 117.857 72.3666 119.837C72.9572 120.821 73.1188 122.293 73.1188 123.382C73.1188 124.722 74.0277 125.982 74.1217 127.264C74.2124 128.5 75.1246 129.599 75.1246 130.872C75.1246 131.646 75.3825 133.237 75.8768 133.911C76.4632 134.71 76.233 135.72 77.019 136.464C77.6286 137.041 77.147 138.438 77.7433 138.954C78.4473 139.563 77.1304 137.379 77.1304 136.57C77.1304 134.787 75.9341 132.843 75.5982 131.062C75.0453 128.131 72.8225 125.658 72.6174 122.706C72.4572 120.402 71.8038 117.56 71.1409 115.3C70.4525 112.954 70.9054 110.296 69.9987 107.978C68.0641 103.033 66.8379 97.5436 65.6249 92.4903C65.0445 90.0722 64.9406 87.7621 63.9813 85.4005C63.2652 83.6379 62.0869 81.0284 62.0869 79.218C62.0869 77.0961 61.2375 75.0446 61.084 72.9511C61.0165 72.0316 60.7505 70.4209 60.3318 69.5328C59.801 68.407 60.5859 66.9547 59.8304 65.9246C59.5114 65.4897 58.5697 63.4438 59.4682 64.9751C59.8576 65.6387 59.4883 66.5436 59.6911 67.254C60.0947 68.6679 60.4193 70.083 60.694 71.5163C61.8128 77.3543 63.7608 83.0324 64.622 88.9032C65.1863 92.7496 66.3528 96.6646 67.1293 100.487C67.4116 101.877 67.7137 103.609 68.2157 104.94C68.8863 106.717 68.5345 108.719 69.2186 110.468C71.0418 115.129 71.5004 120.47 74.0103 124.985C74.788 126.384 75.6261 129.358 75.6261 130.872C75.6261 132.854 77.1304 134.791 77.1304 136.76C77.1304 138.448 78.6034 140.166 79.1084 141.887C79.6225 143.639 80.1391 145.512 80.1391 147.394" stroke="black" stroke-width="3" stroke-linecap="round"/>
<path d="M127.582 60.4312C127.436 58.9567 127.177 61.42 127.223 61.8904C127.332 62.9909 126.921 63.9154 127.031 65.033C127.246 67.2039 126.44 69.2171 126.649 71.3391C127.058 75.4694 126.465 79.6452 126.867 83.7052C127.057 85.628 126.892 87.6821 126.929 89.4149C126.965 91.1373 128.253 94.1091 127.297 95.6784C126.44 97.0852 126.491 100.243 126.646 101.809C126.831 103.681 125.596 106.441 127.264 108.059" stroke="black" stroke-width="3" stroke-linecap="round"/>
<path d="M127.886 109.355C127.681 107.288 127.519 110.729 127.584 111.389C127.736 112.931 127.36 114.215 127.515 115.781C127.816 118.824 127.087 121.623 127.382 124.597C127.954 130.385 127.525 136.215 128.088 141.905C128.354 144.599 128.27 147.47 128.375 149.895C128.48 152.306 129.888 156.493 128.991 158.668C128.188 160.617 128.364 165.037 128.581 167.231C128.841 169.854 127.712 173.688 129.447 175.99" stroke="black" stroke-width="3" stroke-linecap="round"/>
<path d="M155.861 166.679C155.861 164.785 156.086 162.907 156.362 161.036V165.16C156.362 169.527 155.861 174.023 155.861 178.453V181.488C155.92 181.847 155.861 182.287 155.861 181.576V181.488C155.84 181.364 155.805 181.249 155.749 181.196C155.075 180.558 155.359 179.472 155.359 178.643C155.359 174.752 155.861 170.682 155.861 166.679Z" fill="#E4B335"/>
<path d="M158.368 116.924C158.368 119.364 158.869 121.745 158.869 124.14C158.869 127.802 158.368 131.47 158.368 135.07C158.368 140.864 157.365 146.391 157.365 152.162C157.365 156.997 155.861 161.784 155.861 166.679C155.861 170.682 155.359 174.752 155.359 178.643C155.359 179.472 155.075 180.558 155.749 181.196C155.968 181.403 155.861 182.534 155.861 181.576C155.861 180.535 155.861 179.494 155.861 178.453C155.861 174.023 156.362 169.527 156.362 165.16C156.362 161.108 156.362 157.057 156.362 153.006C156.362 150.167 156.529 146.833 157.337 144.08C157.954 141.976 157.365 139.294 157.365 137.138C157.365 134.559 157.866 131.908 157.866 129.268C157.866 124.99 158.368 120.866 158.368 116.544" stroke="black" stroke-width="3" stroke-linecap="round"/>
<path d="M156.824 77.9877C156.824 76.8063 157.02 75.6351 157.26 74.4683V77.0402C157.26 79.764 156.824 82.5679 156.824 85.3311V87.2238C156.875 87.4475 156.824 87.7224 156.824 87.2788V87.2238C156.806 87.1464 156.776 87.0751 156.727 87.0419C156.14 86.6436 156.387 85.9665 156.387 85.4495C156.387 83.0226 156.824 80.484 156.824 77.9877Z" fill="#E4B335"/>
<path d="M159.006 46.9561C159.006 48.4778 159.443 49.963 159.443 51.4568C159.443 53.7407 159.006 56.0283 159.006 58.2738C159.006 61.8872 158.133 65.3343 158.133 68.9335C158.133 71.9495 156.824 74.9348 156.824 77.9877C156.824 80.484 156.387 83.0226 156.387 85.4495C156.387 85.9665 156.14 86.6436 156.727 87.0419C156.917 87.171 156.824 87.876 156.824 87.2788C156.824 86.6295 156.824 85.9803 156.824 85.3311C156.824 82.5679 157.26 79.764 157.26 77.0402C157.26 74.5134 157.26 71.9867 157.26 69.4599C157.26 67.6893 157.406 65.6101 158.109 63.8932C158.646 62.5808 158.133 60.9083 158.133 59.5635C158.133 57.9552 158.57 56.3013 158.57 54.6548C158.57 51.9868 159.006 49.4151 159.006 46.7192" stroke="black" stroke-width="3" stroke-linecap="round"/>
<path d="M35.0085 91.1821C34.5239 91.2279 36.7817 96.9545 36.9865 97.8077C37.4247 99.6334 37.5468 101.859 38.7694 103.526C39.1528 104.049 39.5216 105.594 39.5216 106.185C39.5216 107.232 40.8767 108.016 41.026 109.033C41.2009 110.226 42.1943 113.464 43.5332 113.971" stroke="black" stroke-width="3" stroke-linecap="round"/>
<path d="M51.055 137.519C52.2359 137.631 54.4998 144.127 54.9552 145.2C56.0348 147.744 56.919 150.648 57.546 153.26C58.6677 157.933 60.266 163.902 63.3405 168.094C64.7425 170.005 66.0561 173.182 66.5721 175.331C67.0967 177.517 67.7008 180.755 68.9958 182.717C70.1412 184.452 70.5783 186.306 71.1409 188.224C71.4775 189.371 72.351 193.63 73.6203 194.111" stroke="black" stroke-width="3" stroke-linecap="round"/>
<path d="M69.6087 218.039C69.3878 218.039 65.7701 215.554 65.6249 215.17C65.2753 214.243 67.8386 210.621 68.6058 211.203" stroke="black" stroke-width="3" stroke-linecap="round"/>
<path d="M158.139 219.784C158.481 219.496 158.978 218.874 159.359 218.19C158.42 219.108 157.79 220.609 156.133 221.092C154.761 221.492 153.933 222.463 152.539 222.886C151.843 223.097 153.991 222.56 154.74 222.527C155.237 222.505 157.511 220.312 158.139 219.784Z" fill="#E4B335"/>
<path d="M137.691 207.334C137.691 205.627 147.814 208.227 149.336 209.149C150.59 209.909 152.743 210.551 154.239 211.217C156.549 212.246 158.128 214.34 159.643 215.775C160.563 216.646 158.933 219.116 158.139 219.784C157.511 220.312 155.237 222.505 154.74 222.527C153.991 222.56 151.843 223.097 152.539 222.886C153.933 222.463 154.761 221.492 156.133 221.092C158.256 220.474 158.693 218.181 160.256 217.589" stroke="black" stroke-width="2" stroke-linecap="round"/>
<path d="M85.1537 215.381C85.2977 214.508 92.0079 214.241 93.1769 214.241" stroke="black" stroke-width="3" stroke-linecap="round"/>
<path d="M124.267 216.52C126.36 216.52 128.17 216.14 130.284 216.14" stroke="black" stroke-width="3" stroke-linecap="round"/>
</svg>
