<svg width="187" height="142" viewBox="0 0 187 142" fill="none" xmlns="http://www.w3.org/2000/svg">
<path d="M17.9247 50.6896C20.0379 50.22 23.6231 50.0081 25.5754 51.4854C25.5629 50.6093 27.0216 47.3214 27.8173 46.5257C29.2899 45.0531 30.5966 43.2691 32.1138 41.7518C33.652 40.2136 37.5209 40.2136 39.6425 40.2136H39.6459C41.9205 40.2136 41.3543 35.5984 42.8815 33.9014C44.6851 31.8974 45.155 29.3312 47.7615 28.1728C48.8817 27.6749 50.5925 27.4462 51.4746 26.7406C51.9109 26.3915 53.8576 25.4491 54.445 25.4145C56.5613 25.29 60.2556 25.2535 61.9771 23.8763C62.6864 23.3088 64.4683 23.0276 65.4249 23.0276C66.0136 23.0276 66.3835 23.0747 66.6036 23.1283C66.5075 23.017 66.4153 22.8347 66.3797 22.5502C65.7404 17.4357 67.3467 11.5581 71.1536 7.75111C73.573 5.33169 74.8213 4.37903 77.8371 2.87113C80.3993 1.59001 83.7938 2.97721 86.4301 2.97721C88.9988 2.97721 93.1661 3.26579 95.5005 4.30329C98.0795 5.44951 102.249 4.88677 105.048 4.88677C111.834 4.88677 117.667 2.49982 124.383 2.49982C129.212 2.49982 132.422 6.92599 135.84 9.66066C137.42 10.9246 138.465 15.2186 138.465 17.0602C138.465 18.9501 137.145 24.4597 139.182 24.4597C142.669 24.4597 149.056 27.0761 151.355 29.9497C153.648 32.8156 159.931 35.3053 160.425 39.2588C160.556 40.3053 161.796 41.5534 161.858 42.6005C161.941 44.0215 161.858 45.4733 161.858 46.897C161.858 51.1382 166.239 47.1556 168.435 48.9127C170.263 50.375 172.97 52.0157 175.224 52.1483C177.317 52.2714 178.921 55.8098 179.627 57.3996C184.21 67.7119 184.772 80.3961 184.772 92.0103C184.772 95.3355 185.882 99.5612 185.011 102.699C184.166 105.741 183.578 108.961 182.889 112.061C181.725 117.301 178.364 124.271 173.076 126.621C170.328 127.842 167.5 129.745 164.961 131.156C163.978 131.702 161.594 131.247 160.903 132.111C160.354 132.796 157.626 133.186 156.659 133.324L156.606 133.331C153.763 133.737 150.338 133.551 147.775 134.975C144.956 136.541 141.163 135.731 138.227 137.362C131.578 141.056 123.916 139.988 116.744 139.988C114.855 139.988 112.895 138.919 111.042 138.582C109.529 138.307 107.779 138.556 106.242 138.556C103.138 138.556 100.214 137.601 97.1713 137.601C95.3628 137.601 93.6684 137.486 91.92 137.097C91.2659 136.952 88.1701 136.315 87.8622 135.93C87.508 135.487 84.4492 135.214 83.8044 135.214C82.1355 135.214 80.6386 134.643 79.0305 134.286C76.1786 133.652 73.0973 133.745 70.1988 133.331C67.2357 132.908 64.1193 131.872 61.1284 131.872C58.4035 131.872 55.6071 130.107 53.0128 129.963C51.976 129.905 50.1259 129.316 49.1937 128.902C47.8167 128.29 46.2975 128.382 44.8972 127.682C43.4553 126.961 42.0435 126.282 40.6007 125.56C39.4995 125.01 37.2736 124.819 36.4103 124.128C35.7051 123.564 33.4532 123.333 32.4851 123.279C31.0283 123.198 29.6406 122.018 28.1886 121.847C26.2229 121.616 22.9798 119.324 21.0277 118.399C18.161 117.041 15.7104 115.502 12.9121 114.103C10.6511 112.972 7.98739 111.872 6.33475 109.806C5.47527 108.732 3.84171 104.793 3.84171 103.468C3.84171 97.8242 2.40955 92.2931 2.40955 86.759C2.40955 83.9755 2.88694 81.2125 2.88694 78.6434C2.88694 75.6845 3.84171 72.8618 3.84171 70.0504C3.84171 67.1466 5.12542 64.6318 5.72475 61.9348C6.29327 59.3765 9.02496 58.0814 10.5252 56.2061C12.1417 54.1855 15.3148 51.2696 17.9247 50.6896Z" fill="#CB4B64"/>
<path d="M25.8016 51.6709C23.9123 49.9915 20.1224 50.2012 17.9247 50.6896C15.3148 51.2696 12.1417 54.1855 10.5252 56.2061C9.02496 58.0814 6.29327 59.3765 5.72475 61.9348C5.12542 64.6318 3.84171 67.1466 3.84171 70.0504C3.84171 72.8618 2.88694 75.6845 2.88694 78.6434C2.88694 81.2125 2.40955 83.9755 2.40955 86.759C2.40955 92.2931 3.84171 97.8242 3.84171 103.468C3.84171 104.793 5.47527 108.732 6.33475 109.806C7.98739 111.872 10.6511 112.972 12.9121 114.103C15.7104 115.502 18.161 117.041 21.0277 118.399C22.9798 119.324 26.2229 121.616 28.1886 121.847C29.6406 122.018 31.0283 123.198 32.4851 123.279C33.4532 123.333 35.7051 123.564 36.4103 124.128C37.2736 124.819 39.4995 125.01 40.6007 125.56C42.0435 126.282 43.4553 126.961 44.8972 127.682C46.2975 128.382 47.8167 128.29 49.1937 128.902C50.1259 129.316 51.976 129.905 53.0128 129.963C55.6071 130.107 58.4035 131.872 61.1284 131.872C64.1193 131.872 67.2357 132.908 70.1988 133.331C73.0973 133.745 76.1786 133.652 79.0305 134.286C80.6386 134.643 82.1355 135.214 83.8044 135.214C84.4491 135.214 87.508 135.487 87.8622 135.93C88.1701 136.315 91.2659 136.952 91.92 137.097C93.6684 137.486 95.3628 137.601 97.1713 137.601C100.214 137.601 103.138 138.556 106.242 138.556C107.779 138.556 109.529 138.307 111.042 138.582C112.895 138.919 114.855 139.988 116.744 139.988C123.916 139.988 131.578 141.056 138.227 137.362C141.163 135.731 144.956 136.541 147.775 134.975C150.338 133.551 153.763 133.737 156.606 133.331C157.523 133.2 160.344 132.809 160.903 132.111C161.594 131.248 163.978 131.702 164.961 131.156C167.5 129.745 170.328 127.842 173.076 126.621C178.364 124.271 181.725 117.301 182.889 112.061C183.578 108.961 184.166 105.741 185.011 102.699C185.882 99.5612 184.772 95.3355 184.772 92.0103C184.772 80.3961 184.21 67.7119 179.627 57.3996C178.921 55.8098 177.317 52.2714 175.224 52.1483C172.97 52.0157 170.263 50.375 168.435 48.9127C166.239 47.1556 161.858 51.1382 161.858 46.897C161.858 45.4733 161.941 44.0215 161.858 42.6005C161.796 41.5534 160.556 40.3053 160.425 39.2588C159.931 35.3053 153.648 32.8156 151.355 29.9497C149.056 27.0761 142.669 24.4597 139.182 24.4597C137.145 24.4597 138.465 18.9501 138.465 17.0602C138.465 15.2186 137.42 10.9246 135.84 9.66066C132.422 6.92599 129.212 2.49982 124.383 2.49982C117.667 2.49982 111.834 4.88677 105.048 4.88677C102.249 4.88677 98.0795 5.44951 95.5005 4.30329C93.1661 3.26579 88.9988 2.97721 86.4301 2.97721C83.7938 2.97721 80.3993 1.59001 77.8371 2.87113C74.8212 4.37903 73.573 5.33169 71.1536 7.75111C67.3467 11.5581 65.7404 17.4357 66.3797 22.5502C66.5411 23.8415 67.8702 23.0276 65.4249 23.0276C64.4683 23.0276 62.6864 23.3088 61.9771 23.8763C60.2556 25.2535 56.5613 25.29 54.445 25.4145C53.8576 25.4491 51.9109 26.3915 51.4746 26.7406C50.5925 27.4462 48.8817 27.6749 47.7615 28.1728C45.155 29.3312 44.6851 31.8974 42.8815 33.9014C41.3543 35.5984 41.9205 40.2136 39.6459 40.2136C37.525 40.2136 33.6528 40.2128 32.1138 41.7518C30.5966 43.269 29.2899 45.0531 27.8173 46.5257C26.853 47.49 24.9152 52.1142 25.8016 51.6709Z" stroke="#EBEBEB" stroke-width="3" stroke-linecap="round"/>
<path d="M162.081 50.9033C162.081 52.17 161.464 53.2833 161.464 54.4498C161.464 55.471 161.193 56.8171 160.47 57.6194C159.156 59.0795 157.919 60.6069 156.598 62.074C155.132 63.7038 153.795 65.1853 152.281 66.6999C150.73 68.2505 149.068 69.2021 147.449 70.6405C145.912 72.0069 143.848 72.9737 142.412 74.4097C140.947 75.8748 137.888 76.6961 135.867 76.8083C133.808 76.9228 131.524 78.2246 129.7 79.0356C128.576 79.5349 126.761 80.2007 125.536 80.2007C124.343 80.2007 122.764 80.0964 121.681 80.5776C120.238 81.2192 118.319 81.8094 116.747 82.0339C114.915 82.2956 112.718 82.4044 110.956 82.9077C107.913 83.7771 104.304 82.5099 101.327 83.8329C99.9335 84.4524 97.9814 83.8757 96.5472 84.6724C95.5757 85.2121 93.4778 84.8266 92.3839 84.8266C89.8611 84.8266 87.2753 84.5182 84.6741 84.5182C82.5064 84.5182 79.2794 83.7996 77.2726 82.9077C76.0328 82.3566 75.1145 80.5091 73.7261 80.5091C72.6903 80.5091 71.3743 79.9626 70.1796 79.8923C69.3297 79.8423 68.3613 78.6018 67.5411 78.3675C66.4364 78.0518 65.2349 77.4251 64.0117 77.4251C63.0189 77.4251 61.7515 77.4251 60.7736 77.4251C60.3653 77.4251 59.3495 77.6111 59.0774 77.2709C58.7364 76.8448 58.3964 76.5 57.8438 76.5" stroke="#EBEBEB" stroke-width="3" stroke-linecap="round"/>
<path d="M67.0613 24.4224C66.3627 24.3351 68.1132 25.8223 68.4491 26.4269C69.062 27.5301 70.2522 28.5787 71.2247 29.3567C72.8619 30.6665 76.1506 32.749 78.3177 32.749C81.3579 32.749 84.145 33.0574 87.1069 33.0574C88.7117 33.0574 90.1281 33.3658 91.7329 33.3658C93.1916 33.3658 94.525 34.1543 95.8105 33.1259C96.7386 32.3834 98.4447 32.131 99.5798 31.8067C100.643 31.5028 101.499 30.6726 102.372 29.9735C104.092 28.598 106.844 27.011 106.844 24.5766C106.844 23.0232 107.174 21.4013 105.611 20.4818C104.971 20.1056 104.4 19.7965 103.606 19.7965C102.996 19.7965 102.725 19.0709 102.218 18.8028C100.945 18.1285 99.0027 19.6295 97.9693 18.8028C96.7673 17.8412 95.2067 19.2931 94.2 19.7965" stroke="#EBEBEB" stroke-width="3" stroke-linecap="round"/>
<path d="M162.355 51.8694C161.777 51.9417 161.307 55.4614 161.139 56.0499C160.7 57.5856 159.774 58.9139 158.963 60.3331C158.218 61.6371 156.236 62.9786 155.194 64.1366C154.359 65.0643 153.428 65.8675 152.555 66.7409C151.739 67.5568 149.674 68.5759 149.385 69.5849C149.079 70.658 147.018 71.5949 146.164 72.0692C145.384 72.5027 144.645 72.9918 143.851 73.3885C143.316 73.6564 142.555 74.6254 142.001 74.6906C140.383 74.8809 138.703 76.1416 137.067 76.2325C136.035 76.2899 133.935 78.0777 132.304 78.3742C130.641 78.6766 129.159 78.9466 127.661 79.7791C126.22 80.5795 124.517 80.8584 122.881 80.8584C120.93 80.8584 119.001 81.9878 117.021 82.092C116.254 82.1324 115.487 82.7088 114.708 82.7088C113.886 82.7088 113.063 82.7088 112.241 82.7088C110.264 82.7088 108.612 83.2706 106.707 83.6169C103.551 84.1908 99.9198 83.3875 96.8385 84.2679C95.3347 84.6976 94.0337 84.8676 92.3497 84.8676C90.7077 84.8676 89.2904 84.2508 87.7238 84.2508C84.4967 84.2508 81.7979 85.5502 78.6262 83.7882C77.1863 82.9883 75.6931 82.2276 74.1545 81.5438C72.6828 80.8897 70.985 80.7884 69.7684 79.6934C68.6132 78.6537 66.3218 78.1654 64.9026 77.5346C63.4903 76.9069 62.2395 76.5409 60.5851 76.5409C58.9685 76.5409 57.3383 76.2325 55.805 76.2325C54.8563 76.2325 52.2387 75.591 51.6417 74.8448C49.5063 72.1755 48.8336 70.0843 50.4767 66.9807C51.9911 64.1201 56.2118 62.5001 58.9061 61.2754C62.6892 59.5559 69.0337 59.7426 70.1282 64.6678C70.5637 66.6273 70.2401 68.6934 70.8307 70.6129C71.1549 71.6666 72.6438 75.0973 74.3943 73.6969C75.8139 72.5612 76.6187 71.1174 76.9471 69.3108C77.3378 67.1621 79.1625 65.6399 80.4765 64.0338C81.5907 62.6721 83.3137 60.4006 85.2566 60.1961C87.3527 59.9754 89.4824 59.8877 91.6644 59.8877C97.627 59.8877 98.0777 65.5348 97.9008 70.1332C97.8366 71.8031 96.9884 74.1561 97.9008 75.7528C99.2056 78.0363 101.322 78.0513 103.452 76.9864C105.188 76.1186 107.651 73.7123 108.318 71.8465C109.173 69.4505 109.215 67.715 109.311 65.1989C109.372 63.6115 109.588 61.5005 110.237 60.0419C110.892 58.5671 113.315 56.3206 114.862 55.8785C116.96 55.2792 118.856 53.7243 121.03 53.103C123.216 52.4785 125.077 50.9442 127.507 50.9442C130.615 50.9442 133.664 53.7037 135.216 56.1184C137.028 58.9356 136.758 61.9065 136.758 65.1304C136.758 69.3768 140.047 69.5286 142.926 67.2891C144.63 65.9644 146.63 64.7902 147.381 62.6461C148.062 60.699 147.672 58.7297 147.244 56.8037C146.58 53.8171 145.358 50.7122 143.235 48.4771C141.783 46.949 140.683 45.0643 142.31 43.2344C143.789 41.5704 145.633 40.2197 147.244 38.6085C148.861 36.9912 149.215 36.1488 149.094 33.9826C148.947 31.3304 145.674 29.4149 143.372 28.757C141.902 28.3371 140.934 27.8147 139.226 27.8147C137.851 27.8147 137.129 30.142 137.067 31.207C136.931 33.5093 133.706 36.5109 131.978 37.8546C130.811 38.7626 129.994 39.5462 128.586 39.8592C127.531 40.0936 124.475 40.7014 123.806 41.5382C123.77 41.5826 122.392 42.2932 122.264 42.3092C121.728 42.3762 120.939 42.7612 120.414 42.9945C119.069 43.592 116.799 44.6653 115.411 44.7764C114.23 44.8708 112.4 45.4388 111.316 45.8557C110.399 46.2084 109.19 46.0099 108.215 46.0099C106.555 46.0099 104.778 45.8733 103.281 46.3012C101.862 46.7064 100.374 47.7743 98.826 47.8603C97.4394 47.9373 95.1576 47.3662 93.8917 47.9288C92.9379 48.3527 89.7874 48.5613 88.8032 48.0145C87.638 47.3672 85.4119 47.9267 84.1601 47.569C82.4183 47.0714 80.4932 48.1687 78.7804 48.1687C77.0328 48.1687 75.2852 48.1687 73.5377 48.1687C69.911 48.1687 66.4335 48.1687 62.8981 48.1687C59.3677 48.1687 56.019 47.2435 52.4984 47.2435C50.7925 47.2435 49.3992 46.4165 47.6326 46.3183C46.245 46.2412 44.8451 45.9537 43.3836 46.0099C42.5892 46.0405 41.9077 46.5825 41.1563 46.6267C40.6904 46.6541 38.3596 48.2723 38.0724 48.6313C36.9282 50.0615 35.2488 50.8819 34.2175 52.4862C33.7631 53.193 33.1042 54.142 32.5898 54.7135C32.0784 55.2817 31.9576 56.1976 31.5276 56.7352C30.6476 57.8352 29.9729 59.5793 28.2038 59.5793C23.5163 59.5793 20.6769 62.3488 17.7184 65.73C16.6139 66.9922 15.9036 68.681 15.2512 70.2189C14.3263 72.3989 12.9038 74.4946 12.4757 76.8493C11.5667 81.8487 9.70013 86.6697 9.70013 91.8407C9.70013 96.3339 9.9137 101.734 13.3323 105.153C15.9894 107.81 20.5588 109.083 23.4408 106.284C25.9013 103.894 25.3379 100.784 26.4905 97.8201C27.2406 95.8912 29.0506 92.7118 31.1164 91.9606C33.395 91.132 35.3965 91.0354 37.8325 91.0354C39.6397 91.0354 43.4657 92.0865 44.4801 93.811C46.0152 96.4207 47.5843 98.6716 48.6263 101.589C49.9546 105.309 50.4372 109.39 52.2585 112.931C54.0071 116.331 57.8899 119.758 61.9558 118.62C66.2094 117.429 69.0308 114.507 70.2995 110.447C71.343 107.108 74.0089 103.398 77.2384 101.829C79.9485 100.513 85.2694 100.034 87.7238 102.138C89.6499 103.789 91.4372 106.166 92.0413 108.734C92.4295 110.384 93.3066 112.016 93.5661 113.702C93.8777 115.727 93.7689 117.856 94.3714 119.836C95.1529 122.404 95.9941 126.044 98.3805 127.563C102.729 130.33 107.738 128.425 111.47 125.73C114.812 123.316 116.541 118.57 117.398 114.713C117.999 112.007 119.663 109.321 120.653 106.729C121.404 104.766 122.566 102.624 124.046 101.144C126.653 98.5365 129.967 95.353 133.829 95.353C136.166 95.353 138.955 95.6634 140.579 97.6488C141.811 99.1549 145.378 107.026 148.169 102.994C148.927 101.899 150.148 101.365 151.082 100.459C152.22 99.3533 153.112 98.0156 153.789 96.5865C155.026 93.9748 154.041 90.5447 155.194 87.9515C156.499 85.0139 158.643 83.9424 161.875 83.9424C165.16 83.9424 165.842 89.0246 166.21 91.3781C166.559 93.6125 166.46 96.0755 166.124 98.2998C165.794 100.49 166.364 102.659 166.364 104.845C166.364 106.488 167.701 107.689 169.311 107.689C171.077 107.689 172.768 104.75 173.56 103.508C175.486 100.488 176.233 97.0672 176.233 93.5197C176.233 91.7466 176.85 90.0604 176.85 88.2942C176.85 86.9829 176.737 85.8096 176.558 84.5592C176.379 83.3014 175.816 82.1561 175.308 81.0126C174.717 79.683 173.035 78.7174 172.858 77.1235C172.473 73.661 173.066 70.3458 173.44 66.9807C173.626 65.3126 172.996 63.8335 172.292 62.3548C171.738 61.1898 170.876 60.2029 170.442 59.031C169.913 57.6035 169.131 55.9224 168.454 54.645C167.556 52.948 166.952 51.8694 164.976 51.8694C163.705 51.8694 162.551 52.55 161.738 53.5656C159.847 55.9295 159.669 58.6898 157.421 60.8128C155.118 62.9879 153.875 66.4408 150.945 67.9059" stroke="#EBEBEB" stroke-width="3" stroke-linecap="round"/>
<path d="M68.9118 28.4315C69.554 28.3512 66.9618 28.4526 66.4446 28.7399M66.4446 28.7399C65.7846 29.1066 65.2035 29.0483 64.4401 29.0483C63.3634 29.0483 60.7817 30.1757 59.9684 30.8986C58.4512 32.2472 56.5867 32.3607 55.2054 34.1368C54.1118 35.5428 53.1837 37.2464 53.1837 39.0711C53.1837 41.0794 53.3715 42.1275 55.6508 42.0008C57.4127 41.9029 58.0451 40.0398 59.0432 38.9169C61.1171 36.5837 65.6037 36.1429 68.4492 36.7753C70.8557 37.31 69.1988 39.1215 70.2139 40.3903C70.9407 41.2989 71.5493 44.55 73.3835 44.1424C74.8647 43.8133 76.157 41.7285 77.2384 40.7672C78.6095 39.5485 80.9925 38.9169 82.7895 38.9169C85.9265 38.9169 88.8808 41.2729 91.5787 42.7718C92.5112 43.2899 94.7591 41.6365 95.1938 40.7672C96.1541 38.8467 98.462 38.9928 100.436 38.9169C102.273 38.8462 103.71 39.5337 105.456 39.5337C106.136 39.5337 107.003 39.3637 107.53 39.7735C107.76 39.9528 109.072 38.5127 109.311 38.3001C111.805 36.0831 114.852 36.1413 118.101 36.1413C119.213 36.1413 121.123 37.6372 122.024 36.8267C122.506 36.3926 123.302 36.1565 123.737 35.7644C124.227 35.3235 124.554 34.4349 124.971 33.9141C126.079 32.5294 125.448 31.099 127.661 30.6074C129.186 30.2684 130.692 30.3098 131.824 28.8941C132.699 27.8011 133.353 26.4026 134.291 25.3476C136.057 23.3608 134.6 21.7365 134.6 19.6423C134.6 16.4031 131.983 13.9478 129.357 12.6349C128.14 12.0262 126.262 11.1614 124.885 11.1614C122.979 11.1614 121.05 11.7782 119.043 11.7782C115.514 11.7782 111.984 11.7782 108.455 11.7782C101.144 11.7782 93.8614 12.395 86.6444 12.395C83.1912 12.395 79.5475 11.3362 76.6216 13.937C75.04 15.3429 74.7713 15.4952 74.7713 17.7919C74.7713 18.6143 74.7713 19.4367 74.7713 20.2591C74.7713 20.9732 73.2644 21.6117 72.7667 22.1094C71.3636 23.5125 72.7767 26.1215 73.4691 27.5063C73.9855 28.5391 78.0435 28.4438 79.2258 28.106C79.8573 27.9256 80.2311 26.7224 80.6307 26.2727C81.3807 25.429 81.7306 24.8833 82.7895 24.3538C84.194 23.6516 87.107 23.7016 87.107 25.6559C87.107 27.5249 87.2515 27.8411 88.3406 29.2025C88.9876 30.0112 91.3235 30.4082 92.0413 29.5109C92.4576 28.9905 93.2219 28.769 93.2749 27.8147C93.3012 27.3403 93.5173 26.2356 93.8231 25.8958C94.8231 24.7847 96.0809 23.9834 97.5924 23.8056C98.664 23.6795 99.9848 22.3234 100.831 21.6468C101.037 21.4816 101.433 20.1251 101.225 19.865C100.755 19.2786 100.213 19.0558 99.6826 18.6314C98.8424 17.9593 95.8804 18.6863 94.9711 18.8884C93.5315 19.2083 94.2595 19.4881 95.2795 19.4881C96.3392 19.4881 97.2939 19.1797 98.3634 19.1797C100.23 19.1797 102.181 19.0686 104.069 19.1797C105.032 19.2364 106.413 21.3526 107.084 22.0238C109.907 24.8463 104.606 27.3744 103.143 29.2025C102.334 30.2138 100.598 30.6232 99.6826 31.4469C98.5574 32.4596 96.8988 32.7917 95.5878 33.52C94.3809 34.1905 92.1931 33.9826 90.8077 33.9826C89.3477 33.9826 88.0095 33.9826 86.4902 33.9826C82.2348 33.9826 77.9732 33.2453 74.0174 32.1151C72.752 31.7535 71.7705 29.8297 70.4537 29.6651C70.2004 29.6334 68.9118 28.4315 68.6719 28.9797C68.9118 28.4315 67.1476 28.7399 66.4446 28.7399Z" stroke="#EBEBEB" stroke-width="3" stroke-linecap="round"/>
</svg>
