<svg width="184" height="140" viewBox="0 0 184 140" fill="none" xmlns="http://www.w3.org/2000/svg">
<path d="M24.7235 50.3338C22.8576 48.6753 19.1148 48.8824 16.9444 49.3647C14.3669 49.9375 11.2331 52.8172 9.63669 54.8127C8.15511 56.6647 5.45733 57.9437 4.89587 60.4703C4.30398 63.1337 3.03621 65.6173 3.03621 68.4851C3.03621 71.2616 2.09329 74.0492 2.09329 76.9714C2.09329 79.5087 1.62183 82.2373 1.62183 84.9863C1.62183 90.4516 3.03621 95.914 3.03621 101.487C3.03621 102.796 4.64949 106.686 5.49829 107.747C7.13041 109.788 9.76109 110.874 11.994 111.991C14.7575 113.372 17.1777 114.893 20.0089 116.234C21.9367 117.147 25.1396 119.41 27.0808 119.639C28.5148 119.807 29.8853 120.973 31.3239 121.053C32.2801 121.106 34.504 121.334 35.2004 121.891C36.0531 122.573 38.2513 122.762 39.3388 123.306C40.7637 124.018 42.158 124.689 43.582 125.401C44.9649 126.093 46.4653 126.002 47.8251 126.606C48.7457 127.015 50.5729 127.597 51.5968 127.654C54.1589 127.796 56.9206 129.539 59.6117 129.539C62.5654 129.539 65.6431 130.562 68.5695 130.98C71.432 131.389 74.475 131.297 77.2915 131.923C78.8797 132.276 80.3579 132.84 82.0061 132.84C82.6429 132.84 85.6637 133.11 86.0136 133.547C86.3176 133.927 89.3749 134.556 90.021 134.699C91.7477 135.083 93.421 135.197 95.2071 135.197C98.212 135.197 101.1 136.14 104.165 136.14C105.683 136.14 107.411 135.894 108.906 136.166C110.736 136.499 112.671 137.554 114.537 137.554C121.619 137.554 129.186 138.609 135.753 134.961C138.653 133.35 142.398 134.151 145.182 132.604C147.714 131.197 151.096 131.381 153.904 130.98C154.81 130.851 157.596 130.465 158.147 129.775C158.83 128.922 161.184 129.371 162.155 128.832C164.663 127.439 167.456 125.56 170.17 124.353C175.391 122.033 178.711 115.149 179.861 109.974C180.541 106.912 181.121 103.733 181.956 100.728C182.817 97.6295 181.72 93.4562 181.72 90.1724C181.72 78.7023 181.165 66.1756 176.639 55.9914C175.941 54.4213 174.358 50.9268 172.291 50.8053C170.064 50.6743 167.391 49.054 165.586 47.6098C163.417 45.8746 159.09 49.8077 159.09 45.6192C159.09 44.2131 159.173 42.7793 159.09 41.376C159.029 40.3419 157.805 39.1093 157.676 38.0758C157.188 34.1713 150.982 31.7126 148.718 28.8823C146.448 26.0443 140.14 23.4605 136.696 23.4605C134.685 23.4605 135.989 18.0192 135.989 16.1528C135.989 14.3341 134.956 10.0934 133.396 8.84514C130.02 6.14442 126.85 1.7732 122.08 1.7732C115.448 1.7732 109.688 4.13051 102.986 4.13051C100.222 4.13051 96.104 4.68627 93.557 3.55428C91.2516 2.52966 87.136 2.24467 84.5992 2.24467C81.9957 2.24467 78.6433 0.874689 76.1129 2.1399C73.1345 3.62908 71.9018 4.56991 69.5124 6.95929C65.7527 10.719 64.1664 16.5237 64.7978 21.5746C64.9572 22.8499 66.2697 22.0461 63.8548 22.0461C62.9101 22.0461 61.1503 22.3238 60.4498 22.8842C58.7497 24.2444 55.1013 24.2804 53.0112 24.4034C52.4311 24.4375 50.5086 25.3683 50.0777 25.713C49.2066 26.4099 47.5171 26.6357 46.4107 27.1274C43.8366 28.2715 43.3726 30.8058 41.5913 32.7849C40.083 34.4609 40.6423 39.0187 38.3959 39.0187C36.3013 39.0187 32.4772 39.0179 30.9573 40.5379C29.4589 42.0363 28.1685 43.7981 26.7141 45.2525C25.7618 46.2048 23.848 50.7715 24.7235 50.3338Z" stroke="#EBEBEB" stroke-width="3" stroke-linecap="round"/>
<path d="M159.311 49.5757C159.311 50.8267 158.702 51.9262 158.702 53.0782C158.702 54.0868 158.433 55.4161 157.72 56.2084C156.423 57.6504 155.2 59.1588 153.896 60.6077C152.448 62.2173 151.128 63.6804 149.632 65.1762C148.101 66.7075 146.459 67.6473 144.861 69.0678C143.343 70.4173 141.304 71.3722 139.886 72.7903C138.439 74.2372 135.418 75.0483 133.423 75.1591C131.389 75.2721 129.134 76.5578 127.331 77.3588C126.222 77.8518 124.429 78.5094 123.22 78.5094C122.041 78.5094 120.482 78.4063 119.413 78.8816C117.987 79.5152 116.092 80.0981 114.54 80.3198C112.731 80.5783 110.56 80.6857 108.821 81.1828C105.815 82.0414 102.251 80.7899 99.3115 82.0965C97.9349 82.7083 96.007 82.1387 94.5907 82.9256C93.6312 83.4586 91.5594 83.0778 90.4791 83.0778C87.9876 83.0778 85.4339 82.7733 82.865 82.7733C80.7242 82.7733 77.5372 82.0636 75.5554 81.1828C74.3309 80.6386 73.424 78.8139 72.0529 78.8139C71.0299 78.8139 69.7303 78.2742 68.5504 78.2048C67.7111 78.1554 66.7547 76.9303 65.9447 76.6989C64.8537 76.3872 63.6671 75.7683 62.4591 75.7683C61.4786 75.7683 60.2269 75.7683 59.2612 75.7683C58.858 75.7683 57.8548 75.9519 57.5861 75.616C57.2494 75.1951 56.9135 74.8546 56.3678 74.8546" stroke="#EBEBEB" stroke-width="3" stroke-linecap="round"/>
<path d="M65.4709 23.4236C64.781 23.3373 66.5097 24.8061 66.8415 25.4032C67.4467 26.4927 68.6222 27.5283 69.5826 28.2966C71.1995 29.5901 74.4474 31.6468 76.5876 31.6468C79.59 31.6468 82.3425 31.9514 85.2677 31.9514C86.8525 31.9514 88.2513 32.256 89.8361 32.256C91.2767 32.256 92.5937 33.0347 93.8632 32.0191C94.7798 31.2858 96.4646 31.0365 97.5856 30.7162C98.6361 30.4161 99.4806 29.5962 100.344 28.9057C102.042 27.5473 104.76 25.9801 104.76 23.5759C104.76 22.0418 105.085 20.44 103.542 19.5319C102.91 19.1604 102.346 18.8551 101.562 18.8551C100.96 18.8551 100.692 18.1385 100.191 17.8737C98.9336 17.2078 97.0157 18.6902 95.9951 17.8737C94.8081 16.9241 93.2668 18.358 92.2727 18.8551" stroke="#EBEBEB" stroke-width="3" stroke-linecap="round"/>
<path d="M159.582 50.5299C159.01 50.6013 158.546 54.0773 158.38 54.6584C157.947 56.1751 157.032 57.4869 156.231 58.8885C155.495 60.1763 153.538 61.5011 152.509 62.6448C151.684 63.561 150.766 64.3541 149.903 65.2167C149.097 66.0225 147.058 67.0289 146.773 68.0254C146.47 69.0852 144.435 70.0104 143.592 70.4789C142.821 70.907 142.091 71.39 141.308 71.7817C140.778 72.0464 140.028 73.0033 139.48 73.0677C137.882 73.2557 136.223 74.5007 134.607 74.5905C133.588 74.6471 131.514 76.4127 129.903 76.7055C128.261 77.0042 126.798 77.2709 125.318 78.093C123.895 78.8835 122.213 79.159 120.597 79.159C118.67 79.159 116.766 80.2743 114.811 80.3772C114.053 80.4171 113.295 80.9864 112.526 80.9864C111.714 80.9864 110.902 80.9864 110.09 80.9864C108.137 80.9864 106.505 81.5412 104.625 81.8831C101.507 82.4499 97.9215 81.6567 94.8784 82.5261C93.3932 82.9505 92.1084 83.1183 90.4453 83.1183C88.8237 83.1183 87.424 82.5092 85.8769 82.5092C82.6898 82.5092 80.0245 83.7925 76.8922 82.0523C75.4702 81.2624 73.9955 80.5111 72.476 79.8358C71.0226 79.1898 69.3459 79.0898 68.1444 78.0084C67.0035 76.9816 64.7405 76.4993 63.339 75.8765C61.9442 75.2565 60.709 74.8951 59.0751 74.8951C57.4786 74.8951 55.8686 74.5905 54.3544 74.5905C53.4174 74.5905 50.8323 73.9569 50.2427 73.22C48.1339 70.5839 47.4695 68.5186 49.0922 65.4536C50.5878 62.6284 54.7561 61.0286 57.4169 59.8191C61.153 58.1209 67.4188 58.3053 68.4997 63.1693C68.9298 65.1046 68.6102 67.145 69.1935 69.0407C69.5136 70.0812 70.9841 73.4693 72.7129 72.0863C74.1148 70.9648 74.9096 69.5389 75.234 67.7547C75.6198 65.6326 77.4218 64.1294 78.7196 62.5433C79.8199 61.1984 81.5215 58.9551 83.4403 58.7531C85.5103 58.5352 87.6136 58.4486 89.7685 58.4486C95.6571 58.4486 96.1022 64.0255 95.9275 68.5669C95.8641 70.2161 95.0264 72.5398 95.9275 74.1167C97.2161 76.3719 99.3063 76.3867 101.41 75.335C103.124 74.4779 105.557 72.1015 106.215 70.2589C107.06 67.8927 107.101 66.1787 107.196 63.6938C107.257 62.1262 107.47 60.0413 108.11 58.6008C108.757 57.1444 111.151 54.9258 112.679 54.4892C114.75 53.8973 116.622 52.3617 118.77 51.7481C120.928 51.1314 122.767 49.6162 125.166 49.6162C128.236 49.6162 131.247 52.3414 132.78 54.7261C134.568 57.5084 134.303 60.4423 134.303 63.6262C134.303 67.8199 137.55 67.9698 140.394 65.7581C142.076 64.4498 144.052 63.2903 144.793 61.1727C145.466 59.2498 145.081 57.3049 144.658 55.4029C144.002 52.4534 142.796 49.387 140.699 47.1797C139.265 45.6706 138.178 43.8093 139.785 42.0021C141.246 40.3587 143.067 39.0248 144.658 37.4336C146.255 35.8364 146.604 35.0045 146.485 32.8651C146.34 30.2459 143.108 28.3541 140.834 27.7044C139.383 27.2897 138.426 26.7738 136.739 26.7738C135.382 26.7738 134.669 29.0723 134.607 30.124C134.474 32.3977 131.288 35.362 129.582 36.6891C128.429 37.5858 127.623 38.3596 126.232 38.6688C125.19 38.9002 122.172 39.5005 121.511 40.3269C121.476 40.3708 120.115 41.0726 119.988 41.0884C119.459 41.1545 118.679 41.5347 118.161 41.7652C116.833 42.3552 114.591 43.4152 113.22 43.5249C112.054 43.6181 110.247 44.1791 109.176 44.5909C108.271 44.9391 107.077 44.7431 106.114 44.7431C104.475 44.7431 102.719 44.6082 101.24 45.0308C99.84 45.4309 98.3702 46.4856 96.8412 46.5705C95.4719 46.6466 93.2184 46.0825 91.9681 46.6382C91.0263 47.0568 87.9148 47.2628 86.9428 46.7228C85.7921 46.0835 83.5937 46.6361 82.3574 46.2829C80.6372 45.7914 78.736 46.8751 77.0445 46.8751C75.3186 46.8751 73.5927 46.8751 71.8669 46.8751C68.2853 46.8751 64.8509 46.8751 61.3594 46.8751C57.8729 46.8751 54.5657 45.9614 51.0888 45.9614C49.4041 45.9614 48.028 45.1446 46.2834 45.0477C44.913 44.9716 43.5305 44.6876 42.0872 44.7431C41.3026 44.7733 40.6296 45.3086 39.8875 45.3523C39.4274 45.3793 37.1255 46.9774 36.8419 47.3319C35.7119 48.7444 34.0534 49.5546 33.0348 51.139C32.5861 51.8371 31.9354 52.7742 31.4274 53.3386C30.9224 53.8998 30.8031 54.8043 30.3783 55.3352C29.5093 56.4216 28.8429 58.144 27.0958 58.144C22.4665 58.144 19.6624 60.8791 16.7406 64.2184C15.6499 65.4649 14.9484 67.1327 14.3041 68.6515C13.3907 70.8045 11.9858 72.8742 11.563 75.1996C10.6653 80.1369 8.8219 84.8981 8.8219 90.0049C8.8219 94.4423 9.03282 99.7758 12.409 103.152C15.0331 105.776 19.5457 107.034 22.392 104.269C24.8219 101.908 24.2655 98.8371 25.4038 95.9101C26.1446 94.0051 27.9321 90.8652 29.9722 90.1233C32.2226 89.305 34.1992 89.2096 36.605 89.2096C38.3898 89.2096 42.1683 90.2477 43.1701 91.9507C44.6861 94.528 46.2357 96.751 47.2648 99.6325C48.5766 103.306 49.0532 107.336 50.8519 110.834C52.5788 114.192 56.4134 117.576 60.4287 116.451C64.6296 115.275 67.4159 112.39 68.6689 108.38C69.6994 105.083 72.3322 101.419 75.5216 99.8694C78.1981 98.5694 83.4529 98.0963 85.8769 100.174C87.779 101.804 89.5441 104.153 90.1408 106.688C90.5241 108.318 91.3904 109.929 91.6467 111.595C91.9543 113.595 91.8469 115.698 92.4419 117.653C93.2137 120.189 94.0445 123.784 96.4013 125.284C100.696 128.017 105.642 126.135 109.328 123.473C112.629 121.09 114.336 116.402 115.183 112.593C115.777 109.921 117.419 107.268 118.398 104.709C119.139 102.77 120.286 100.654 121.748 99.1926C124.323 96.6176 127.595 93.4735 131.409 93.4735C133.718 93.4735 136.472 93.7801 138.076 95.7409C139.293 97.2283 142.815 105.001 145.572 101.02C146.32 99.9387 147.526 99.4106 148.448 98.5158C149.573 97.4242 150.453 96.1031 151.121 94.6918C152.343 92.1125 151.371 88.725 152.509 86.164C153.798 83.2629 155.916 82.2046 159.108 82.2046C162.352 82.2046 163.025 87.2238 163.389 89.548C163.733 91.7547 163.636 94.1871 163.304 96.3838C162.978 98.5469 163.541 100.689 163.541 102.847C163.541 104.47 164.861 105.656 166.451 105.656C168.196 105.656 169.865 102.754 170.647 101.528C172.549 98.545 173.287 95.1665 173.287 91.6631C173.287 89.9119 173.896 88.2467 173.896 86.5024C173.896 85.2074 173.785 84.0487 173.608 82.8138C173.431 81.5716 172.875 80.4406 172.373 79.3113C171.79 77.9982 170.129 77.0445 169.954 75.4704C169.574 72.0509 170.16 68.7769 170.529 65.4536C170.712 63.8062 170.091 62.3454 169.395 60.8851C168.847 59.7346 167.997 58.7599 167.568 57.6025C167.046 56.1927 166.273 54.5325 165.605 53.271C164.718 51.595 164.121 50.5299 162.17 50.5299C160.915 50.5299 159.775 51.202 158.972 52.205C157.105 54.5395 156.929 57.2656 154.709 59.3623C152.434 61.5103 151.207 64.9203 148.313 66.3673" stroke="#EBEBEB" stroke-width="3" stroke-linecap="round"/>
<path d="M67.2983 27.383C67.9326 27.3037 65.3725 27.4038 64.8618 27.6875M64.8618 27.6875C64.21 28.0497 63.6361 27.9921 62.8821 27.9921C61.8188 27.9921 59.2691 29.1055 58.4659 29.8195C56.9676 31.1513 55.1263 31.2634 53.7621 33.0174C52.6821 34.406 51.7655 36.0885 51.7655 37.8905C51.7655 39.8738 51.951 40.9089 54.202 40.7838C55.942 40.6872 56.5665 38.8471 57.5522 37.7382C59.6005 35.4339 64.0313 34.9987 66.8415 35.6231C69.2181 36.1513 67.5818 37.9403 68.5843 39.1933C69.3021 40.0906 69.9031 43.3014 71.7145 42.8989C73.1773 42.5738 74.4536 40.5149 75.5216 39.5656C76.8757 38.3619 79.2291 37.7382 81.0037 37.7382C84.1018 37.7382 87.0194 40.065 89.6838 41.5452C90.6048 42.0569 92.8248 40.4241 93.254 39.5656C94.2024 37.6689 96.4817 37.8132 98.4316 37.7382C100.246 37.6684 101.665 38.3473 103.389 38.3473C104.06 38.3473 104.916 38.1794 105.437 38.5842C105.664 38.7612 106.96 37.339 107.196 37.1291C109.659 34.9396 112.668 34.9971 115.876 34.9971C116.975 34.9971 118.862 36.4743 119.751 35.6739C120.227 35.2453 121.013 35.0121 121.443 34.6248C121.927 34.1894 122.25 33.3118 122.661 32.7975C123.755 31.43 123.133 30.0174 125.318 29.5318C126.824 29.1971 128.311 29.2379 129.43 27.8398C130.293 26.7604 130.94 25.3793 131.866 24.3373C133.61 22.3752 132.171 20.7711 132.171 18.7029C132.171 15.5039 129.586 13.0791 126.993 11.7825C125.791 11.1814 123.936 10.3273 122.577 10.3273C120.695 10.3273 118.789 10.9365 116.807 10.9365C113.321 10.9365 109.836 10.9365 106.35 10.9365C99.1302 10.9365 91.9382 11.5456 84.8108 11.5456C81.4005 11.5456 77.8019 10.5 74.9124 13.0684C73.3504 14.4569 73.0851 14.6073 73.0851 16.8755C73.0851 17.6877 73.0851 18.4998 73.0851 19.312C73.0851 20.0173 71.5969 20.6478 71.1054 21.1394C69.7197 22.525 71.1153 25.1017 71.7991 26.4693C72.3091 27.4893 76.3167 27.3951 77.4843 27.0615C78.1079 26.8833 78.4771 25.6951 78.8718 25.251C79.6124 24.4178 79.9579 23.8788 81.0037 23.3559C82.3908 22.6624 85.2677 22.7118 85.2677 24.6419C85.2677 26.4876 85.4103 26.7999 86.4859 28.1444C87.1249 28.9431 89.4318 29.3351 90.1407 28.4489C90.5518 27.9351 91.3066 27.7163 91.359 26.7738C91.385 26.3053 91.5984 25.2144 91.9004 24.8788C92.8879 23.7815 94.1301 22.9901 95.6229 22.8145C96.6811 22.69 97.9856 21.3507 98.8208 20.6825C99.0248 20.5194 99.4155 19.1797 99.21 18.9228C98.7466 18.3437 98.211 18.1237 97.6871 17.7046C96.8574 17.0408 93.9321 17.7588 93.0341 17.9584C91.6124 18.2743 92.3313 18.5506 93.3386 18.5506C94.3852 18.5506 95.3281 18.246 96.3843 18.246C98.2273 18.246 100.154 18.1364 102.019 18.246C102.97 18.302 104.334 20.392 104.997 21.0548C107.784 23.8423 102.549 26.339 101.105 28.1444C100.306 29.1432 98.5909 29.5475 97.6871 30.3609C96.5759 31.3611 94.9378 31.689 93.6432 32.4083C92.4513 33.0705 90.2906 32.8651 88.9224 32.8651C87.4805 32.8651 86.1589 32.8651 84.6585 32.8651C80.4559 32.8651 76.2473 32.137 72.3406 31.0208C71.0909 30.6638 70.1216 28.7638 68.8211 28.6012C68.571 28.57 67.2983 27.383 67.0614 27.9244C67.2983 27.383 65.556 27.6875 64.8618 27.6875Z" stroke="#EBEBEB" stroke-width="3" stroke-linecap="round"/>
</svg>
