<svg width="315" height="342" viewBox="0 0 315 342" fill="none" xmlns="http://www.w3.org/2000/svg">
<path d="M99.2768 291.523C95.6503 289.799 95.5182 287.162 94.5102 283.086C93.5447 279.182 87.5112 278.598 87.6598 274.309C87.8136 269.871 86.8692 267.275 84.9665 263.936C84.5542 263.212 84.5439 262.072 84.5758 261.152C84.6157 260 83.4948 259.841 83.3735 258.956C83.111 257.042 83.0461 255.438 84.0304 253.098C84.9106 251.006 85.292 248.163 85.4134 245.961C85.5709 243.104 86.7256 240.714 87.975 238.085C89.9097 234.015 87.709 227.854 87.7786 223.702C87.8202 221.219 87.0263 218.889 87.2706 216.316C87.3512 215.467 87.9169 214.023 88.1495 213.161C88.449 212.052 88.0621 211.048 88.0689 209.912C88.0944 205.686 88.2461 201.661 86.3567 198.344C85.3703 196.613 87.1078 194.029 87.9405 192.277C88.8844 190.291 88.4606 190.59 88.6506 188.589C89.1595 183.229 90.1064 177.858 91.4917 172.727C91.9226 171.132 91.654 166.397 91.6803 164.826C91.6972 163.819 91.8074 162.932 91.5765 161.998C91.2497 160.677 92.4354 160.315 92.9881 159.277C94.5608 156.323 98.8062 153.421 101.765 153.742C105.35 154.131 106.681 157.342 109.712 158.783C110.779 159.29 113.82 159.94 115.045 159.874C116.879 159.776 118.634 161.075 120.23 161.834C123.17 163.231 127.61 163.788 129.503 166.386C130.585 167.87 131.964 169.36 133.561 170.119C91.182 137.387 97.8005 290.821 99.2768 291.523Z" stroke="#EBEBEB" stroke-width="3" stroke-linecap="round"/>
<path d="M196.066 239.305C196.05 243.524 193.292 246.51 191.679 249.903M191.679 249.903C190.127 253.167 186.667 255.952 185.856 259.493C184.874 263.782 182.007 266.377 178.396 268.955C176.475 270.325 175.477 271.893 173.251 273.013C171.046 274.122 168.524 275.188 166.969 277.182C164.334 280.561 160.757 281.967 157.419 284.35C154.481 286.447 150.891 286.918 148.567 289.898C146.57 292.458 140.788 293.196 137.917 294.592C136.367 295.345 133.624 295.223 131.908 295.602C129.943 296.036 128.895 296.766 127.225 297.929C123.958 300.202 119.368 299.399 115.683 299.633C111.856 299.876 109.042 299.403 105.529 297.733C97.7223 294.023 96.1287 285.571 98.4605 277.788C99.9025 272.974 100.026 267.974 100.813 263.26C101.568 258.739 101.921 255.839 100.312 251.315C99.3001 248.469 99.6131 243.119 97.3502 241.127C95.2699 239.295 96.9318 231.359 97.433 229.17C98.1904 225.861 102.633 220.238 101.467 216.959C100.276 213.61 100.461 208.295 101.84 204.923C103.222 201.545 102.64 197.32 103.727 194.112C104.422 192.06 103.651 190.167 104.657 188.05C105.098 187.122 106.445 184.033 106.222 183.085C105.628 180.561 107.683 175.32 109.74 173.556C112.216 171.433 113.624 167.864 116.902 166.698C120.337 165.477 123.717 165.241 127.094 166.846C128.917 167.712 130.187 169.104 132.147 169.898C133.625 170.497 135.505 170.727 137.174 171.637C140.96 173.702 143.451 178.251 147.333 180.368C151.255 182.507 155.559 182.875 157.465 187.786C159.344 192.626 162.587 194.639 166.163 197.919C168.428 199.996 170.731 201.915 172.972 204.118C175.029 206.14 177.949 207.59 179.571 210.001C182.389 214.19 185.269 218.897 187.342 223.451C189.065 227.235 190.174 230.774 193.839 233.043C196.299 234.566 196.692 240.724 195.614 242.993C193.933 246.53 193.36 246.366 191.679 249.903Z" stroke="#EBEBEB" stroke-width="3" stroke-linecap="round"/>
<path d="M184.853 237.107C184.837 239.245 182.068 241.021 181.107 242.865C180.109 244.781 178.011 246.759 176.556 248.353C173.01 252.239 169.558 256.271 165.994 260.2C164.304 262.064 161.986 263.664 160.514 265.718C159.29 267.426 157.644 269.191 156.089 270.587C154.629 271.898 153.122 273.477 151.7 274.871C149.933 276.602 147.559 277.504 145.745 279.07C144.144 280.452 142.245 281.988 140.351 282.951C139.537 283.366 138.502 283.53 137.65 283.722C136.517 283.977 135.479 284.623 134.419 284.862C133.51 285.067 132.134 285.718 131.226 285.568C130.408 285.434 129.244 285.374 128.435 285.429C126.833 285.537 125.119 284.572 123.481 284.337C122.35 284.174 121.215 284.212 120.079 284.265C119.403 284.297 118.722 283.861 118.11 284.008C117.389 284.181 113.932 282.281 113.951 281.597C114.047 278.286 120.072 275.275 122.713 274.323C124.317 273.744 126.225 271.461 127.348 270.231C128.434 269.04 129.909 268.112 130.782 266.7C131.86 264.955 134.622 264.381 135.982 262.99C137.555 261.381 139.06 259.642 140.733 258.181C142.978 256.22 145.391 254.322 147.776 252.558C150.384 250.629 151.753 247.84 153.758 245.394C157.237 241.149 160.567 236.955 163.568 232.417C164.765 230.608 165.975 228.73 166.922 226.737C167.675 225.154 167.011 223.369 167.28 221.781C167.414 220.988 167.761 217.201 165.845 219.101C164.586 220.35 163.718 221.955 162.52 223.268C161.736 224.127 160.715 224.534 159.931 225.336C158.323 226.98 156.179 228.278 154.395 229.753C152.311 231.475 150.295 233.312 148.092 234.88C146.162 236.253 143.904 237.194 141.955 238.596C141.129 239.191 140.44 239.925 139.667 240.581C138.56 241.521 137.235 242.413 136.206 243.421C134.924 244.678 132.814 245.438 131.331 246.607C129.475 248.068 127.645 248.731 125.469 249.587C123.463 250.376 121.667 252.4 119.423 252.405C117.88 252.408 113.248 252.666 114.458 250.12C115.01 248.96 115.314 247.612 115.894 246.393C116.459 245.202 117.681 244.203 118.571 243.236C120.549 241.087 122.52 238.14 124.953 236.527C130.258 233.01 133.945 227.798 139.074 224.148C141.095 222.709 143.861 220.795 144.96 218.484C145.53 217.284 146.8 216.429 147.508 215.285C148.091 214.341 148.992 212.84 149.829 212.129C150.681 211.406 151.133 209.74 151.611 208.735C152.12 207.662 152.965 206.441 153.232 205.285C153.443 204.372 153.528 203.294 153.471 202.345C153.409 201.306 153.077 201.239 152.018 200.806C151.031 200.403 149.943 201.536 149.087 201.863C147.6 202.432 145.853 203.251 144.684 204.369C142.557 206.402 140.256 208.194 138.013 210.112C135.148 212.563 132.074 214.986 129.715 218.022C128.023 220.2 124.624 221.526 122.171 222.577C120.731 223.195 119.689 224.006 118.225 224.358C117.11 224.625 113.977 222.611 113.928 221.373C113.868 219.842 115.403 217.721 116.053 216.353C116.991 214.381 118.325 212.599 119.667 210.871C120.632 209.629 122.108 208.564 122.796 207.119C123.071 206.539 123.809 205.514 124.475 205.354C126.742 204.81 128.912 202.289 130.49 200.675C131.896 199.238 133.21 197.233 134.078 195.407C134.758 193.975 137.206 190.601 135.909 189.078C133.004 185.667 128.948 188.855 126.753 191.681C125.587 193.182 123.467 194.114 121.777 194.724C120.056 195.345 119.221 195.296 117.342 195.254C112.701 195.152 116.137 190.008 117.182 187.81C118.041 186.002 123.14 182.325 121.479 180.184" stroke="#EBEBEB" stroke-width="3" stroke-linecap="round"/>
<path d="M175.24 233.125C175.921 232.025 176.512 231.764 176.195 230.415C175.984 229.519 174.15 229.411 174.474 228.432C174.993 226.862 176.444 223.953 173.579 224.01" stroke="#EDEDED" stroke-width="3" stroke-linecap="round"/>
<path d="M103.715 242.084C103.94 241.404 102.979 239.027 102.744 238.367C102.34 237.23 101.889 236.097 102.173 234.858C102.469 233.565 101.568 232.589 102.22 231.217C102.543 230.538 102.866 229.859 103.189 229.18C103.543 228.434 104.189 228.477 104.507 227.808" stroke="#EDEDED" stroke-width="3" stroke-linecap="round"/>
<path d="M116.422 292.414C117.221 292.924 115.334 293.228 114.955 293.048C114.142 292.662 113.217 292.506 112.517 292.223C111.603 291.852 111.181 291.255 110.337 290.853C109.551 290.48 108.794 291.351 108.055 291.101C107.048 290.76 106.571 290.702 105.769 289.995C105.123 289.427 105.613 288.513 105.481 287.953C105.15 286.544 106.851 284.665 106.821 283.188" stroke="#EDEDED" stroke-width="3" stroke-linecap="round"/>
<path d="M137.664 251.228C137.335 252.224 137.43 252.942 136.199 253.455C135.216 253.863 134.23 253.904 133.314 254.23C132.412 254.55 131.801 255.169 131.103 255.768C130.591 256.207 130.339 256.354 129.767 256.632C129.316 256.852 128.833 256.423 128.358 256.795" stroke="#EDEDED" stroke-width="3" stroke-linecap="round"/>
<path d="M115.475 177.41C116.409 177.015 116.255 175.77 116.637 174.966C116.965 174.276 117.893 173.416 118.621 173.244C119.345 173.074 120.203 173.155 120.917 173.318C121.284 173.402 123.049 173.027 123.321 172.814" stroke="#EDEDED" stroke-width="3" stroke-linecap="round"/>
<path d="M163.553 254.21C163.088 255.189 161.501 258.229 160.258 257.639C158.73 256.912 158.641 260.362 156.95 260.395" stroke="#EDEDED" stroke-width="3" stroke-linecap="round"/>
<path d="M95.8422 171.075C96.6064 169.878 96.4168 168.669 96.9774 167.286C97.4321 166.164 97.0256 164.374 98.4951 163.937C99.4722 163.647 100.495 162.964 101.475 163.429C102.375 163.857 103.641 165.321 104.592 164.578" stroke="#EDEDED" stroke-width="3" stroke-linecap="round"/>
<path d="M95.1809 205.393C95.9349 205.752 94.6661 207.102 94.8983 208.089C95.1246 209.052 95.5579 209.951 95.631 211.102C95.6727 211.759 95.0899 212.186 95.2392 212.821C95.3341 213.224 95.4096 214.02 95.226 214.406C95.0553 214.765 94.6687 216.084 94.2905 216.218C93.5841 216.469 93.368 215.682 93.3916 216.864" stroke="#EDEDED" stroke-width="3" stroke-linecap="round"/>
<path d="M93.5062 269.866C93.1865 270.367 92.3336 268.09 92.0077 267.803C91.4651 267.325 90.0792 266.682 89.7523 266.01C89.5176 265.527 89.5951 265.069 89.6787 264.569C89.7694 264.026 89.1595 263.916 89.2511 263.366C89.3525 262.759 90.354 261.246 90.0993 260.921" stroke="#EDEDED" stroke-width="3" stroke-linecap="round"/>
<path d="M218.298 161.622C222.513 161.428 225.145 161.812 227.507 158.589C226.545 159.901 84.5 140.988 113.621 101.245C112.581 102.664 110.856 103.728 109.192 104.5C106.28 105.852 104.925 110.102 103.01 112.715C101.97 114.134 100.367 115.604 100.132 117.423C99.9754 118.638 98.7816 121.497 98.0871 122.445C96.1123 125.14 92.6953 125.82 91.6616 129.263C90.8081 132.105 92.9092 136.839 95.5469 138.959C96.4738 139.704 96.6165 140.939 97.9829 140.876C98.9483 140.831 99.8063 141.113 100.799 141.326C102.348 141.658 107.081 142.318 108.581 143.053C113.406 145.414 118.548 147.391 123.758 148.937C125.703 149.513 125.484 149.039 127.277 150.353C128.859 151.512 131.101 153.722 132.992 153.092C136.615 151.884 140.569 152.818 144.745 153.668C145.867 153.896 146.931 153.712 147.974 154.223C148.785 154.619 150.111 155.456 150.936 155.701C153.437 156.443 155.885 156.118 158.335 156.644C162.429 157.522 168.922 156.564 172.598 159.257L172.704 159.335C175.037 161.044 177.169 162.607 179.925 163.308C182.081 163.857 184.825 164.786 186.735 166.059C188.871 167.481 190.469 167.731 192.411 167.847C193.308 167.9 193.668 166.831 194.8 167.095C195.705 167.305 196.834 167.518 197.625 167.254C201.273 166.038 204.012 165.617 208.375 166.634C212.59 167.617 214.261 161.808 218.298 161.622Z" stroke="#EBEBEB" stroke-width="3" stroke-linecap="round"/>
<path d="M194.539 53.4863C198.681 54.2935 201.096 57.5623 204.126 59.7826M204.126 59.7826C207.042 61.9189 209.128 65.8404 212.454 67.3005C216.483 69.0693 218.494 72.3725 220.349 76.4029C221.336 78.5462 222.689 79.8207 223.371 82.2177C224.047 84.5908 224.621 87.2682 226.288 89.1693C229.113 92.3914 229.823 96.1683 231.538 99.8939C233.048 103.173 232.837 106.788 235.328 109.63C237.469 112.071 237.109 117.889 237.942 120.971C238.391 122.635 237.757 125.306 237.807 127.062C237.865 129.074 238.386 130.24 239.215 132.099C240.835 135.734 239.186 140.092 238.725 143.756C238.246 147.56 237.254 150.236 234.955 153.373C229.846 160.346 221.246 160.326 214.038 156.577C209.58 154.257 204.691 153.198 200.209 151.542C195.909 149.952 193.127 149.062 188.382 149.794C185.396 150.254 180.2 148.944 177.818 150.793C175.629 152.493 168.146 149.372 166.089 148.469C162.981 147.105 158.291 141.687 154.851 142.218C151.339 142.759 146.152 141.581 143.099 139.594C140.039 137.604 135.781 137.383 132.834 135.714C130.948 134.646 128.944 135.049 127.054 133.664C126.224 133.056 123.443 131.154 122.47 131.195C119.879 131.305 115.116 128.304 113.769 125.953C112.148 123.123 108.907 121.07 108.376 117.632C107.821 114.029 108.222 110.664 110.432 107.648C111.625 106.02 113.23 105.034 114.378 103.257C115.243 101.918 115.822 100.114 117.029 98.6455C119.767 95.3134 124.703 93.7203 127.51 90.3041C130.346 86.8528 131.515 82.6938 136.696 81.7422C141.803 80.8044 144.388 77.9961 148.28 75.0987C150.745 73.2633 153.062 71.3608 155.646 69.5727C158.018 67.9319 159.989 65.3353 162.662 64.1943C167.305 62.212 172.468 60.2653 177.33 59.0829C181.37 58.1004 185.054 57.6744 187.971 54.4995C189.928 52.3692 196.051 53.1372 198.077 54.6217C201.236 56.9363 200.967 57.468 204.126 59.7826Z" stroke="#EBEBEB" stroke-width="3" stroke-linecap="round"/>
<path d="M190.277 64.0885C192.375 64.505 193.6 67.5577 195.231 68.8473C196.925 70.1872 198.475 72.6192 199.768 74.3468C202.921 78.559 206.233 82.7052 209.425 86.9426C210.939 88.9529 212.076 91.529 213.817 93.3602C215.265 94.8831 216.69 96.8309 217.771 98.62C218.785 100.3 220.053 102.077 221.155 103.735C222.524 105.794 222.965 108.296 224.163 110.372C225.22 112.203 226.373 114.356 226.964 116.397C227.218 117.275 227.186 118.322 227.215 119.195C227.253 120.355 227.693 121.496 227.729 122.582C227.76 123.514 228.141 124.988 227.824 125.851C227.538 126.629 227.262 127.761 227.163 128.567C226.969 130.16 225.7 131.663 225.162 133.228C224.79 134.308 224.614 135.43 224.454 136.556C224.358 137.226 223.802 137.813 223.831 138.442C223.866 139.183 221.352 142.222 220.684 142.075C217.45 141.36 215.622 134.877 215.181 132.104C214.914 130.42 213.029 128.118 212.031 126.785C211.065 125.494 210.43 123.872 209.206 122.749C207.695 121.363 207.648 118.543 206.537 116.946C205.252 115.099 203.826 113.295 202.705 111.378C201.199 108.804 199.788 106.078 198.502 103.405C197.096 100.482 194.614 98.6138 192.587 96.1856C189.07 91.9724 185.574 87.9151 181.68 84.1161C180.127 82.601 178.509 81.0611 176.729 79.7567C175.315 78.7207 173.438 79.0384 171.928 78.4762C171.175 78.1959 167.52 77.1441 169.027 79.3828C170.017 80.8536 171.431 82.0074 172.497 83.4307C173.193 84.3614 173.401 85.4409 174.042 86.3614C175.355 88.2486 176.229 90.5981 177.343 92.6274C178.644 94.9968 180.07 97.3223 181.197 99.7798C182.184 101.933 182.684 104.327 183.697 106.505C184.126 107.428 184.717 108.242 185.217 109.124C185.932 110.388 186.56 111.856 187.358 113.056C188.352 114.552 188.703 116.766 189.573 118.443C190.66 120.539 190.969 122.461 191.401 124.759C191.8 126.878 193.452 129.021 193.036 131.226C192.749 132.743 192.134 137.341 189.86 135.675C188.824 134.915 187.557 134.364 186.468 133.566C185.405 132.787 184.652 131.4 183.87 130.345C182.13 127.998 179.604 125.51 178.476 122.817C176.016 116.947 171.588 112.348 168.964 106.626C167.93 104.371 166.569 101.295 164.504 99.7819C163.432 98.9967 162.832 97.5889 161.84 96.6795C161.022 95.9297 159.717 94.7632 159.175 93.8073C158.625 92.8354 157.073 92.0786 156.176 91.4213C155.218 90.7192 154.176 89.6606 153.09 89.1814C152.234 88.8033 151.19 88.5176 150.248 88.3953C149.215 88.2613 149.087 88.5754 148.464 89.5345C147.883 90.428 148.792 91.7096 148.953 92.6111C149.232 94.1792 149.709 96.0483 150.588 97.4061C152.186 99.8764 153.515 102.472 154.979 105.035C156.849 108.309 158.652 111.783 161.192 114.67C163.015 116.74 163.68 120.328 164.252 122.934C164.589 124.464 165.191 125.64 165.261 127.144C165.315 128.289 162.749 130.989 161.524 130.805C160.009 130.577 158.213 128.671 156.991 127.776C155.229 126.486 153.73 124.841 152.284 123.198C151.245 122.018 150.476 120.368 149.185 119.422C148.667 119.042 147.799 118.126 147.766 117.442C147.657 115.113 145.588 112.508 144.298 110.656C143.15 109.005 141.427 107.339 139.796 106.144C138.517 105.207 135.662 102.17 133.924 103.158C130.028 105.373 132.399 109.954 134.763 112.64C136.019 114.067 136.537 116.324 136.819 118.098C137.106 119.905 136.901 120.716 136.508 122.555C135.537 127.094 131.129 122.754 129.166 121.315C127.551 120.132 124.896 114.434 122.481 115.665" stroke="#EBEBEB" stroke-width="4" stroke-linecap="round"/>
<path d="M184.564 72.7839C183.611 71.9088 183.465 71.2791 182.081 71.3378C181.161 71.3768 180.711 73.1583 179.81 72.6564C178.365 71.852 175.78 69.8817 175.299 72.7068" stroke="#EDEDED" stroke-width="3" stroke-linecap="round"/>
<path d="M179.952 144.721C179.326 144.372 176.811 144.87 176.119 144.977C174.926 145.161 173.73 145.391 172.565 144.88C171.35 144.347 170.223 145.049 168.998 144.151C168.391 143.707 167.785 143.262 167.178 142.818C166.512 142.33 166.675 141.703 166.078 141.266" stroke="#EDEDED" stroke-width="3" stroke-linecap="round"/>
<path d="M231.772 141.676C232.423 140.987 232.368 142.898 232.12 143.236C231.588 143.963 231.262 144.841 230.852 145.476C230.317 146.304 229.651 146.607 229.098 147.36C228.584 148.063 229.298 148.97 228.913 149.648C228.389 150.574 228.243 151.031 227.399 151.687C226.72 152.215 225.914 151.562 225.339 151.587C223.893 151.648 222.366 149.625 220.91 149.377" stroke="#EDEDED" stroke-width="3" stroke-linecap="round"/>
<path d="M195.3 113.088C196.216 113.598 196.94 113.639 197.212 114.945C197.429 115.987 197.284 116.963 197.432 117.924C197.578 118.87 198.072 119.586 198.529 120.384C198.864 120.969 198.961 121.244 199.127 121.858C199.258 122.343 198.747 122.737 199.023 123.273" stroke="#EDEDED" stroke-width="3" stroke-linecap="round"/>
<path d="M118.631 121.042C118.418 120.05 117.165 119.968 116.447 119.442C115.832 118.991 115.16 117.918 115.129 117.171C115.097 116.427 115.337 115.6 115.632 114.93C115.783 114.585 115.745 112.781 115.588 112.474" stroke="#EDEDED" stroke-width="3" stroke-linecap="round"/>
<path d="M203.083 88.2175C203.957 88.8581 206.647 90.987 205.833 92.0969C204.833 93.4621 208.205 94.1962 207.921 95.8634" stroke="#EDEDED" stroke-width="3" stroke-linecap="round"/>
<path d="M108.727 139.139C107.694 138.164 106.471 138.123 105.217 137.313C104.2 136.656 102.366 136.72 102.213 135.195C102.11 134.18 101.632 133.047 102.272 132.173C102.862 131.369 104.537 130.399 103.985 129.326" stroke="#EDEDED" stroke-width="3" stroke-linecap="round"/>
<path d="M142.312 146.223C142.806 145.55 143.894 147.049 144.907 147.006C145.895 146.965 146.859 146.707 148.004 146.852C148.657 146.934 148.967 147.586 149.619 147.559C150.033 147.541 150.828 147.616 151.173 147.869C151.494 148.104 152.717 148.731 152.778 149.128C152.892 149.869 152.079 149.933 153.244 150.132" stroke="#EDEDED" stroke-width="3" stroke-linecap="round"/>
<path d="M205.327 159.957C205.759 160.366 203.363 160.776 203.02 161.043C202.449 161.486 201.557 162.727 200.835 162.922C200.317 163.062 199.882 162.9 199.406 162.724C198.89 162.533 198.667 163.111 198.145 162.918C197.567 162.705 196.269 161.438 195.902 161.627" stroke="#EDEDED" stroke-width="3" stroke-linecap="round"/>
<path d="M208.824 133.316C208.095 132.349 207.834 132.326 207.371 132.585C207.049 132.766 207.774 134.293 207.404 134.42C207.286 134.461 206.922 134.397 206.908 134.659C206.891 134.98 207.044 135.392 207.026 135.713C207.021 135.808 206.426 135.559 206.619 135.853C206.837 136.186 206.991 136.55 207.198 136.953C207.761 138.047 208.112 138.011 208.648 138.676C208.866 138.947 209.016 139.297 209.203 139.578C209.46 139.965 209.385 140.523 209.694 140.777C210.249 141.233 210.498 141.155 210.678 140.438C210.793 139.975 210.897 138.979 210.845 138.311C210.788 137.576 210.479 136.406 210.077 135.516C209.922 135.175 208.999 133.371 208.869 133.317C208.241 133.06 206.631 131.889 207.635 134.802C207.948 135.709 208.295 136.962 207.759 136.742C207.552 136.657 206.748 136.493 207.123 136.363C207.339 136.289 208.115 135.098 207.464 135.322C207.319 135.373 206.881 135.523 207.027 135.473C207.225 135.405 207.513 135.551 207.788 135.826" stroke="#EBEBEB" stroke-width="3" stroke-linecap="round"/>
<path d="M167.178 84.7295C166.449 83.7628 166.189 83.7397 165.726 83.9991C165.404 84.1795 166.129 85.7064 165.758 85.8342C165.64 85.8748 165.276 85.8106 165.262 86.0734C165.245 86.394 165.398 86.806 165.381 87.1266C165.375 87.2224 164.781 86.9725 164.973 87.267C165.191 87.6 165.345 87.9639 165.552 88.3667C166.116 89.4611 166.466 89.4253 167.002 90.0894C167.22 90.3605 167.371 90.7109 167.557 90.992C167.814 91.3787 167.74 91.9367 168.048 92.1905C168.603 92.6465 168.853 92.569 169.032 91.8515C169.147 91.3885 169.251 90.3932 169.2 89.7253C169.143 88.9902 168.833 87.8195 168.431 86.9302C168.277 86.5892 167.354 84.7847 167.223 84.731C166.596 84.4739 164.986 83.3028 165.989 86.216C166.302 87.1233 166.65 88.3761 166.113 88.1562C165.906 88.0713 165.102 87.9064 165.477 87.7772C165.693 87.7026 166.47 86.512 165.819 86.7364C165.673 86.7866 165.236 86.9372 165.381 86.887C165.58 86.8187 165.867 86.9649 166.142 87.2402" stroke="#EBEBEB" stroke-width="3" stroke-linecap="round"/>
<path d="M143.726 121.789C142.997 120.823 142.736 120.799 142.274 121.059C141.952 121.239 142.677 122.766 142.306 122.894C142.188 122.935 141.824 122.87 141.81 123.133C141.793 123.454 141.946 123.866 141.929 124.186C141.923 124.282 141.328 124.032 141.521 124.327C141.739 124.66 141.893 125.024 142.1 125.426C142.664 126.521 143.014 126.485 143.55 127.149C143.768 127.42 143.919 127.771 144.105 128.052C144.362 128.438 144.287 128.996 144.596 129.25C145.151 129.706 145.401 129.629 145.58 128.911C145.695 128.448 145.799 127.453 145.747 126.785C145.69 126.05 145.381 124.879 144.979 123.99C144.825 123.649 143.902 121.844 143.771 121.791C143.144 121.534 141.533 120.363 142.537 123.276C142.85 124.183 143.198 125.436 142.661 125.216C142.454 125.131 141.65 124.966 142.025 124.837C142.241 124.762 143.018 123.572 142.367 123.796C142.221 123.846 141.784 123.997 141.929 123.947C142.128 123.878 142.415 124.025 142.69 124.3" stroke="#EBEBEB" stroke-width="3" stroke-linecap="round"/>
<path d="M190.934 156.908C191.443 155.864 191.5 155.977 190.571 155.853C189.663 155.733 188.992 155.265 188.205 154.881C187.387 154.482 184.447 154.05 183.807 155.06C183.5 155.545 183.73 158.061 184.008 158.514C184.697 159.636 187.219 160.701 188.253 159.551C188.647 159.111 188.378 158.414 189.033 158.188C189.899 157.89 190.388 157.88 191.177 158.317C192.266 158.921 193.978 159.705 195.183 158.863C195.588 158.58 192.854 157.509 192.381 157.278C191.512 156.854 190.286 156.458 189.616 155.801" stroke="#EBEBEB" stroke-width="3" stroke-linecap="round"/>
</svg>
